<svg id="拡大のアイコン3" xmlns="http://www.w3.org/2000/svg" width="22.229" height="22.497" viewBox="0 0 22.229 22.497">
  <path id="楕円形_2" data-name="楕円形 2" d="M5.225-4A9.225,9.225,0,1,1-4,5.225,9.236,9.236,0,0,1,5.225-4Zm0,17A7.774,7.774,0,1,0-2.548,5.225,7.782,7.782,0,0,0,5.225,13Z" transform="translate(4 4)" fill="#333"/>
  <path id="線_107" data-name="線 107" d="M1.058,2.352a1,1,0,0,1-.724-.311l-5.56-5.856a1,1,0,0,1,.037-1.411,1,1,0,0,1,1.411.037L1.782.666a1,1,0,0,1-.724,1.685Z" transform="translate(20.173 20.145)" fill="#333"/>
  <g id="Group_13772" data-name="Group 13772" transform="translate(3.649 3.649)">
    <path id="線_108" data-name="線 108" d="M6.427-2.548h-9.7A.726.726,0,0,1-4-3.274.726.726,0,0,1-3.274-4h9.7a.726.726,0,0,1,.726.726A.726.726,0,0,1,6.427-2.548Z" transform="translate(4 8.85)" fill="#333"/>
    <path id="線_109" data-name="線 109" d="M-3.274,7.152A.726.726,0,0,1-4,6.427v-9.7A.726.726,0,0,1-3.274-4a.726.726,0,0,1,.726.726v9.7A.726.726,0,0,1-3.274,7.152Z" transform="translate(8.85 4)" fill="#333"/>
  </g>
</svg>
