<svg id="button02" xmlns="http://www.w3.org/2000/svg" xmlns:xlink="http://www.w3.org/1999/xlink" width="320" height="62" viewBox="0 0 320 62">
  <defs>
    <linearGradient id="linear-gradient" x1="0.5" x2="0.5" y2="1" gradientUnits="objectBoundingBox">
      <stop offset="0" stop-color="#ff9700"/>
      <stop offset="1" stop-color="#f75903"/>
    </linearGradient>
  </defs>
  <path id="長方形_3047" data-name="長方形 3047" d="M6.557,1.6C3.665,1.6,1.311,4.471,1.311,8V54c0,3.529,2.353,6.4,5.246,6.4H313.443c2.893,0,5.246-2.871,5.246-6.4V8c0-3.529-2.353-6.4-5.246-6.4H6.557m0-1.6H313.443C317.064,0,320,3.582,320,8V54c0,4.418-2.936,8-6.557,8H6.557C2.936,62,0,58.418,0,54V8C0,3.582,2.936,0,6.557,0Z" fill="url(#linear-gradient)"/>
</svg>
