<svg xmlns="http://www.w3.org/2000/svg" width="85.5" height="11.795" viewBox="0 0 85.5 11.795">
  <path id="パス_18474" data-name="パス 18474" d="M2.748-9.288H1.116V.024H2.748ZM7.716-6.564H6.276V.024H7.764V-4.3A1.811,1.811,0,0,1,9.192-5.412c.528,0,.816.348.816,1.1V.024H11.5V-4.3a1.741,1.741,0,0,1,1.38-1.116c.588,0,.912.36.912,1.1V.024H15.3V-4.728a1.755,1.755,0,0,0-1.8-1.98,2.538,2.538,0,0,0-2.088,1.284,1.562,1.562,0,0,0-1.62-1.284,2.505,2.505,0,0,0-2.076,1.3Zm12.156,2.04a1.255,1.255,0,0,1,1.26-1.152c.792,0,1.14.336,1.14,1.164v.372a12.646,12.646,0,0,0-1.884.192c-1.428.276-2.148,1.02-2.148,2.172A1.872,1.872,0,0,0,20.268.18,2.468,2.468,0,0,0,22.344-.84c.036.384.06.576.108.864h1.392a17.473,17.473,0,0,1-.108-1.944V-4.536c0-1.464-.852-2.184-2.556-2.184a2.532,2.532,0,0,0-2.724,1.812Zm2.4,2.544A1.8,1.8,0,0,1,20.736-.9a.933.933,0,0,1-1.056-1c0-.588.372-.948,1.08-1.116A6.854,6.854,0,0,1,22.272-3.2Zm10.476-5.5A1.882,1.882,0,0,0,30.84-6.4a3.064,3.064,0,0,0-1.4-.312c-1.512,0-2.58.84-2.58,2.112a1.964,1.964,0,0,0,.936,1.74c-.708.444-1.008.852-1.008,1.368,0,.48.324.816.924.948C26.976-.276,26.5.168,26.5.744c0,.948,1.056,1.6,2.964,1.6,2.148,0,3.312-.852,3.312-2,0-.96-.552-1.536-2.28-1.7L29-1.488c-.756-.072-.912-.2-.912-.48,0-.228.192-.432.48-.576a3.384,3.384,0,0,0,.852.108c1.524,0,2.592-.8,2.592-2.172a1.913,1.913,0,0,0-.54-1.32,1.5,1.5,0,0,1,1.176-.336ZM29.436-5.82a1.143,1.143,0,0,1,1.2,1.212,1.158,1.158,0,0,1-1.2,1.284,1.156,1.156,0,0,1-1.2-1.3A1.14,1.14,0,0,1,29.436-5.82Zm.816,5.628c1,.108,1.212.324,1.212.768,0,.468-.636.876-1.92.876-1.092,0-1.812-.336-1.812-.912,0-.408.324-.72.888-.9ZM41.016-2.94v-.312c0-2.232-1.26-3.456-2.94-3.456-1.776,0-2.988,1.332-2.988,3.48S36.24.192,38.208.192A2.611,2.611,0,0,0,40.98-1.716l-1.368-.4c-.228.864-.708,1.248-1.392,1.248-1.092,0-1.644-.828-1.656-2.076Zm-4.428-1c.072-1.056.6-1.728,1.512-1.728s1.368.624,1.44,1.728Zm13.7-2.628H48.84v8.9h1.5V-.9A1.867,1.867,0,0,0,52.068.18c1.416,0,2.58-1.236,2.58-3.492s-1.068-3.4-2.508-3.4a2.185,2.185,0,0,0-1.848,1.116Zm.048,2.148a1.589,1.589,0,0,1,1.416-1.116c.756,0,1.344.672,1.344,2.256S52.464-.984,51.672-.984a1.549,1.549,0,0,1-1.332-1.1Zm8.808-5.04H57.636V.024h1.512v-4.3A2.037,2.037,0,0,1,60.684-5.4c.588,0,.912.336.912,1.1V.024h1.548V-4.728A1.8,1.8,0,0,0,61.26-6.7a2.675,2.675,0,0,0-2.112,1.248Zm9.936,2.748C67.3-6.708,66.1-5.376,66.1-3.24S67.272.192,69.072.192,72.06-1.14,72.06-3.276,70.86-6.708,69.084-6.708Zm0,1.092c.972,0,1.428.84,1.428,2.352,0,1.536-.468,2.364-1.44,2.364s-1.428-.84-1.428-2.364S68.112-5.616,69.084-5.616Zm7.764-3.1-1.488.336v1.812h-.984v1.1h.984v3.888C75.36-.36,75.948.18,77.2.18A7.929,7.929,0,0,0,78.372.108l.06-1.08a3.457,3.457,0,0,1-.768.072c-.552,0-.816-.288-.816-.948V-5.46h1.476v-1.1H76.848Zm6.792,2c-1.788,0-2.988,1.332-2.988,3.468S81.828.192,83.628.192s2.988-1.332,2.988-3.468S85.416-6.708,83.64-6.708Zm0,1.092c.972,0,1.428.84,1.428,2.352,0,1.536-.468,2.364-1.44,2.364S82.2-1.74,82.2-3.264,82.668-5.616,83.64-5.616Z" transform="translate(-1.115 9.455)" fill="#fff"/>
</svg>
