<svg xmlns="http://www.w3.org/2000/svg" width="12.903" height="16.978" viewBox="0 0 12.903 16.978">
  <g id="Icon_ionic-ios-document" data-name="Icon ionic-ios-document" transform="translate(-7.313 -3.938)">
    <path id="Path_17855" data-name="Path 17855" d="M21.408,8.142h3.862a.21.21,0,0,0,.212-.212h0a1.256,1.256,0,0,0-.454-.972l-3.239-2.7a1.363,1.363,0,0,0-.874-.314h0a.313.313,0,0,0-.314.314V7.336A.806.806,0,0,0,21.408,8.142Z" transform="translate(-5.267 -0.003)" fill="#13966e"/>
    <path id="Path_17856" data-name="Path 17856" d="M14.231,7.333v-3.4H8.671A1.362,1.362,0,0,0,7.313,5.3V19.557a1.362,1.362,0,0,0,1.358,1.358H18.858a1.362,1.362,0,0,0,1.358-1.358V9.243H16.141A1.913,1.913,0,0,1,14.231,7.333Z" fill="#13966e"/>
  </g>
</svg>
