<svg xmlns="http://www.w3.org/2000/svg" xmlns:xlink="http://www.w3.org/1999/xlink" width="353.475" height="45.155" viewBox="0 0 353.475 45.155">
  <defs>
    <clipPath id="clip-path">
      <rect id="Rectangle_127" data-name="Rectangle 127" width="353.475" height="45.155" fill="none"/>
    </clipPath>
  </defs>
  <g id="Group_8" data-name="Group 8" clip-path="url(#clip-path)">
    <path id="Path_1" data-name="Path 1" d="M359.466,64.16l8.078-5.861-2.02-1.471,2.02-1.461-8.078-5.87-2.027,1.468L353.4,48.032l2.017-1.464-8.075-5.861-2.023,1.461-2.02-1.461-8.084,5.861,2.023,1.464L333.2,50.964,331.181,49.5l-8.081,5.87,2.017,1.461L323.1,58.3l8.081,5.861L333.2,62.7l4.041,2.932L335.216,67.1l8.084,5.861,2.02-1.471,2.023,1.471,8.075-5.861L353.4,65.627l4.037-2.932ZM345.32,59.77l-4.044-2.942L345.32,53.9l4.041,2.926Z" transform="translate(-293.645 -34.256)" fill="#ffe200"/>
    <path id="Path_2" data-name="Path 2" d="M369.664,52.518l-1.706-2.036H357.838c.152-.435.286-.845.407-1.245h12.964V45.676H359.039a12.811,12.811,0,0,0,.089-3.348h-4.076a17.206,17.206,0,0,1-.2,3.348h-7.8v3.561h6.912a31.558,31.558,0,0,1-7.058,11.1l3.281,2.544a43.666,43.666,0,0,0,5.543-7.776,15.022,15.022,0,0,0,2.865,3.453,34.692,34.692,0,0,1-6.6,3.3l2.773,2.741a21.487,21.487,0,0,0,7.02-3.526,42.677,42.677,0,0,0,6.169,3.526l3.059-2.741a61.505,61.505,0,0,1-6.147-3.418,32.318,32.318,0,0,0,4.793-5.918m-7.954,3.6c-1.969-1.677-2.236-2.579-2.236-2.579h4.355a12.95,12.95,0,0,1-2.119,2.579" transform="translate(-241.833 -30.728)" fill="#221815"/>
    <path id="Path_3" data-name="Path 3" d="M372.544,48.94,369.6,51.325V49.489a16.447,16.447,0,0,0,2.208-2.875h7.077V42.647H356.013v3.968h10.216c-3.021,4.4-11.753,8.891-11.753,8.891l3.409,2.77a62.344,62.344,0,0,0,7.011-4.539v9.7h4.7V52.005a33.153,33.153,0,0,0,7.192,6.1l3.281-2.945a33.011,33.011,0,0,1-7.529-6.22" transform="translate(-225.352 -30.034)" fill="#221815"/>
    <path id="Path_4" data-name="Path 4" d="M344.83,42.35c-2.408,7.02-6.34,10.159-6.34,10.159l2.849,2.735,1.29-1.557L342.6,64.3h3.739V47.963a33.238,33.238,0,0,0,2.23-5.086Z" transform="translate(-260.147 -30.68)" fill="#221815"/>
    <path id="Path_5" data-name="Path 5" d="M351.783,56.925h5.623V53.64h-5.623V49.9h6.083V46.652H351.5l1.718-1.623c-.864-.94-5.543-2.8-5.543-2.8l-2.529,2.382c.858.337,2.627,1.318,3.923,2.039h-7.052V49.9H347.6V53.64H341.97v3.285H347.6v3.72H341.1V64.05h17.179V60.645h-6.5Z" transform="translate(-254.46 -30.941)" fill="#221815"/>
    <path id="Path_6" data-name="Path 6" d="M376.405,61.522v-.743c-1.083.1-2.792.178-4.638.238v-.74h4.7V57.894h-4.7v-.845h5.041V49.572h-5.041v-.905h5.041V46.287h-5.041v-.7c4.8-.057,5.435-.375,5.435-.375l-1.871-2.83c-4.762,1.016-12.459.74-12.459.74l.909,2.37c1.7.054,3.177.076,4.47.1v.7h-5.378v2.379h5.378v.905h-4.924v7.478h4.924v.845h-4.924v2.382h4.924v.842c-2.907.076-5.378.124-5.378.124l1.077,2.481c4.3-.273,12.455-.737,12.455-.737V61.633l-.054-.057a.24.24,0,0,0,.054-.054m-2.888-6.566h-1.661v-.769h1.661Zm-1.725-3.339h1.668v.788h-1.668Zm-3.516,3.393h-1.661v-.759h1.661Zm0-2.6h-1.661v-.788h1.661Z" transform="translate(-207.076 -30.615)" fill="#221815"/>
    <path id="Path_7" data-name="Path 7" d="M378.238,46.454h-4.085c.025-2.465-.1-4.126-.1-4.126h-3.57q.124,2.216.121,4.126h-2.786l.346,3.57h2.335c-.556,8.45-2.976,11.223-3.361,11.614v.108l2.433,2.548c3-3.678,4.082-9.53,4.438-14.269h.886c.057,2.208-.162,9.231-.162,9.231a1.73,1.73,0,0,1-1.534,1.871h-1.585l1.985,3c5.21-.565,4.644-5.781,4.644-5.781Z" transform="translate(-197.803 -30.728)" fill="#221815"/>
    <path id="Path_8" data-name="Path 8" d="M390.426,46.963h4.4V43.621h-8.837V42.328H381.8v1.293h-8.885v3.342h4.215l.477,1.363h-4.635c.457,9.177-2.322,13.481-2.322,13.481l2.83,2.03a21.291,21.291,0,0,0,2.592-7.185l2,1.757a5.07,5.07,0,0,0,.845-.848v2.43h4.361v.848h-8.049v3h19.549v-3h-6.909V59.99h4.644V57.01h-4.644V56h5.546V52.966h-5.546V51.61h-4.59v1.356h-1.665c.188-.41.3-.673.3-.673-.569-.381-1.41-.854-2.033-1.2h15.4v-2.77H389.95ZM376.265,55.45a29.238,29.238,0,0,0,.321-4.355h2.262a20.464,20.464,0,0,1-2.582,4.355m3.723.55h3.285v1.01h-3.952c.229-.311.457-.654.667-1.01m5.781-7.675h-3.955l-.426-1.363h4.8Z" transform="translate(-190.157 -30.728)" fill="#221815"/>
    <path id="Path_9" data-name="Path 9" d="M390.037,59.252a7.537,7.537,0,0,0,6.63-7.36,5.589,5.589,0,0,0-5.448-5.778c-.734,8.634-4.292,15.073-6.795,15.073-1.839,0-5.257-3.113-5.257-7.478a11.578,11.578,0,0,1,11.556-10.991c5.165,0,9.67,3.513,9.67,9.152a10.968,10.968,0,0,1-2.783,7.287,13.007,13.007,0,0,1-5.117,3.421,15.266,15.266,0,0,0-2.456-3.326m-7.382-5.826c0,1.817,1.016,3.186,1.509,3.186.569,0,1.017-1.061,1.274-1.674a20.593,20.593,0,0,0,1.817-8.116,8.018,8.018,0,0,0-4.6,6.6" transform="translate(-171.61 -29.879)" fill="#221815"/>
    <path id="Path_10" data-name="Path 10" d="M387.875,48.084a22.418,22.418,0,0,1,4.552,2.4,24.243,24.243,0,0,0-1.534,3,41.98,41.98,0,0,0-4.482-2.382Zm-1.464,13.961a37.118,37.118,0,0,0,4.813-7.83,12.4,12.4,0,0,0,2.478,2.17,52.662,52.662,0,0,1-3.726,7.03c.022.213.07.4.07.521,0,.213-.1.3-.235.3a.681.681,0,0,1-.356-.14ZM390.3,42.468a34.007,34.007,0,0,1,3.869,2.408,30.991,30.991,0,0,0-1.769,2.9,32,32,0,0,0-3.869-2.522Zm18,3.821v3h-5.683V52.8h4.457v3.208h-4.457v4.5h6.036v3.278H393.18V60.514h5.947v-4.5h-4.39V52.8h4.39V49.288h-5.334v-3h5.191a22.237,22.237,0,0,0-2.027-1.861l2.9-2.17a26.722,26.722,0,0,1,3.491,3.253c-.731.451-.921.569-1.2.778Z" transform="translate(-155.843 -30.88)" fill="#221815"/>
    <path id="Path_11" data-name="Path 11" d="M394.868,48.441V45.188h8.939V42.332l3.777.14c.118,0,.305.025.305.213,0,.143-.187.286-.426.426v2.077h8.917v3.253h-3.3a22.759,22.759,0,0,1-4.952,8.964,21.51,21.51,0,0,0,8.609,3.844,7.714,7.714,0,0,0-2.239,3.186,26.971,26.971,0,0,1-8.8-4.695,24.426,24.426,0,0,1-9.152,4.743,6.041,6.041,0,0,0-2.57-2.808,25.784,25.784,0,0,0,9.2-4.295,22.47,22.47,0,0,1-5.048-8.939Zm7.03,0a20.554,20.554,0,0,0,3.7,6.534,20.1,20.1,0,0,0,3.443-6.534Z" transform="translate(-139.386 -30.719)" fill="#221815"/>
    <path id="Path_12" data-name="Path 12" d="M407.766,48.334c.213.048.521.118.521.426,0,.257-.191.3-.521.375V64.207H404.2V53.073a7.417,7.417,0,0,1-.8.874,7.478,7.478,0,0,0-2.122-2.735,24.713,24.713,0,0,0,4.86-8.917l3.113,1.013c.26.1.47.165.47.356,0,.235-.353.353-.683.47a21.792,21.792,0,0,1-1.817,4.06Zm15.616-1.817v3h-5.19v3.421h4.339v3.208h-4.339v4.317h5.661v3.113H408.569V60.459h6.061V56.142H409.8V52.934h4.835V49.512h-5.8v-3h5.521a16.6,16.6,0,0,0-2.125-2.147l2.691-2.1a22.5,22.5,0,0,1,3.631,3.3c-.422.356-.661.543-1.109.943Z" transform="translate(-123.482 -30.848)" fill="#221815"/>
    <path id="Path_13" data-name="Path 13" d="M421,54.027l9.365-.851.353,3.091L421,57.209v2.077c0,1.414.165,1.766,1.391,1.766h3.091c1.744,0,1.887-1.792,2-3.183a6.539,6.539,0,0,0,3.373,1.865c-.378,2.027-.991,4.339-4.342,4.339h-5.1c-1.461,0-3.961-.1-3.961-3.516V57.54l-8.348.8-.191-3.212,8.539-.778V52.8c-1.252.235-2.147.4-3.751.565A6.257,6.257,0,0,0,411.85,50.2a23.583,23.583,0,0,0,11.96-2.735H412.723V50.11h-3.447v-5.5h8.682v-2.29l3.678.121c.235,0,.569.022.569.283s-.213.33-.569.448v1.439h8.729v5.5h-3.491V47.467H424.4l2.03,1.957a.644.644,0,0,1,.283.473.3.3,0,0,1-.308.3,1.124,1.124,0,0,1-.5-.14,26.159,26.159,0,0,1-4.9,1.912Z" transform="translate(-106.842 -30.737)" fill="#221815"/>
  </g>
</svg>
