<svg id="Group_13739" data-name="Group 13739" xmlns="http://www.w3.org/2000/svg" xmlns:xlink="http://www.w3.org/1999/xlink" width="19.523" height="19.523" viewBox="0 0 19.523 19.523">
  <defs>
    <clipPath id="clip-path">
      <rect id="Rectangle_3261" data-name="Rectangle 3261" width="19.523" height="19.523" fill="none"/>
    </clipPath>
    <linearGradient id="linear-gradient" x1="0.5" x2="0.5" y2="1" gradientUnits="objectBoundingBox">
      <stop offset="0" stop-color="#22a369"/>
      <stop offset="1" stop-color="#096cb4"/>
    </linearGradient>
  </defs>
  <g id="Group_13739-2" data-name="Group 13739" clip-path="url(#clip-path)">
    <path id="Path_18428" data-name="Path 18428" d="M14.5.949H12.889V.285a.284.284,0,0,0-.569,0V.949H3.412V.285a.284.284,0,0,0-.569,0V.949H1.232A1.233,1.233,0,0,0,0,2.181V16.4a1.233,1.233,0,0,0,1.232,1.232h9.477a.284.284,0,0,0,.284-.284l4.454-7.2a.284.284,0,0,0,.284-.284V2.181A1.233,1.233,0,0,0,14.5.949M4.075,14.786H2.18a.284.284,0,0,1,0-.569h1.9a.284.284,0,0,1,0,.569m0-3.317H2.18a.284.284,0,1,1,0-.569h1.9a.284.284,0,1,1,0,.569m0-3.317H2.18a.284.284,0,0,1,0-.569h1.9a.284.284,0,0,1,0,.569m4.739,6.634h-1.9a.284.284,0,0,1,0-.569h1.9a.284.284,0,0,1,0,.569m0-3.317h-1.9a.284.284,0,1,1,0-.569h1.9a.284.284,0,1,1,0,.569m0-3.317h-1.9a.284.284,0,1,1,0-.569h1.9a.284.284,0,1,1,0,.569m4.739,0h-1.9a.284.284,0,1,1,0-.569h1.9a.284.284,0,0,1,0,.569M15.164,4.74H.569V2.181a.664.664,0,0,1,.663-.663H2.843v.663a.284.284,0,1,0,.569,0V1.517h8.909v.663a.284.284,0,1,0,.569,0V1.517H14.5a.664.664,0,0,1,.663.663Z" transform="translate(0 -0.001)" fill="url(#linear-gradient)"/>
    <path id="Path_18429" data-name="Path 18429" d="M112.192,107.169a5.023,5.023,0,1,0,5.023,5.023,5.029,5.029,0,0,0-5.023-5.023" transform="translate(-97.692 -97.692)" stroke="#fff" stroke-width="1" fill="url(#linear-gradient)"/>
    <path id="Path_18430" data-name="Path 18430" d="M133.642,134.086a.293.293,0,0,0-.41,0l-2.072,2.158-.933-.971a.293.293,0,0,0-.41,0l-1.133,1.18a.284.284,0,0,0,0,.394l2.273,2.372a.284.284,0,0,0,.205.088h0a.285.285,0,0,0,.205-.087l3.413-3.554a.284.284,0,0,0,0-.394Zm-2.48,4.525-1.879-1.961.739-.77.933.971a.293.293,0,0,0,.41,0l2.072-2.158.744.774Z" transform="translate(-117.231 -122.152)" fill="#fff"/>
  </g>
</svg>
