<svg xmlns="http://www.w3.org/2000/svg" xmlns:xlink="http://www.w3.org/1999/xlink" width="297.99" height="99.75" viewBox="0 0 297.99 99.75">
  <defs>
    <linearGradient id="linear-gradient" x1="0.018" y1="0.5" x2="1" y2="0.5" gradientUnits="objectBoundingBox">
      <stop offset="0" stop-color="#22a369"/>
      <stop offset="1" stop-color="#096cb4"/>
    </linearGradient>
  </defs>
  <g id="グループ_13660" data-name="グループ 13660" transform="translate(-600.93 -1470.392)">
    <path id="パス_18393" data-name="パス 18393" d="M-139.59-10.41c2.1,0,2.85.06,3,.06.21,0,.24-.03.24-.24,0-.18-.06-.93-.06-2.97v-4.83c0-2.07.06-2.82.06-2.97,0-.21-.03-.24-.24-.24-.15,0-.93.06-3.27.06h-2.1l.96-1.98a1.75,1.75,0,0,1,.39-.63c.12-.09.24-.18.24-.36,0-.12-.12-.21-.33-.27a13.67,13.67,0,0,0-1.74-.36,9.309,9.309,0,0,1-.39,1.71,11.9,11.9,0,0,1-.81,1.89h-.15c-2.34,0-3.15-.06-3.3-.06-.21,0-.24.03-.24.24,0,.15.06.9.06,2.97v4.83c0,2.04-.06,2.79-.06,2.97,0,.21.03.24.24.24.12,0,.81-.03,2.55-.06-.06,6.57-2.04,8.82-4.53,10.95a2.873,2.873,0,0,1,.81.96c.12.18.21.3.33.3s.27-.12.45-.3c2.82-2.61,4.47-5.55,4.53-11.91h1.77v8.46c0,1.83.72,2.76,1.83,3.09,1.05.36,2.97.45,7.29.45,4.89,0,7.59-.39,8.67-1.23a4.262,4.262,0,0,0,1.65-3.48c.06-.51.03-.6-.48-.78a3.6,3.6,0,0,1-1.2-.69c-.12,2.1-.21,2.94-1.23,3.69-.9.63-3.45.9-7.56.9a32.723,32.723,0,0,1-6.24-.33c-.87-.21-1.14-.78-1.14-2.04Zm1.68-1.35h-3.27v-3.75h3.27Zm-4.74,0h-3.12v-3.75h3.12Zm4.74-5.07h-3.27v-3.36h3.27Zm-4.74,0h-3.12v-3.36h3.12Zm16.56,3.03c2.64,0,3.51.06,3.66.06.21,0,.24-.03.24-.24v-1.11c0-.21-.03-.24-.24-.24-.15,0-1.02.06-3.66.06h-2.16v-3.54h1.47c2.43,0,3.18.06,3.33.06.21,0,.24-.03.24-.21v-1.11c0-.24-.03-.27-.24-.27-.15,0-.9.06-3.33.06h-1.47v-.75a10.179,10.179,0,0,1,.18-2.79,1.991,1.991,0,0,0,.18-.6c0-.12-.18-.21-.39-.24a14.668,14.668,0,0,0-1.77-.18,17.494,17.494,0,0,1,.21,3.57v.99h-1.05c-2.43,0-3.15-.06-3.3-.06-.21,0-.24.03-.24.27v1.11c0,.18.03.21.24.21.15,0,.87-.06,3.3-.06h1.05v3.54h-1.62c-2.64,0-3.51-.06-3.66-.06-.21,0-.24.03-.24.24v1.11c0,.21.03.24.24.24.15,0,1.02-.06,3.66-.06h1.23a20.682,20.682,0,0,1-5.04,6.54,2.779,2.779,0,0,1,.81.75c.12.18.24.27.33.27.12,0,.21-.09.39-.27a20.28,20.28,0,0,0,4.02-5.85c-.03,4.5-.21,8.94-.21,10.14,0,.21.03.24.24.24h1.32c.18,0,.21-.03.21-.24,0-1.08-.21-5.88-.21-10.47a23.064,23.064,0,0,0,5.34,6.87c.21.18.33.3.42.3s.18-.15.36-.45a2.846,2.846,0,0,1,.84-1.02,23.024,23.024,0,0,1-6.42-6.81ZM-135.9-6c-.21.09-.21.15-.09.36q.45.72.81,1.44c-.75.21-1.56.42-2.34.57.45-1.2.9-2.58,1.17-3.54a2.772,2.772,0,0,1,.33-.87c.12-.12.21-.18.21-.33,0-.12-.12-.21-.27-.27a6.486,6.486,0,0,0-1.35-.45,10.226,10.226,0,0,1-.24,1.83,36.009,36.009,0,0,1-1.11,3.84h-.48a10.226,10.226,0,0,0,.39,1.23c.09.24.18.33.27.33a.415.415,0,0,0,.27-.15c.12-.12.33-.21.99-.39.75-.18,1.71-.48,2.61-.78l.36.96c.09.27.09.27.45.09l.42-.21c.3-.15.3-.18.21-.42A15.057,15.057,0,0,0-135-6.09c-.15-.21-.18-.21-.39-.12Zm30.93-12.12c.06-1.11.06-2.19.06-3.27a7.511,7.511,0,0,1,.18-2.4,1.467,1.467,0,0,0,.24-.69c0-.15-.15-.24-.45-.3a15.978,15.978,0,0,0-2.16-.21,22.479,22.479,0,0,1,.21,3.57c0,1.11,0,2.22-.03,3.3h-5.22c-3.03,0-4.05-.06-4.2-.06-.21,0-.24.03-.24.24v1.41c0,.21.03.24.24.24.15,0,1.17-.06,4.2-.06h5.13a25.335,25.335,0,0,1-1.38,7.11c-1.5,4.02-4.8,7.11-9.6,9.24a4.03,4.03,0,0,1,1.2,1.02c.21.24.3.36.45.36a.98.98,0,0,0,.45-.18c4.62-2.49,7.53-5.37,9.24-9.69a26.354,26.354,0,0,0,1.59-7.86h8.88a78.985,78.985,0,0,1-.96,13.44c-.33,1.86-1.08,2.28-2.16,2.28a21.548,21.548,0,0,1-4.65-.45,4.8,4.8,0,0,1,.51,1.41c.09.63.09.63.69.69a18.1,18.1,0,0,0,3.54.21c2.4,0,3.36-.87,3.93-3.54A83.011,83.011,0,0,0-94.26-15.3c0-.84,0-1.74.06-2.61,0-.21-.06-.27-.27-.27-.18,0-1.17.06-4.23.06Zm27.15,4.44c0-4.44.06-5.64.06-5.79,0-.21-.03-.24-.24-.24-.15,0-.81.06-2.91.06h-1.53c.45-1.11.9-2.4,1.17-3.18a2,2,0,0,1,.48-.87c.15-.15.21-.24.21-.39s-.12-.27-.33-.33a12.381,12.381,0,0,0-1.95-.45,6.742,6.742,0,0,1-.21,1.74,31.4,31.4,0,0,1-1.11,3.48c-1.83,0-2.49-.06-2.64-.06-.21,0-.24.03-.24.24,0,.18.06,1.41.06,6.54V-7.8c0,7.23-.06,8.43-.06,8.61,0,.21.03.24.24.24h1.29c.21,0,.24-.03.24-.24V-1.56h5.76V.15c0,.21.03.24.24.24H-78c.21,0,.24-.03.24-.24,0-.18-.06-1.32-.06-8.31ZM-79.53-3.15h-5.76v-6.87h5.76Zm0-8.46h-5.76v-6.48h5.76Zm7.2-7.86c.39-.87.75-1.71,1.08-2.55a4.881,4.881,0,0,1,.69-1.41c.27-.24.33-.36.33-.54,0-.15-.21-.3-.45-.39a14.779,14.779,0,0,0-1.86-.54,11.214,11.214,0,0,1-.57,2.67,25.6,25.6,0,0,1-4.23,7.77,4.129,4.129,0,0,1,.99.72c.21.21.33.3.45.3s.21-.12.39-.36a31.431,31.431,0,0,0,2.4-4.02h8.79a93.7,93.7,0,0,1-.87,14.79c-.33,1.92-.84,3.36-2.1,3.36a19.2,19.2,0,0,1-3.9-.39,5.043,5.043,0,0,1,.51,1.38c.12.63.12.63.66.69.96.09,2.01.15,2.85.15,2.34-.03,3.24-1.62,3.72-4.53a88.872,88.872,0,0,0,.96-14.64c0-.75,0-1.5.06-2.25,0-.21-.06-.27-.27-.27-.15,0-.9.06-3.27.06Zm-1.2,6.72c-.33.24-.36.27-.21.45a23.08,23.08,0,0,1,3.78,5.76c.09.21.15.18.45,0l.87-.63c.33-.21.36-.27.24-.51a22.828,22.828,0,0,0-3.96-5.58c-.12-.15-.18-.15-.42.03ZM-41.73-6a14.886,14.886,0,0,0-3-.36c-2.94,0-5.1,1.53-5.1,3.78,0,2.49,2.37,3.66,4.65,3.66,3.87,0,5.4-1.65,5.37-4.68A18.141,18.141,0,0,1-35.25-.75c.18.15.33.18.48-.03a9.548,9.548,0,0,0,.72-1.32c.09-.24.12-.33-.12-.48a26.111,26.111,0,0,0-5.67-3,50.58,50.58,0,0,1-.36-5.52,4.625,4.625,0,0,1,.12-1.41,1.548,1.548,0,0,0,.18-.54c0-.18-.12-.3-.33-.36a9.48,9.48,0,0,0-2.04-.39,9.325,9.325,0,0,1,.18,1.92C-42.06-10.26-41.91-7.86-41.73-6Zm.03,1.8a4.073,4.073,0,0,1,.03.72c0,1.53-.9,2.82-3.36,2.82-1.98,0-3.09-.63-3.09-2.01,0-1.11,1.08-2.04,3.48-2.04A9.926,9.926,0,0,1-41.7-4.2Zm-6.39-14.19c.3-1.05.63-2.16.96-3.24a2.718,2.718,0,0,1,.42-.93.612.612,0,0,0,.24-.45.344.344,0,0,0-.27-.33,12.571,12.571,0,0,0-2.34-.6,8.868,8.868,0,0,1-.24,2.34c-.27,1.26-.54,2.37-.9,3.51a38.559,38.559,0,0,1-4.08.24c-.63,0-1.41-.03-2.37-.12a9.338,9.338,0,0,0,.18,1.5c.06.3.09.33.36.36.69.06,1.14.06,1.59.06,1.29,0,2.49-.09,3.78-.21A52.739,52.739,0,0,1-56.4-5.1c-.15.24-.15.36.03.51a6.929,6.929,0,0,0,1.2.9c.18.12.33.15.48-.09a72.246,72.246,0,0,0,6.03-12.66c1.77-.27,3.39-.54,5.01-.87.24-.03.3-.09.27-.36-.03-.39-.09-.93-.15-1.29-.03-.18-.12-.24-.39-.18A41.155,41.155,0,0,1-48.09-18.39Zm7.77,1.62a20.2,20.2,0,0,1,6.12,3.06c.18.12.27.15.42-.06a7.811,7.811,0,0,0,.69-1.2c.15-.24.15-.36-.06-.54a21.26,21.26,0,0,0-5.88-2.82c-.27-.09-.36-.06-.51.18C-39.78-17.79-40.02-17.28-40.32-16.77Zm34.35,8.1c2.82,0,3.75.06,3.9.06.21,0,.24-.03.24-.24V-9.9c0-.21-.03-.24-.24-.24-.15,0-1.08.06-3.9.06H-17.01a8.09,8.09,0,0,1,.84-.87c.18-.12.33-.18.33-.36,0-.15-.12-.24-.39-.36l-.54-.18h6.54c2.97,0,4.02.06,4.2.06.21,0,.24-.03.24-.24,0-.15-.06-.69-.06-2.31v-2.25c0-1.65.06-2.16.06-2.31,0-.21-.03-.24-.24-.24-.18,0-1.23.06-4.2.06h-9.48c-2.97,0-4.02-.06-4.2-.06-.21,0-.24.03-.24.24,0,.15.06.66.06,2.31v2.25c0,1.62-.06,2.16-.06,2.31,0,.21.03.24.24.24.18,0,1.23-.06,4.2-.06h1.98a5.417,5.417,0,0,1-1.26,1.77h-5.07c-2.82,0-3.72-.06-3.9-.06s-.21.03-.21.24v1.05c0,.21.03.24.21.24s1.08-.06,3.9-.06h3.57c-1.8,1.53-4.14,2.79-8.25,3.96a3.855,3.855,0,0,1,.84.87c.21.36.3.48.45.48A1.286,1.286,0,0,0-27-3.51a32.887,32.887,0,0,0,4.44-2.01v3.15c0,3.48-.06,4.2-.06,4.38s.03.21.24.21h1.26c.21,0,.24-.03.24-.21V.9H-9.09v.93c0,.21.03.24.24.24h1.26c.21,0,.24-.03.24-.24,0-.15-.06-.87-.06-4.35V-5.61A23.318,23.318,0,0,0-2.76-3.66c.57.18.57.18.84-.39A4.552,4.552,0,0,1-1.14-5.1,18.359,18.359,0,0,1-9.48-8.67Zm-1.59-4.44H-22.38v-1.77H-7.56Zm0-2.97H-22.38v-1.71H-7.56ZM-9.09-.39H-20.88V-2.46H-9.09Zm0-3.3H-20.88V-5.64H-9.09ZM-20.43-6.9a15.891,15.891,0,0,0,2.1-1.77h6.96A18.075,18.075,0,0,0-9.36-6.9ZM-1.92-22.71c0-.21-.03-.24-.24-.24-.18,0-1.11.06-3.93.06h-3.96a3.266,3.266,0,0,1,.18-1.23.978.978,0,0,0,.12-.39c0-.15-.12-.24-.33-.27-.48-.06-1.08-.12-1.8-.15a10.918,10.918,0,0,1,.21,2.04h-6.9a3.266,3.266,0,0,1,.18-1.23.978.978,0,0,0,.12-.39c0-.15-.12-.24-.33-.27-.48-.06-1.08-.12-1.8-.15a10.918,10.918,0,0,1,.21,2.04h-3.69c-2.82,0-3.75-.06-3.93-.06-.21,0-.24.03-.24.24v1.17c0,.18.03.21.24.21.18,0,1.11-.06,3.93-.06h3.69c-.03.81-.06,1.2-.06,1.35,0,.21.03.24.24.24h1.26c.21,0,.24-.03.24-.24,0-.15-.06-.54-.06-1.35h6.9c-.03.81-.06,1.2-.06,1.35,0,.21.03.24.24.24h1.26c.21,0,.24-.03.24-.24,0-.15-.06-.54-.06-1.35h3.96c2.82,0,3.75.06,3.93.06.21,0,.24-.03.24-.21Zm11.82.18a19.616,19.616,0,0,1,5.55,3.66c.18.18.33.18.48,0a9.266,9.266,0,0,0,.99-1.29c.12-.21.12-.27-.06-.42A17.814,17.814,0,0,0,11.37-24a.315.315,0,0,0-.42.09A8.58,8.58,0,0,0,9.9-22.53ZM7.53-17.49A17.913,17.913,0,0,1,7.29-15a88.405,88.405,0,0,0-.87,9.42c0,.27.06.33.24.42a11.662,11.662,0,0,0,1.23.54c.24.09.33.09.48-.15A7.452,7.452,0,0,1,9.69-6.54c2.79-2.88,6.06-4.68,8.91-4.68,3.18,0,4.53,1.65,4.53,3.78,0,2.19-1.26,3.87-3.6,4.95A24.15,24.15,0,0,1,11.37-.63,4.788,4.788,0,0,1,12.72.84c.15.33.3.33.78.27A22.247,22.247,0,0,0,20.79-.87c2.82-1.41,4.5-3.36,4.5-6.39,0-3.39-2.37-5.73-6.45-5.73-3.6,0-7.32,1.83-10.47,5.4a54.448,54.448,0,0,1,.87-6.87,3.878,3.878,0,0,1,.45-1.41c.21-.27.18-.54-.18-.75A9.663,9.663,0,0,0,7.53-17.49Zm30.84-5.76a16.519,16.519,0,0,1,.24,4.53c-.15,4.23-.42,9.12-.42,13.38,0,4.41,1.83,6.03,5.22,6.03A16.7,16.7,0,0,0,54.84-4.35c.27-.24.36-.39.36-.57a1.526,1.526,0,0,0-.12-.42,7.1,7.1,0,0,1-.51-1.74c-3.09,3.42-6.99,5.73-10.8,5.73-2.61,0-3.54-1.02-3.54-4.38,0-4.14.18-8.25.45-12.78a17.1,17.1,0,0,1,.36-3.09,2.289,2.289,0,0,0,.24-.78c0-.21-.15-.36-.48-.45A11.919,11.919,0,0,0,38.37-23.25Zm38.34,4.32a7.5,7.5,0,0,1,7.74,7.59c0,5.01-3.42,8.22-9.36,9.39A3.488,3.488,0,0,1,76.26-.84a.594.594,0,0,0,.78.33c6.51-1.65,9.54-5.58,9.54-10.47,0-5.73-3.99-9.66-10.71-9.66a12.791,12.791,0,0,0-9,3.33,10.9,10.9,0,0,0-3.48,7.77c0,4.35,2.13,6.81,4.38,6.81,1.77,0,3.12-.9,4.41-3.09,1.89-3.06,3.42-8.04,3.96-13.11Zm-2.67.12A31.855,31.855,0,0,1,70.53-7.08c-.87,1.53-1.77,2.19-2.79,2.19-1.08,0-2.43-1.41-2.43-4.68a9.3,9.3,0,0,1,2.88-6.48A10.108,10.108,0,0,1,74.04-18.81ZM105-15.69c0-.21-.03-.24-.24-.24-.18,0-.96.06-3.57.06H99.87v-5.31c.99-.33,1.89-.66,2.67-.99a4.666,4.666,0,0,1,1.29-.39c.33-.03.48-.09.48-.27s-.06-.3-.27-.51a10.171,10.171,0,0,0-1.29-1.05,4.769,4.769,0,0,1-1.35.87,39.249,39.249,0,0,1-9.24,2.64,3.524,3.524,0,0,1,.72.9c.27.51.27.51.87.42,1.5-.3,2.97-.66,4.35-1.05v4.74H95.49c-2.58,0-3.39-.06-3.57-.06-.21,0-.21.03-.21.24v1.17c0,.21,0,.24.21.24.18,0,.99-.06,3.57-.06h2.1A34.118,34.118,0,0,1,91.14-4.5a3.66,3.66,0,0,1,.81,1.23c.09.24.18.33.27.33s.21-.09.36-.3a35.876,35.876,0,0,0,5.67-9.81c-.03,7.77-.27,14.52-.27,14.97,0,.21.03.24.24.24h1.5c.21,0,.24-.03.24-.24,0-.45-.21-7.05-.24-15a28.842,28.842,0,0,0,3.84,6.42c.15.18.24.27.33.27s.15-.09.27-.33a5.025,5.025,0,0,1,.81-1.17,28.8,28.8,0,0,1-4.71-6.45h.93c2.61,0,3.39.06,3.57.06.21,0,.24-.03.24-.24Zm9.45,14.01c0,1.23-.39,1.44-1.53,1.44a18.814,18.814,0,0,1-2.97-.18,3.892,3.892,0,0,1,.63,1.38c.18.63.18.63.75.63,2.82,0,3.42-.12,4.11-.6.66-.45.87-1.08.87-2.34,0-1.17-.03-2.88-.03-4.53V-20.61a8.475,8.475,0,0,1,.15-2.61,1.4,1.4,0,0,0,.18-.57c0-.12-.15-.24-.36-.27a19.244,19.244,0,0,0-2.01-.18,19.33,19.33,0,0,1,.21,3.66ZM107.31-9.9c0,2.61-.06,3.69-.06,3.87,0,.21.03.24.24.24h1.41c.21,0,.24-.03.24-.24,0-.18-.06-1.26-.06-3.87v-8.16a13.482,13.482,0,0,1,.12-3.09,1.745,1.745,0,0,0,.15-.48c0-.15-.09-.24-.3-.27a18.787,18.787,0,0,0-1.95-.18,20.549,20.549,0,0,1,.21,4.08Zm34.56,1.83c2.88,0,3.84.06,4.02.06.21,0,.24-.03.24-.24,0-.15-.06-.87-.06-2.79v-4.17c0-1.92.06-2.61.06-2.79,0-.21-.03-.24-.24-.24-.18,0-1.14.06-4.02.06h-2.88v-3.09h4.56c3.03,0,4.05.06,4.2.06.21,0,.24-.03.24-.24v-1.23c0-.21-.03-.24-.24-.24-.15,0-1.17.06-4.2.06h-9.66c-3,0-3.99-.06-4.17-.06-.21,0-.24.03-.24.24v1.23c0,.21.03.24.24.24.18,0,1.17-.06,4.17-.06h3.39v3.09h-2.76c-2.88,0-3.87-.06-4.02-.06-.21,0-.24.03-.24.24,0,.18.06.87.06,2.79v4.17c0,1.92-.06,2.61-.06,2.79,0,.21.03.24.24.24.15,0,1.14-.06,4.02-.06h2.34c-.09.36-.15.69-.24.99a9.745,9.745,0,0,1-1.17,2.73,14.436,14.436,0,0,1-2.67-2.73c-.18-.21-.21-.18-.45-.03l-.75.45c-.24.15-.27.18-.15.36a19.128,19.128,0,0,0,3.06,3.15c-1.44,1.44-3.6,2.55-6.96,3.42a3.271,3.271,0,0,1,.72,1.02c.27.54.27.54.87.36A14.483,14.483,0,0,0,135.9-2.1c3.12,2.07,6.84,3.06,11.64,3.57.54.03.54.03.72-.57a4.155,4.155,0,0,1,.66-1.2c-5.07-.3-8.94-1.11-12.06-3.06a12.431,12.431,0,0,0,1.41-3.36c.09-.42.21-.87.27-1.35Zm2.52-1.41h-5.64c.09-.9.15-1.92.18-3.03h5.46Zm-7.14-3.03c-.03,1.14-.09,2.16-.18,3.03h-5.1v-3.03Zm7.14-1.38h-5.43c.03-.78.03-1.59.03-2.46v-.39h5.4Zm-7.11,0h-5.31v-2.85h5.31ZM124.62-2.73c0,3.18-.06,4.53-.06,4.71s.03.21.24.21h1.41c.21,0,.24-.03.24-.21,0-.15-.06-1.53-.06-4.71v-15a48.76,48.76,0,0,0,1.98-4.8,3.128,3.128,0,0,1,.57-1.11.711.711,0,0,0,.27-.45c0-.15-.15-.24-.36-.33a8.233,8.233,0,0,0-1.77-.54,11.751,11.751,0,0,1-.42,2.04,30.99,30.99,0,0,1-5.88,10.62,3.725,3.725,0,0,1,.75,1.14c.09.21.18.3.27.3s.21-.09.36-.3a36.194,36.194,0,0,0,2.52-3.48c-.06,1.47-.06,3.18-.06,4.35Z" transform="translate(750 1567.922)" fill="url(#linear-gradient)"/>
    <path id="パス_18392" data-name="パス 18392" d="M-7.53-17.85l6.48,6.45L-7.53-4.92l1.08,1.05L0-10.32,6.45-3.9,7.53-4.95,1.05-11.4l6.48-6.45L6.45-18.9,0-12.48-6.45-18.9Z" transform="translate(750 1533.652)" fill="url(#linear-gradient)"/>
    <path id="パス_18389" data-name="パス 18389" d="M-125.58-13.14c2.94,0,3.9.06,4.05.06.21,0,.24-.03.24-.24v-1.2c0-.21-.03-.24-.24-.24-.15,0-1.08.06-3.66.06l.27-5.28c.06-1.11.15-2.22.3-3.36,0-.21-.06-.27-.27-.27-.18,0-1.02.06-3.51.06h-4.53c-2.46,0-3.27-.06-3.42-.06-.18,0-.21.03-.21.24v1.2c0,.21.03.27.21.24a32.009,32.009,0,0,1,3.42-.09h6.45l-.18,2.76h-5.61c-2.37,0-3.12-.06-3.27-.06-.21,0-.24.03-.24.24v1.17c0,.21.03.24.24.24.15,0,.9-.06,3.27-.06h5.52l-.18,3.03h-6.54c-2.94,0-3.9-.06-4.08-.06-.21,0-.24.03-.24.24v1.2c0,.21.03.24.24.24.18,0,1.14-.06,4.08-.06h2.61V-.93c0,.93-.21,1.17-1.44,1.17a16.9,16.9,0,0,1-2.13-.12,3.8,3.8,0,0,1,.54,1.17c.18.63.21.66.81.66,1.89,0,2.73-.18,3.15-.48.57-.42.81-.9.81-2.07,0-2.13-.06-5.94-.21-9.81a20.358,20.358,0,0,0,6.45,9.96c.24.21.36.33.48.33s.21-.12.36-.39a3.53,3.53,0,0,1,.87-1.08,20.146,20.146,0,0,1-7.95-11.55Zm-14.76-1.53c-.36.15-.39.21-.3.42a17.381,17.381,0,0,1,1.02,2.13c-1.68.15-3.21.24-4.74.3,1.68-2.19,3.36-4.68,5.04-7.35a4.791,4.791,0,0,1,1.02-1.38c.18-.12.27-.21.27-.39,0-.12-.09-.21-.3-.33a10.629,10.629,0,0,0-1.56-.75,9.284,9.284,0,0,1-.87,1.98c-.75,1.29-1.5,2.58-2.31,3.81-.69-.78-1.32-1.53-2.01-2.25a52.755,52.755,0,0,0,2.85-4.47c.21-.36.3-.51.51-.63a.39.39,0,0,0,.24-.36c0-.12-.09-.24-.3-.36a9.756,9.756,0,0,0-1.59-.72,5.373,5.373,0,0,1-.54,1.56c-.57,1.14-1.44,2.61-2.25,3.87l-1.2-1.17c-.15-.15-.21-.12-.45.15l-.48.6c-.24.3-.27.36-.09.54A43.408,43.408,0,0,1-144-14.79c-.69,1.05-1.44,2.04-2.22,3.06h-.3a13.83,13.83,0,0,1-1.95-.06c.09.69.15,1.2.24,1.65.06.24.15.39.3.39a.735.735,0,0,0,.36-.12,2.846,2.846,0,0,1,1.14-.27c.99-.06,2.04-.15,3.12-.24v7.89c0,3.27-.06,4.2-.06,4.38,0,.21.03.21.24.21h1.35c.21,0,.24,0,.24-.21,0-.15-.06-1.11-.06-4.38v-8.04l2.46-.27.51,1.62c.09.27.15.27.54.15l.63-.21c.36-.12.39-.21.33-.42a27.366,27.366,0,0,0-2.16-5.13c-.12-.21-.18-.21-.48-.09Zm-4.59,7.17c0-.12-.12-.21-.39-.3-.3-.09-.9-.21-1.53-.33a9.929,9.929,0,0,1-.09,1.83,19.407,19.407,0,0,1-1.44,5.58,3.262,3.262,0,0,1,.99.45,1.082,1.082,0,0,0,.45.24c.12,0,.18-.15.3-.45a28.493,28.493,0,0,0,1.29-5.49,4.068,4.068,0,0,1,.3-1.14A.66.66,0,0,0-144.93-7.5Zm13.14,2.49a3.718,3.718,0,0,1-.12-1.05,30.446,30.446,0,0,1-4.62,2.61,13.055,13.055,0,0,1-2.19.78,14.349,14.349,0,0,0,.72,1.5c.12.21.21.27.33.27.15,0,.27-.15.39-.27a3.961,3.961,0,0,1,.93-.57,40.338,40.338,0,0,0,4.2-2.4C-131.67-4.47-131.67-4.5-131.79-5.01Zm9.54-5.82c0-.12-.09-.24-.33-.39a7.919,7.919,0,0,0-1.26-.69,2.963,2.963,0,0,1-.36.84,12.7,12.7,0,0,1-2.49,2.88,2.381,2.381,0,0,1,.75.51c.18.18.3.27.42.27.09,0,.21-.09.42-.3a19.985,19.985,0,0,0,2.01-2.28,2.429,2.429,0,0,1,.51-.48C-122.43-10.56-122.25-10.68-122.25-10.83Zm-14.07-.33c-.33.21-.33.27-.18.42a14.266,14.266,0,0,1,2.37,3.3c.06.12.12.18.21.18a.93.93,0,0,0,.33-.15l.69-.45c.27-.18.3-.24.18-.42a15.287,15.287,0,0,0-2.52-3.27c-.15-.15-.21-.18-.48,0Zm-3.57,2.91c-.36.12-.39.15-.3.36a21.623,21.623,0,0,1,1.05,4.17c.06.27.15.3.51.18l.63-.21c.36-.15.39-.18.36-.39a23.186,23.186,0,0,0-1.2-4.14c-.09-.21-.12-.24-.45-.15Zm31.17-15.51a6.807,6.807,0,0,1,.09,2.01c-.06.78-.15,1.56-.27,2.61a46.847,46.847,0,0,1-5.82-.03c.03.54.06,1.02.12,1.38.03.3.12.36.39.39a7.766,7.766,0,0,0,1.41.09c.81,0,1.98-.03,3.69-.12-.09,1.5-.18,3.09-.24,4.8-4.62,2.22-7.11,5.88-7.11,8.94,0,1.65.72,3.06,2.7,3.06,1.41,0,3.3-.78,5.64-2.55a11.367,11.367,0,0,0,.51,1.44c.09.21.21.21.39.15a5.123,5.123,0,0,0,1.11-.6c.21-.15.24-.24.15-.45a16.1,16.1,0,0,1-.63-1.68,32.729,32.729,0,0,0,5.82-8.22c2.64.33,5.16,2.01,5.16,5.22a5.51,5.51,0,0,1-2.58,4.77,17.25,17.25,0,0,1-5.85,2.22A2.953,2.953,0,0,1-102.99.78a.531.531,0,0,0,.72.33c4.5-1.05,8.7-3.45,8.7-8.16,0-3.45-2.4-6.27-6.69-6.9.15-.3.3-.51.45-.81.12-.21.33-.39.33-.6,0-.15-.12-.3-.36-.48a7.32,7.32,0,0,0-1.68-.81,6.743,6.743,0,0,1-.54,2.52,22.6,22.6,0,0,0-5.46.84c.03-1.44.15-2.7.3-4.29a62.142,62.142,0,0,0,8.79-1.32.339.339,0,0,0,.33-.36,4.748,4.748,0,0,0-.15-1.14c-.06-.18-.15-.27-.36-.21a60.908,60.908,0,0,1-8.34,1.29c.09-.69.18-1.26.3-1.92a2.785,2.785,0,0,1,.39-1.2.648.648,0,0,0,.18-.42c0-.15-.12-.27-.3-.36A7.916,7.916,0,0,0-108.72-23.76Zm1.62,17.61a31.367,31.367,0,0,1-.54-5.55,16.049,16.049,0,0,1,5.07-.93A29.966,29.966,0,0,1-107.1-6.15Zm-2.22-4.74a37.47,37.47,0,0,0,.66,6c-1.98,1.59-3.57,2.34-4.62,2.34a1.238,1.238,0,0,1-1.32-1.41C-114.6-6.09-112.89-8.91-109.32-10.89ZM-78.09-21.6a21.072,21.072,0,0,1,6.3,3.36c.24.18.33.18.51-.06a12.313,12.313,0,0,0,.78-1.29.347.347,0,0,0-.12-.48,21.726,21.726,0,0,0-6.12-3.12.332.332,0,0,0-.42.12A15.7,15.7,0,0,0-78.09-21.6ZM-79.5-2.73a4.3,4.3,0,0,1,.51,1.95c0,.18.06.3.33.39a10.642,10.642,0,0,0,3.81.6c2.82,0,4.65-1.68,4.65-3.99,0-1.86-.93-3.3-3.3-5.19-2.01-1.62-2.58-2.4-2.58-3.21a3.6,3.6,0,0,1,1.26-2.46c.12-.12.15-.24.03-.36a5.542,5.542,0,0,0-1.32-1.02,5.593,5.593,0,0,0-1.86,3.93c0,1.17.57,2.28,2.7,4.11,2.19,1.89,2.91,2.67,2.91,3.96,0,1.56-1.02,2.25-2.76,2.25A10.176,10.176,0,0,1-79.5-2.73Zm-1.74-3.66a10.9,10.9,0,0,1-1.83,2.16,2.092,2.092,0,0,1-1.29.48c-.54,0-1.41-.63-2.16-2.91-.06-.18-.18-.21-.33-.12a7.728,7.728,0,0,0-1.08.93c-.09.09-.12.15-.06.36.9,3.03,2.4,3.87,3.66,3.87a3.778,3.778,0,0,0,2.13-.84,8.891,8.891,0,0,0,1.59-1.71.554.554,0,0,0,.15-.42.556.556,0,0,0-.12-.3A5.515,5.515,0,0,1-81.24-6.39Zm13.02-3.6a14.108,14.108,0,0,1,4.47,5.97c.09.18.24.27.42.18a8.338,8.338,0,0,0,1.29-.93.406.406,0,0,0,.12-.54,14.871,14.871,0,0,0-4.68-5.7c-.12-.09-.21-.06-.39.03C-67.35-10.71-67.83-10.32-68.22-9.99Zm17.01-13.83A14.288,14.288,0,0,1-51-20.85c-.03,1.35-.06,2.67-.09,4.05-1.83.6-3.12.96-4.2,1.26a10.717,10.717,0,0,1-2.1.3,7.791,7.791,0,0,0,.87,1.74.565.565,0,0,0,.45.3c.18,0,.45-.27.78-.39,1.23-.51,2.61-.96,4.11-1.41-.03.75-.03,1.56-.09,2.61-1.77,2.73-3.54,5.19-5.97,8.34-.15.21-.24.39-.06.54a5.9,5.9,0,0,0,1.11,1.02c.24.15.33.12.51-.15,1.56-2.34,2.97-4.47,4.41-6.51-.09,2.55-.06,5.67-.06,10.08,0,.24.09.33.24.33.48,0,1.14-.03,1.44-.06.24-.03.3-.12.3-.3-.03-4.2-.12-8.19-.12-11.31,1.92-2.16,3.18-3.48,4.53-4.74,1.65-1.5,2.91-2.22,3.99-2.22.96,0,1.38.93,1.38,2.58,0,1.47-.09,3-.24,5.16-.15,2.07-.24,3.78-.24,5.13,0,2.79,1.17,3.93,3.3,3.93,2.07,0,3.78-1.2,5.16-3.42a.723.723,0,0,0,0-.96,3.649,3.649,0,0,1-.69-1.53,8.7,8.7,0,0,1-1.83,2.85A3.578,3.578,0,0,1-36.6-2.49c-.99,0-1.5-.45-1.5-2.34,0-.99.15-2.64.3-4.95.18-2.28.27-4.26.27-5.58,0-2.4-1.14-3.75-3.21-3.75-1.74,0-3.48,1.2-5.31,2.97a42.894,42.894,0,0,0-3.39,3.51c.03-.42.03-.75.06-1.14.45-.9.84-1.62,1.26-2.31.18-.27.15-.45-.03-.6a4.9,4.9,0,0,0-1.05-.69c.06-1.53.12-2.64.24-4.02a2.624,2.624,0,0,1,.24-1.17,1.048,1.048,0,0,0,.15-.39c0-.21-.15-.36-.48-.48A9.023,9.023,0,0,0-51.21-23.82ZM-18.9-11.34c3-3.06,5.01-5.16,7.68-7.98a3.252,3.252,0,0,1,1.41-1.05.621.621,0,0,0,.45-.57.811.811,0,0,0-.21-.51,7.391,7.391,0,0,0-1.29-1.26.9.9,0,0,0-.54-.24.925.925,0,0,0-.42.21,3.132,3.132,0,0,1-.93.27c-2.64.51-5.1.84-7.47,1.08a11.183,11.183,0,0,1-2.64-.03,9.491,9.491,0,0,0,.72,2.07.531.531,0,0,0,.48.36,1.783,1.783,0,0,0,.57-.15,4.869,4.869,0,0,1,1.05-.27c2.67-.51,5.01-.96,7.5-1.35-2.31,2.73-4.11,4.65-5.85,6.54a81.689,81.689,0,0,1-6.78,6.69c-.21.18-.24.3-.12.45a13.838,13.838,0,0,0,1.11,1.2c.21.21.36.18.6-.06A28.836,28.836,0,0,1-20.94-8.4c2.31-1.86,5.28-3.39,8.25-3.39A4.861,4.861,0,0,1-7.5-6.87c0,2.94-1.8,4.62-4.38,5.46a5.079,5.079,0,0,0-5.1-4.29,3.272,3.272,0,0,0-3.51,3.06C-20.49-.72-18.87.9-15.27.9c6.36,0,9.9-3.24,9.9-7.71,0-3.9-2.67-6.57-6.99-6.57a11.712,11.712,0,0,0-6.45,2.13ZM-13.71-.99a10.885,10.885,0,0,1-1.95.15c-2.01,0-3.09-.84-3.09-1.83,0-.93.87-1.41,1.83-1.41C-15.21-4.08-14.1-2.7-13.71-.99ZM24.27-14.1c0-4.89.06-6.33.06-6.48,0-.21-.03-.24-.24-.24-.18,0-1.23.06-4.2.06H13.83a28.65,28.65,0,0,0,1.14-2.73,2.175,2.175,0,0,1,.45-.75.457.457,0,0,0,.18-.33c0-.12-.12-.27-.36-.33-.51-.12-1.23-.27-1.92-.36a6.759,6.759,0,0,1-.21,1.32,26.067,26.067,0,0,1-1.2,3.18H10.14c-2.97,0-4.02-.06-4.2-.06-.21,0-.24.03-.24.24,0,.15.06,1.59.06,7.17v5.55c0,7.95-.06,9.33-.06,9.51s.03.21.24.21H7.35c.21,0,.24-.03.24-.21V-.06H22.44V1.62c0,.18.03.21.24.21h1.41c.21,0,.24-.03.24-.21,0-.15-.06-1.53-.06-9.51ZM22.44-1.77H7.59V-6.78H22.44Zm0-6.66H7.59v-4.5H22.44Zm0-6.15H7.59v-4.47H22.44Zm31.14-1.74c2.7,0,3.57.06,3.75.06.21,0,.24-.03.24-.24v-1.2c0-.21-.03-.24-.24-.24-.18,0-1.05.06-3.75.06H50.49a20.9,20.9,0,0,0,.18-2.82,12.5,12.5,0,0,1,.21-2.94,1.482,1.482,0,0,0,.15-.48c0-.12-.15-.24-.39-.27-.63-.09-1.17-.15-1.8-.18a29.524,29.524,0,0,1,.15,3.72,22.9,22.9,0,0,1-.24,2.97h-.72c-2.46,0-3.33-.06-3.51-.06-.21,0-.24.03-.24.24v1.2c0,.21.03.24.24.24.18,0,1.05-.06,3.51-.06h.45A13.2,13.2,0,0,1,41.43-7.2a2.744,2.744,0,0,1,1.02.84c.21.27.3.39.42.39.09,0,.21-.09.42-.21a14.409,14.409,0,0,0,6.6-8.91,17.044,17.044,0,0,0,6.69,9,1.082,1.082,0,0,0,.45.24c.12,0,.21-.15.36-.45a4.639,4.639,0,0,1,.84-1.17,15.783,15.783,0,0,1-7.29-8.85ZM38.73-21.33c.24-.54.42-1.05.63-1.59a2.317,2.317,0,0,1,.45-.84c.12-.12.21-.21.21-.36s-.09-.24-.36-.33a17.126,17.126,0,0,0-1.71-.48,7.482,7.482,0,0,1-.39,1.74,16.528,16.528,0,0,1-5.91,8.37,3.328,3.328,0,0,1,.99.75c.21.24.3.36.42.36s.27-.12.48-.3a18.14,18.14,0,0,0,4.47-5.79h4.56a22.137,22.137,0,0,1-1.41,3.81,19.051,19.051,0,0,0-2.37-1.8c-.21-.12-.27-.12-.45.09l-.54.63c-.21.24-.21.3-.03.42a13.727,13.727,0,0,1,2.64,2.1,18.572,18.572,0,0,1-1.65,2.37,16.5,16.5,0,0,0-2.82-2.28c-.18-.12-.24-.15-.45.06l-.6.63c-.18.21-.21.27-.03.39a17.032,17.032,0,0,1,2.85,2.4,20.218,20.218,0,0,1-5.85,4.11,3.026,3.026,0,0,1,.96.9c.18.3.27.42.39.42s.24-.09.48-.21A21.307,21.307,0,0,0,43.95-18.54a4.568,4.568,0,0,1,.54-1.29.54.54,0,0,0,.21-.45c0-.18-.12-.33-.57-.78-.39-.39-.51-.45-.69-.45a1.691,1.691,0,0,0-.36.12,1.816,1.816,0,0,1-.45.06ZM52.77-4.86c-.27.12-.36.24-.21.42a30.187,30.187,0,0,1,3.51,5.88c.12.24.24.18.54,0l.84-.48c.3-.18.36-.27.27-.48A34.016,34.016,0,0,0,54-5.22c-.12-.15-.18-.12-.45,0Zm-16.14.18c-.36-.18-.45-.21-.54,0A14.689,14.689,0,0,1,32.4.54c-.15.15-.12.24.18.45l.84.63c.33.27.36.27.54.09A18.086,18.086,0,0,0,37.59-3.9c.09-.21.09-.3-.18-.42Zm10.29.18c-.33.09-.39.15-.3.36a26.947,26.947,0,0,1,1.56,5.46c.06.24.12.3.48.18l.99-.3c.3-.09.36-.18.3-.39a31.967,31.967,0,0,0-1.74-5.43c-.09-.18-.15-.18-.48-.09Zm-5.79,0c-.36.06-.45.12-.39.33a31.9,31.9,0,0,1,.75,5.52c0,.24.09.27.42.21l1.02-.15c.36-.06.45-.09.42-.33a43.57,43.57,0,0,0-.93-5.55c-.06-.18-.15-.18-.45-.15ZM52.59-22.89c-.3.18-.33.24-.18.42a18.905,18.905,0,0,1,2.34,3.21c.12.21.21.21.45.03l.78-.54c.21-.15.24-.21.12-.42a23.08,23.08,0,0,0-2.4-3.09c-.12-.15-.21-.15-.42-.03Zm24.12,3.96a7.5,7.5,0,0,1,7.74,7.59c0,5.01-3.42,8.22-9.36,9.39A3.488,3.488,0,0,1,76.26-.84a.594.594,0,0,0,.78.33c6.51-1.65,9.54-5.58,9.54-10.47,0-5.73-3.99-9.66-10.71-9.66a12.791,12.791,0,0,0-9,3.33,10.9,10.9,0,0,0-3.48,7.77c0,4.35,2.13,6.81,4.38,6.81,1.77,0,3.12-.9,4.41-3.09,1.89-3.06,3.42-8.04,3.96-13.11Zm-2.67.12A31.855,31.855,0,0,1,70.53-7.08c-.87,1.53-1.77,2.19-2.79,2.19-1.08,0-2.43-1.41-2.43-4.68a9.3,9.3,0,0,1,2.88-6.48A10.108,10.108,0,0,1,74.04-18.81Zm42.39.6c0-2.34.06-3.21.06-3.36,0-.21-.03-.24-.27-.24-.15,0-.87.06-3.12.06h-1.86c.24-.48.54-1.2.78-1.71a1.912,1.912,0,0,1,.36-.6c.06-.06.21-.21.21-.33,0-.15-.09-.27-.3-.33-.45-.12-1.2-.27-1.77-.36a5.806,5.806,0,0,1-.3,1.41,16.909,16.909,0,0,1-.75,1.92c-2.22,0-2.91-.06-3.09-.06-.21,0-.24.03-.24.24,0,.15.06,1.02.06,3.36v6.78c0,2.34-.06,3.21-.06,3.36,0,.21.03.24.24.24.18,0,.87-.06,3.15-.06h3.57c2.25,0,2.97.06,3.12.06.24,0,.27-.03.27-.24,0-.15-.06-1.02-.06-3.36ZM114.75-9.3h-6.9v-2.94h6.9Zm0-4.32h-6.9v-2.7h6.9Zm0-4.08h-6.9v-2.64h6.9Zm-9.87-.81c0-.21-.03-.24-.24-.24-.15,0-.99.06-3.6.06h-1.5V-21.9c1.02-.27,1.98-.57,2.94-.9a4.167,4.167,0,0,1,1.05-.27.391.391,0,0,0,.39-.33c0-.15-.06-.21-.18-.33a6.894,6.894,0,0,0-1.05-.93,5.917,5.917,0,0,1-1.38.66,33.084,33.084,0,0,1-8.82,1.8,2.42,2.42,0,0,1,.63.93c.18.45.24.45.69.39,1.44-.18,2.79-.39,4.08-.66v2.85H95.91c-2.58,0-3.45-.06-3.6-.06-.21,0-.24.03-.24.24v1.08c0,.21.03.24.24.24.15,0,1.02-.06,3.6-.06h1.98v2.82h-.81c-2.16,0-2.88-.06-3.03-.06-.21,0-.24.03-.24.24,0,.18.06.63.06,2.1v1.98c0,1.47-.06,1.95-.06,2.1,0,.21.03.24.24.24.15,0,.87-.06,3.03-.06h3.3c2.13,0,2.85.06,3,.06.21,0,.24-.03.24-.24,0-.15-.06-.63-.06-2.1v-1.98c0-1.47.06-1.95.06-2.1,0-.21-.03-.24-.24-.24-.15,0-.87.06-3,.06h-.84v-2.82h1.5c2.61,0,3.45.06,3.6.06.21,0,.24-.03.24-.24Zm-2.97,9.24H95.49v-3.78h6.42Zm-.81,5.25a3.483,3.483,0,0,1,.15-1.32.9.9,0,0,0,.12-.42c0-.12-.09-.21-.36-.27a13.553,13.553,0,0,0-1.8-.21,11.808,11.808,0,0,1,.15,2.31V-.75c0,1.38.57,1.86,1.29,2.1a18.138,18.138,0,0,0,4.5.36c2.31,0,4.32-.03,5.55-.63.75-.36,1.38-1.08,1.62-2.85.09-.54.06-.57-.45-.75a3.807,3.807,0,0,1-1.2-.63c-.06,1.47-.33,2.46-1.05,2.79-.9.51-2.76.48-4.44.48a15.846,15.846,0,0,1-3.36-.24c-.54-.15-.72-.54-.72-1.29ZM95.76-5.55c-.39-.15-.45-.06-.51.12A15.45,15.45,0,0,1,92.28-.18c-.15.15-.12.21.24.48l.75.51c.3.21.36.21.51.03a17.659,17.659,0,0,0,3.09-5.61c.09-.21.06-.27-.27-.42Zm17.61.27c-.33.21-.36.24-.21.42a24.32,24.32,0,0,1,3.3,4.92c.12.21.18.24.57,0l.84-.51c.33-.21.36-.24.24-.45a25.908,25.908,0,0,0-3.54-4.83c-.15-.18-.21-.21-.48-.03Zm-9.54-1.26c-.3.24-.3.27-.12.45a23.027,23.027,0,0,1,2.94,3.15c.15.18.18.18.51-.06l.69-.54c.3-.24.3-.3.15-.48a16.419,16.419,0,0,0-3.06-3.06c-.15-.12-.24-.12-.48.06Zm20.4-13.95a12.731,12.731,0,0,1,.24,2.88,65.83,65.83,0,0,0,.54,8.37c.66,4.71,2.55,8.19,5.07,8.19,2.01,0,3.63-2.28,4.47-4.71a.669.669,0,0,0-.24-.75,3.813,3.813,0,0,1-.99-1.5c-.87,2.79-2.01,4.71-3.21,4.71-1.44,0-2.73-2.58-3.18-6.12a47.9,47.9,0,0,1-.42-6.81,10.32,10.32,0,0,1,.24-2.76,2.227,2.227,0,0,0,.12-.54c0-.12-.09-.24-.27-.33A8.249,8.249,0,0,0,124.23-20.49Zm15.36,3.75a17.479,17.479,0,0,1,5.64,10.41.276.276,0,0,0,.39.24A5.939,5.939,0,0,0,147-6.78a.344.344,0,0,0,.21-.39,18.191,18.191,0,0,0-5.85-10.38c-.12-.12-.27-.09-.45,0A12.261,12.261,0,0,0,139.59-16.74Z" transform="translate(750.565 1495.652)" fill="url(#linear-gradient)"/>
  </g>
</svg>
