<svg xmlns="http://www.w3.org/2000/svg" width="141.229" height="396.421" viewBox="0 0 141.229 396.421">
  <g id="Group_13576" data-name="Group 13576" transform="translate(-862.066 -1894.995)">
    <rect id="Rectangle_3079" data-name="Rectangle 3079" width="1" height="294" transform="translate(966 1903)" fill="#998c72"/>
    <text id="POINT_03" data-name="POINT 03" transform="translate(981.295 1906.889) rotate(90)" fill="#998c72" font-size="23" font-family="DIN2014-Bold, 'DIN \32 014'" font-weight="700" letter-spacing="0.13em"><tspan x="0" y="0">POINT 03</tspan></text>
    <g id="Group_13203" data-name="Group 13203">
      <g id="Group_13182" data-name="Group 13182" transform="translate(911.371 2032.491)">
        <g id="Group_13181" data-name="Group 13181">
          <path id="Path_17892" data-name="Path 17892" d="M888.626,1954.928a57.858,57.858,0,0,1-3.718,7.4v23.892h-3.256v-19.079a33.618,33.618,0,0,1-3.575,4.035,20.534,20.534,0,0,0-1.946-3.291,38.664,38.664,0,0,0,9.344-13.982Zm11.043,12.99v13.8H908.7v3.186h-21.2v-3.186h8.813v-13.8h-9.7v-3.186h9.7v-10.3h3.363v10.3h9.592v3.186Z" transform="translate(-876.131 -1953.901)" fill="#333" opacity="0.98"/>
          <path id="Path_17893" data-name="Path 17893" d="M887.164,2016.71c-.46-1.1-1.487-3.01-2.406-4.673v16.106h-3.045V2013.17a32.994,32.994,0,0,1-3.787,8.5,16.564,16.564,0,0,0-1.557-2.831c2.089-2.9,4.106-8.142,5.061-12.637h-4.317v-3.045h4.6v-7.468h3.045v7.468h3.786v3.045h-3.786v1.946c.956,1.274,3.574,5.239,4.141,6.159Zm9.416,4.955c-2.656,1.556-5.558,3.186-7.894,4.459l-1.487-2.761c2.195-.991,5.38-2.69,8.53-4.389Zm6.76-2.656a14.779,14.779,0,0,0,6.264,4.956,12.648,12.648,0,0,0-2.052,2.656,17.636,17.636,0,0,1-7.149-7.327v5.415c0,1.593-.319,2.443-1.345,2.973-1.028.5-2.62.531-4.814.531a11.923,11.923,0,0,0-.885-2.974c1.38.071,2.831.071,3.291.036.424,0,.567-.143.567-.567V2012h-8.672v-2.761h8.672v-2.195h-6.938v-2.513h6.938v-1.982h-7.929V1999.9h4.07a25.071,25.071,0,0,0-1.593-3.256l2.583-.885a17.851,17.851,0,0,1,2.053,4l-.389.142h5.2a30.048,30.048,0,0,0,1.84-4.283l3.291.884c-.706,1.2-1.415,2.407-2.051,3.4h4.14v2.655H900.4v1.982h7.22v2.513H900.4v2.195h8.565V2012H900.4v1.487a23.91,23.91,0,0,0,1.8,3.858,31.827,31.827,0,0,0,3.928-4.353l2.513,1.769a44.357,44.357,0,0,1-4.778,4.637Zm-11.539-5.875a26.926,26.926,0,0,1,3.575,4.424l-2.407,1.665a29.137,29.137,0,0,0-3.434-4.6Z" transform="translate(-876.121 -1952.223)" fill="#333"/>
          <path id="Path_17894" data-name="Path 17894" d="M887.164,2058.8c-.46-1.131-1.487-3.078-2.406-4.741v15.928h-3.045v-14.973a33.021,33.021,0,0,1-3.787,8.5,16.567,16.567,0,0,0-1.557-2.832c2.089-2.9,4.106-8.141,5.061-12.637h-4.317V2045h4.6v-7.469h3.045V2045h3.751v3.043h-3.751v2.089c.99,1.309,3.609,5.308,4.175,6.265Zm7.787,4.5a22.663,22.663,0,0,1-5.628,5.7,12.3,12.3,0,0,0-2.052-2.017,19.447,19.447,0,0,0,5.131-5.062Zm5.38-1.946v5.591c0,1.381-.212,2.195-1.238,2.619-.956.461-2.408.461-4.5.461a10.213,10.213,0,0,0-.921-2.655c1.451.035,2.691.035,3.08,0,.424,0,.5-.107.5-.461v-5.556H888.58v-2.69h20.565v2.69Zm-5.451-19.646h-6.124v-2.69H909.11v2.69h-6.336v2.089h5.415v8.6H889.854v-8.6h5.026Zm-4.07,14.937v-2.478H907.3v2.478Zm1.769-6.654h2.585v-3.716H892.58Zm7.611-8.282h-2.726v2.089h2.726Zm-2.726,4.567v3.716h2.726v-3.716Zm7.079,15.715a35.982,35.982,0,0,1,4.85,5.274L906.951,2069a38.366,38.366,0,0,0-4.708-5.451Zm.815-15.715h-2.9v3.716h2.9Z" transform="translate(-876.121 -1950.537)" fill="#333"/>
          <path id="Path_17895" data-name="Path 17895" d="M882.2,2090.253a31.705,31.705,0,0,0-5.592-2.76l1.663-2.23a29.834,29.834,0,0,1,5.629,2.442Zm26.618,15.079H894.411v6.548h-3.363v-6.548H877.1v-2.937h13.945v-2.69h3.363v2.69h14.406Zm-31.255-7.185a72.534,72.534,0,0,0,7.009-7.185l1.769,2.228c-1.982,2.479-4.319,5.134-6.479,7.469Zm7.149-13.451a25.112,25.112,0,0,0-5.521-2.938l1.7-2.265a29.494,29.494,0,0,1,5.592,2.656Zm3.575,3.93c-.637.672-1.31,1.31-1.946,1.875a27.983,27.983,0,0,0-2.585-2.335,24.473,24.473,0,0,0,7.151-8.954l3.151.99a31.02,31.02,0,0,1-1.629,2.973h4.247a30.5,30.5,0,0,0,1.7-3.752l3.575.638c-.638,1.062-1.31,2.159-1.947,3.115h7.291v2.585H899.65v2.158h6.513v2.407H899.65v2.088h6.584v2.408H899.65v2.228h8.53v2.585H888.288Zm8.212-2.867h-5.026v2.158H896.5Zm0,4.565h-5.026v2.088H896.5Zm0,4.5h-5.026v2.228H896.5Z" transform="translate(-876.112 -1948.861)" fill="#333"/>
          <path id="Path_17896" data-name="Path 17896" d="M881.426,2125.66c2.513-.212,8.636-.813,14.9-1.38,3.681-.319,7.115-.5,9.451-.567l.035,3.47a29.948,29.948,0,0,0-6.691.531,11.072,11.072,0,0,0-7.54,10.124c0,6.229,5.805,8.282,11.469,8.528l-1.275,3.718c-6.689-.354-13.733-3.964-13.733-11.5a13.411,13.411,0,0,1,5.77-10.972c-2.974.354-11.4,1.168-15.221,1.981l-.355-3.75C879.585,2125.8,880.753,2125.731,881.426,2125.66Zm22.37,9.946-2.159.992a31.932,31.932,0,0,0-2.761-4.85l2.089-.92A41.586,41.586,0,0,1,903.8,2135.606Zm3.964-1.593-2.16,1.027a30.16,30.16,0,0,0-2.867-4.743l2.053-.956A53.169,53.169,0,0,1,907.76,2134.013Z" transform="translate(-876.046 -1947.071)" fill="#333"/>
        </g>
      </g>
      <g id="Group_13184" data-name="Group 13184" transform="translate(862.065 1902.418)">
        <g id="Group_13183" data-name="Group 13183">
          <path id="Path_17897" data-name="Path 17897" d="M855.908,1849.282a19.117,19.117,0,0,1-6.76,5.7,57.2,57.2,0,0,0,12.672,1.912,19.7,19.7,0,0,0-1.877,2.938,47.154,47.154,0,0,1-14.618-3.15,62.888,62.888,0,0,1-15.149,3.15,10.921,10.921,0,0,0-1.239-2.69,61.472,61.472,0,0,0,12.99-2.16,18.8,18.8,0,0,1-4.354-3.609,34.488,34.488,0,0,1-6.371,2.9,8.231,8.231,0,0,0-1.912-2.336c4.709-1.38,8.177-3.362,10.266-5.451h-5.912v-13.2h9.168c.141-.567.249-1.168.389-1.735H830.388v-2.69h29.839v2.69H846.811c-.248.638-.46,1.2-.672,1.735h10.866v13.2H843.52c-.5.566-.991,1.1-1.557,1.628h11.255l.6-.177ZM836.829,1837h16.885v-1.735H836.829Zm0,3.752h16.885v-1.771H836.829Zm0,3.751h16.885v-1.769H836.829Zm3.646,5.912a16.471,16.471,0,0,0,5.063,3.291,18.973,18.973,0,0,0,5.379-3.291Z" transform="translate(-828.724 -1828.858)" fill="#333"/>
          <path id="Path_17898" data-name="Path 17898" d="M835.2,1887.483a25.289,25.289,0,0,0-6.264-3.752l1.84-2.513a28,28,0,0,1,6.336,3.469Zm3.363,4.92c-1.663,3.716-3.787,7.893-5.7,11.22l-2.9-2.089a105.127,105.127,0,0,0,6.052-11.22Zm-1.558-14.158a24.789,24.789,0,0,0-6.087-3.964l1.84-2.443a25.367,25.367,0,0,1,6.231,3.681Zm8.6,16.14a31.81,31.81,0,0,1-5.45,7.893,22.343,22.343,0,0,0-2.656-1.912,23.186,23.186,0,0,0,4.991-6.937Zm2.549-18.512v-4.248h3.363v4.248h9.769v3.079H838.741v-3.079Zm3.469,15.786v8.92c0,1.628-.283,2.512-1.451,3.008-1.1.46-2.8.5-5.24.5a14.487,14.487,0,0,0-.919-3.08c1.662.071,3.291.071,3.786.035.461,0,.6-.106.6-.531v-8.849h-6.867v-10.3h17.025v10.3Zm-6.973-2.8h10.689v-4.673H844.653Zm11.928,4.459a43.344,43.344,0,0,1,5.274,7.043l-2.832,1.664a41.258,41.258,0,0,0-5.131-7.257Z" transform="translate(-828.724 -1827.138)" fill="#333"/>
          <path id="Path_17899" data-name="Path 17899" d="M839.995,1916.878c-.177,1.239-.318,2.69-.389,3.929-.142,3.787-.389,11.681-.389,16.459,0,3.611,2.3,4.813,5.2,4.813,6.017,0,9.592-3.4,12.07-7.043l2.441,3.044a17.434,17.434,0,0,1-14.582,7.682c-5.2,0-8.708-2.266-8.708-7.965,0-4.848.354-13.662.354-16.99a16.865,16.865,0,0,0-.39-3.964Z" transform="translate(-828.456 -1825.319)" fill="#333"/>
          <path id="Path_17900" data-name="Path 17900" d="M852.5,1961.968c-.85.637-1.946,1.557-2.619,2.088-2.3,1.947-7.043,5.629-9.451,7.681-1.982,1.664-1.982,2.124.107,3.823,2.867,2.407,9.309,7.61,12.671,10.9l-3.114,2.868c-.85-.956-1.8-1.912-2.655-2.761-1.876-2.018-7.4-6.69-10.548-9.309-3.327-2.762-2.974-4.5.248-7.15,2.619-2.195,7.61-6.124,9.911-8.459a16.073,16.073,0,0,0,2.265-2.549Z" transform="translate(-828.498 -1823.619)" fill="#333"/>
          <path id="Path_17901" data-name="Path 17901" d="M856.27,2005.312a28.009,28.009,0,0,1-7.539,9.345,46.551,46.551,0,0,0,13.309,4.565,13.665,13.665,0,0,0-2.089,3.045,46.261,46.261,0,0,1-14.122-5.487,47.671,47.671,0,0,1-15.4,6.477,12.624,12.624,0,0,0-1.7-3.008,45.241,45.241,0,0,0,14.194-5.451,32.728,32.728,0,0,1-5.239-4.85,38.036,38.036,0,0,1-5.769,4.637,19.362,19.362,0,0,0-2.655-2.407,31.693,31.693,0,0,0,11.751-11.433l3.256,1.1a23.44,23.44,0,0,1-1.522,2.3h10.619l.6-.142ZM836.2,2026.338a130.174,130.174,0,0,1,19.5,4.318l-1.877,3.115a114.7,114.7,0,0,0-19.608-4.566Zm5.487-6.832a57.12,57.12,0,0,1,10.442,4l-1.841,2.621a47.831,47.831,0,0,0-10.442-4.178Zm-1.771-11.822a25.953,25.953,0,0,0,5.841,5.168,25.011,25.011,0,0,0,5.556-5.734h-10.9Z" transform="translate(-828.732 -1821.944)" fill="#333"/>
          <path id="Path_17902" data-name="Path 17902" d="M833.1,2070.942v2.725h-2.867v-25.8h9.416v23.078Zm0-20.175v7.043h3.612v-7.043Zm3.612,17.273v-7.363H833.1v7.363Zm22.227-3.115a17.433,17.433,0,0,1-4.495,7.715,24.775,24.775,0,0,0,7.4,2.3,13.381,13.381,0,0,0-2.017,2.8,24.3,24.3,0,0,1-7.859-3.079,24.044,24.044,0,0,1-7.22,3.079,12.557,12.557,0,0,0-1.806-2.513,23.544,23.544,0,0,0,6.513-2.336,21.058,21.058,0,0,1-3.5-3.823,17.709,17.709,0,0,1-6.76,8.532,8.555,8.555,0,0,0-2.159-2.373c4.885-2.973,6.76-8.034,7.575-12.92h-4.567v-2.725h4.956c.071-.813.141-1.557.212-2.3h-4.141v-2.618h2.477c-.317-1.133-.955-2.833-1.485-4.178l2.513-.672a34.785,34.785,0,0,1,1.663,4.141l-2.018.708h9.309a36,36,0,0,0,2.974-5.806l3.079.956c-.955,1.628-2.052,3.4-3.079,4.85h3.858v2.618H848.388c-.072.779-.141,1.523-.249,2.3h12.991v2.725h-13.38c-.106.673-.248,1.274-.355,1.947h9.169l.566-.071Zm1.1-17.133a115.639,115.639,0,0,1-18.795,1.769,10.84,10.84,0,0,0-.744-2.513,122.623,122.623,0,0,0,17.662-1.7Zm-12.318,18.938a15.057,15.057,0,0,0,4.212,4.389,12.484,12.484,0,0,0,3.292-4.389Zm1.416-12.282c-.141-1.168-.531-3.151-.884-4.637l2.618-.461c.389,1.452.814,3.363.992,4.46Z" transform="translate(-828.672 -1820.15)" fill="#333"/>
          <path id="Path_17903" data-name="Path 17903" d="M843.46,2090.652c-.143.744-.355,1.593-.5,2.336-.176,1.027-.5,2.69-.815,4.283,1.417-.106,2.656-.177,3.434-.177,3.328,0,5.841,1.38,5.841,6.159,0,4.035-.531,9.486-1.983,12.424-1.1,2.3-2.867,2.974-5.273,2.974a18.545,18.545,0,0,1-4.07-.532l-.567-3.61a17.956,17.956,0,0,0,4.176.743,2.7,2.7,0,0,0,2.831-1.628c1.027-2.124,1.522-6.407,1.522-10.017,0-2.937-1.31-3.4-3.5-3.4-.708,0-1.841.072-3.114.177-1.275,5.026-3.681,12.92-7.08,18.37l-3.54-1.45c3.4-4.567,5.876-11.894,7.079-16.566-1.557.177-2.973.354-3.751.424-.85.107-2.408.32-3.363.5l-.354-3.753c1.132.072,2.159.036,3.327,0,1.1-.034,2.939-.177,4.885-.354a42.286,42.286,0,0,0,.779-7.326Zm11.822,3.434a63.726,63.726,0,0,1,6.158,12.459l-3.434,1.628c-.955-3.645-3.539-9.733-5.945-12.706Z" transform="translate(-828.664 -1818.345)" fill="#333"/>
          <path id="Path_17904" data-name="Path 17904" d="M835.89,2137.566a75.26,75.26,0,0,0,.248,7.752c.531,5.38,1.876,8.954,4.176,8.954,1.735,0,3.222-3.716,4-6.866l2.76,3.221c-2.158,5.911-4.247,7.928-6.83,7.928-3.434,0-6.62-3.328-7.575-12.353a89.657,89.657,0,0,1-.39-9.168,20.682,20.682,0,0,0-.212-3.256l4.176.072A34.614,34.614,0,0,0,835.89,2137.566Zm24,14.265-3.541,1.38c-.566-5.912-2.547-13.239-6.017-17.344l3.469-1.133C856.95,2138.7,859.463,2146.274,859.889,2151.831Z" transform="translate(-828.598 -1816.594)" fill="#333"/>
          <path id="Path_17905" data-name="Path 17905" d="M859.815,2186.271a54.282,54.282,0,0,1-6.9,4.6,18.123,18.123,0,0,0,8.53,7.61,12.079,12.079,0,0,0-2.3,2.867c-6.514-3.15-10.336-9.769-12.459-18.051h-.072a22.23,22.23,0,0,1-3.257,2.266c6.691,5.84,6.548,14.724,3.116,17.2a5.551,5.551,0,0,1-3.964,1.309c-.885,0-1.946-.035-3.044-.1a7.949,7.949,0,0,0-.921-3.151,30.327,30.327,0,0,0,3.291.177,3.045,3.045,0,0,0,2.337-.707c1.061-.779,1.593-2.9,1.168-5.416a51.425,51.425,0,0,1-14.088,7.5,16.022,16.022,0,0,0-1.735-2.726c5.2-1.345,11.433-4.462,14.937-7.611q-.423-.9-.955-1.8a53.45,53.45,0,0,1-11.078,5.627,11.722,11.722,0,0,0-1.664-2.547,38.225,38.225,0,0,0,11.22-5.063,10.993,10.993,0,0,0-1.31-1.239,52.771,52.771,0,0,1-8.53,3.151,16.206,16.206,0,0,0-1.734-2.549,42.391,42.391,0,0,0,11.609-4.318H835.5v-2.833h19.362v2.833h-5.2a33.668,33.668,0,0,0,1.877,5.1,46.031,46.031,0,0,0,5.7-4.318Zm-25.911-4.425h-3.256v-7.362h12.884v-2.973h3.4v2.973h13.1v7.362H856.7v-4.353H833.9Z" transform="translate(-828.701 -1815.076)" fill="#333"/>
        </g>
      </g>
      <text id="Z" transform="translate(928.546 1931.996)" fill="#333" font-size="34" font-family="SegoeUI, Segoe UI" letter-spacing="0.3em"><tspan x="-9.695" y="0">Z</tspan></text>
      <text id="E" transform="translate(928.505 1975.017)" fill="#333" font-size="34" font-family="SegoeUI, Segoe UI" letter-spacing="0.3em"><tspan x="-8.6" y="0">E</tspan></text>
      <text id="H" transform="translate(928.465 2015.939)" fill="#333" font-size="34" font-family="SegoeUI, Segoe UI" letter-spacing="0.3em"><tspan x="-12.069" y="0">H</tspan></text>
    </g>
  </g>
</svg>
