<svg xmlns="http://www.w3.org/2000/svg" width="142.566" height="391.411" viewBox="0 0 142.566 391.411">
  <g id="Group_13575" data-name="Group 13575" transform="translate(-1267.129 -1361)">
    <rect id="Rectangle_3075" data-name="Rectangle 3075" width="1" height="294" transform="translate(1372 1361)" fill="#998c72"/>
    <g id="Group_13178" data-name="Group 13178" transform="translate(1313.312 1367.737)">
      <g id="Group_13177" data-name="Group 13177">
        <path id="Path_17879" data-name="Path 17879" d="M1293.894,1318.036v2.867h-30.547v-2.867h13.415v-3.185h3.363v3.185Zm-1.2,25.626c0,1.663-.355,2.584-1.557,3.115-1.24.5-3.08.531-5.842.531a11.831,11.831,0,0,0-1.026-3.044h-9.451v1.7h-2.868v-9.344h13.38v7.646a29.254,29.254,0,0,0,3.328-.035c.566,0,.743-.141.743-.6v-8.955h-21.343v12.707h-3.222v-15.468h27.857Zm-4.531-21.06v7.4h-19.042v-7.4Zm-3.327,2.266H1272.3v2.867h12.53Zm-2.443,14.088h-7.574v3.008h7.574Z" transform="translate(-1262.497 -1314.851)" fill="#333"/>
        <path id="Path_17880" data-name="Path 17880" d="M1263.857,1373.666h12.813v15.256h-3.256v-1.593h-6.442v1.84h-3.115Zm3.115,3.151v7.362h6.442v-7.362Zm21.663-6.584h-19.787v-12.07h19.787Zm-3.364-8.92H1272v5.769h13.272Zm8.319,12.353v15.327H1290.3v-1.663h-7.008v1.84h-3.15v-15.5Zm-3.292,10.512v-7.362h-7.008v7.362Z" transform="translate(-1262.477 -1313.109)" fill="#333"/>
        <path id="Path_17881" data-name="Path 17881" d="M1268.017,1406.227a11.194,11.194,0,0,1-3.292,6.087,8.829,8.829,0,0,0-2.195-2.089,9.336,9.336,0,0,0,2.938-7.4v-3.4l2.3.638a48.545,48.545,0,0,0,7.858-1.451l2.089,2.017a53.482,53.482,0,0,1-9.344,1.557v.744a6.013,6.013,0,0,1-.035.779h10.193v2.513h-3.786v4.035h-2.9v-4.035Zm8.141,20.564a46.827,46.827,0,0,1-10.831,4.389,23.232,23.232,0,0,0-2.478-2.441,38.7,38.7,0,0,0,10.3-3.328Zm-8.849-15.822h23.149V1425.3h-23.149Zm3.186,4.106h16.671v-2.017h-16.671Zm0,4.072h16.671v-2.089h-16.671Zm0,4.1h16.671v-2.123h-16.671Zm11.715-17.024a9.165,9.165,0,0,1-3.716,4.707,7.583,7.583,0,0,0-2.017-2.23,6.543,6.543,0,0,0,3.4-6.017V1399.5l2.371.567a57.181,57.181,0,0,0,8.425-1.38l2.124,1.982a57.853,57.853,0,0,1-10.017,1.522v.638a7.685,7.685,0,0,1-.036.885h11.644v2.513H1289.5v4.1h-3.009v-4.1Zm1.7,19.255a111.775,111.775,0,0,1,10.583,4.106l-3.787,1.558a71.707,71.707,0,0,0-9.486-4Z" transform="translate(-1262.53 -1311.482)" fill="#333"/>
        <path id="Path_17882" data-name="Path 17882" d="M1281.074,1448.4a51.2,51.2,0,0,1-6.088,1.239,58.613,58.613,0,0,1-7.256,14.334l-3.328-1.7a47.869,47.869,0,0,0,7.009-12.282c-.816.071-1.629.071-2.443.071-1.345,0-2.8-.071-4.14-.177l-.249-3.328a24.9,24.9,0,0,0,4.354.424c1.133,0,2.3-.034,3.5-.141a25.717,25.717,0,0,0,.956-5.557l3.787.354c-.284,1.168-.708,2.938-1.2,4.743a35.941,35.941,0,0,0,5.026-1.168Zm4.247,3.574a38.457,38.457,0,0,0,0,4.036c.035,1.1.106,3.008.212,4.884a23.026,23.026,0,0,1,7.043,4.318l-1.8,2.938a28.1,28.1,0,0,0-5.1-3.786v.884c0,2.9-1.772,5.274-6.3,5.274-3.964,0-7.185-1.734-7.185-5.274,0-3.22,2.938-5.486,7.185-5.486a15.192,15.192,0,0,1,2.868.248c-.107-2.655-.284-5.769-.355-8.035Zm-2.974,11.044a11.434,11.434,0,0,0-3.15-.426c-2.266,0-3.787.956-3.787,2.336,0,1.487,1.168,2.443,3.54,2.443,2.549,0,3.434-1.451,3.434-3.186C1282.383,1463.864,1282.383,1463.475,1282.347,1463.016Zm9.381-9.7a40.469,40.469,0,0,0-8.036-4.778l1.77-2.691a58.635,58.635,0,0,1,8.212,4.6Z" transform="translate(-1262.455 -1309.766)" fill="#333"/>
      </g>
    </g>
    <text id="POINT_02" data-name="POINT 02" transform="translate(1387.696 1364.125) rotate(90)" fill="#998c72" font-size="23" font-family="DIN2014-Bold, 'DIN \32 014'" font-weight="700" letter-spacing="0.13em"><tspan x="0" y="0">POINT 02</tspan></text>
    <g id="Group_13180" data-name="Group 13180" transform="translate(1267.129 1365.711)">
      <g id="Group_13179" data-name="Group 13179">
        <path id="Path_17883" data-name="Path 17883" d="M1245.762,1319.063a27.843,27.843,0,0,0,3.221-.247v3.645c-.956-.034-2.194-.071-3.079-.071h-5.062c.106,5.168.212,11.61.248,16.106.035,1.982-1.133,3.079-3.469,3.079-1.911,0-3.928-.071-5.769-.212l-.318-3.54a35.8,35.8,0,0,0,4.814.389c.92,0,1.238-.46,1.238-1.415,0-2.584-.034-6.974-.106-11.221a48.23,48.23,0,0,1-14.76,12.5l-2.478-2.868c6.9-3.327,12.92-8.707,15.68-12.813H1225.3c-1.2,0-2.407.036-3.54.106v-3.645c.991.106,2.336.212,3.434.212h12.176c-.034-1.168-.07-2.195-.106-3.008a20.668,20.668,0,0,0-.318-3.151h3.964a18.634,18.634,0,0,0-.177,3.151l.035,3.008Z" transform="translate(-1218.048 -1312.904)" fill="#333"/>
        <path id="Path_17884" data-name="Path 17884" d="M1228.771,1356.942c-.071.707-.141,1.628-.141,2.548v11.681c0,.884.071,2.123.141,2.8H1224.7a26.639,26.639,0,0,0,.177-2.831V1359.49c0-.6-.071-1.841-.142-2.548Zm16.034-.283c-.071.919-.106,1.946-.106,3.22v6.159c0,7.964-1.274,10.9-3.823,13.839-2.23,2.656-5.769,4.213-8.318,5.063l-2.867-3.009a16.132,16.132,0,0,0,8.424-4.567c2.407-2.725,2.868-5.451,2.868-11.538v-5.947a26.678,26.678,0,0,0-.213-3.22Z" transform="translate(-1217.869 -1311.144)" fill="#333"/>
        <path id="Path_17885" data-name="Path 17885" d="M1230.214,1409.928l-1.982,3.079a82.845,82.845,0,0,0-7.753-4.849l1.983-3.008A87.162,87.162,0,0,1,1230.214,1409.928Zm3.5,8.142a35.386,35.386,0,0,0,13.344-12.849l2.088,3.645a41.622,41.622,0,0,1-13.556,12.46,43.407,43.407,0,0,1-11.539,4.318l-2.053-3.575A37.117,37.117,0,0,0,1233.719,1418.07Zm1.734-15.858-2.053,3.009c-1.769-1.31-5.486-3.717-7.61-4.956l1.947-3.009C1229.9,1398.495,1233.825,1401.043,1235.453,1402.212Zm10.477,1.062-2.442,1.062a34.042,34.042,0,0,0-3.151-5.486l2.373-.991A56.376,56.376,0,0,1,1245.93,1403.274Zm4.743-1.8-2.408,1.062a35.375,35.375,0,0,0-3.291-5.309l2.372-1.027A40.681,40.681,0,0,1,1250.673,1401.469Z" transform="translate(-1218.039 -1309.554)" fill="#333"/>
        <path id="Path_17886" data-name="Path 17886" d="M1246.411,1446.31c1.345,0,2.725-.071,3.363-.141v3.717c-.638-.035-2.195-.106-3.4-.106h-8.6c-.143,7.362-2.513,12.99-9.769,17.273l-3.4-2.549c6.69-3.079,9.309-8.141,9.45-14.724h-9.628c-1.415,0-2.725.071-3.611.142v-3.787c.885.071,2.2.177,3.5.177h9.734v-4.141a17.369,17.369,0,0,0-.389-3.717h4.352a31.041,31.041,0,0,0-.247,3.752v4.106Z" transform="translate(-1218.025 -1307.854)" fill="#333"/>
        <path id="Path_17887" data-name="Path 17887" d="M1220.072,1505.28a15.562,15.562,0,0,0,5.841-8.282c1.027-3.08,1.061-9.522,1.061-13.521a12.237,12.237,0,0,0-.282-2.8h4c0,.284-.177,1.558-.177,2.762,0,3.964-.141,11.007-1.062,14.477a19.683,19.683,0,0,1-6.193,9.733Zm15.857.5a10.141,10.141,0,0,0,.249-2.195v-20.246a24.794,24.794,0,0,0-.212-2.762h4.07a17.832,17.832,0,0,0-.212,2.762v18.9a24.546,24.546,0,0,0,9.486-8.035l2.052,3.008a36.527,36.527,0,0,1-11.787,9.593,7.38,7.38,0,0,0-1.345.849Z" transform="translate(-1218.055 -1306.16)" fill="#333"/>
        <path id="Path_17888" data-name="Path 17888" d="M1230.023,1521.752a56.432,56.432,0,0,1-3.468,7.043v24.282h-3.115v-19.539a41.555,41.555,0,0,1-3.468,4.106,31.152,31.152,0,0,0-1.8-3.327,38.093,38.093,0,0,0,8.777-13.557Zm21.415,27.112v3.151h-22.724v-3.151h9.841v-8.035h-7.823v-3.115h7.823v-7.008h-8.992v-3.15h11.186a52.73,52.73,0,0,0-6.691-4.6l2.161-2.336a48.808,48.808,0,0,1,7.857,5.2l-1.557,1.735h8.389v3.15h-9.026v7.008h8v3.115h-8v8.035Z" transform="translate(-1218.132 -1304.549)" fill="#333"/>
        <path id="Path_17889" data-name="Path 17889" d="M1244.773,1593.942c1.982,0,2.3-.813,2.549-5.1a8.98,8.98,0,0,0,3.291,1.345c-.531,5.452-1.557,7.009-5.628,7.009h-7.363c-4.566,0-5.84-1.1-5.84-5.026v-5.521l-12.035,1.309-.424-3.15,12.46-1.346v-4.495c-2.69.495-5.415.884-8.035,1.2a10.391,10.391,0,0,0-.991-2.833c6.937-.955,14.689-2.512,19.114-4.495l2.619,2.69a57.178,57.178,0,0,1-9.133,2.725v4.814l14.831-1.593.389,3.079-15.221,1.663v5.911c0,1.557.39,1.8,2.513,1.8Zm-21.237-17.768h-3.328v-7.858h12.99v-3.4h3.5v3.4h13.238v7.858h-3.5v-4.744h-22.9Z" transform="translate(-1218.085 -1302.768)" fill="#333"/>
        <path id="Path_17890" data-name="Path 17890" d="M1232.3,1617.567h-13.521v-2.618H1232.3Zm-1.273,22.088H1223.2v1.485h-2.83v-11.893h10.654Zm.035-17.875a8.09,8.09,0,0,0,3.716-7.4v-4.212h11.362v8.318c0,.814.071.956.566.956h1.38c.531,0,.673-.46.744-3.717a7.4,7.4,0,0,0,2.69,1.2c-.212,4.212-1.026,5.309-3.079,5.309h-2.266c-2.441,0-3.185-.814-3.185-3.717v-5.415h-5.1v1.31c0,3.185-.743,7.043-4.459,9.521a12.377,12.377,0,0,0-2.371-2.088v.46h-10.62v-2.548h10.62Zm-10.62,2.69h10.62v2.584h-10.62Zm10.512-11.61h-10.37v-2.584h10.37ZM1223.2,1631.9v5.1h4.956v-5.1Zm26.371-6.974a22.915,22.915,0,0,1-5.735,10.336,23.488,23.488,0,0,0,7.752,3.469,12.9,12.9,0,0,0-2.124,2.832,23.752,23.752,0,0,1-8.105-4.141,26.567,26.567,0,0,1-8.53,4.141,11.847,11.847,0,0,0-1.769-2.9,24.227,24.227,0,0,0,7.858-3.469,25.043,25.043,0,0,1-4.6-7.008l2.938-.921a18.8,18.8,0,0,0,4.07,5.912,17.452,17.452,0,0,0,4.07-5.947h-12.671v-3.008h14.123l.6-.106Z" transform="translate(-1218.107 -1300.947)" fill="#333"/>
        <path id="Path_17891" data-name="Path 17891" d="M1228.468,1654.366a64.433,64.433,0,0,1-2.761,6.973v24.494h-3.114v-18.76a31.738,31.738,0,0,1-2.832,3.895,25.46,25.46,0,0,0-1.628-3.469,41.157,41.157,0,0,0,7.292-13.982Zm22.9,11.573h-19.432v4.744c0,4.46-.5,10.972-3.362,15.22a13.435,13.435,0,0,0-2.408-2.053c2.513-3.823,2.762-9.238,2.762-13.2v-7.61h22.441Zm-17.486-6.618H1228.5v-2.9h5.379v-2.8h3.045v2.8h5.981v-2.8h3.115v2.8h5.2v2.9h-5.2v2.619h-3.115v-2.619h-5.981v2.619h-3.045Zm16.637,23.573c0,1.31-.213,2.052-1.1,2.512a10.773,10.773,0,0,1-4.178.461,8.948,8.948,0,0,0-.779-2.513c1.275.035,2.373.035,2.725,0,.39-.035.5-.142.5-.5V1680.2h-4.424v5.487h-2.62V1680.2h-4.175v5.629h-2.762v-17.7h16.814Zm-14.052-12.283v2.619h4.175v-2.619Zm4.175,7.4v-2.584h-4.175v2.584Zm2.62-7.4v2.619h4.424v-2.619Zm4.424,7.4v-2.584h-4.424v2.584Z" transform="translate(-1218.133 -1299.204)" fill="#333"/>
      </g>
    </g>
  </g>
</svg>
