<svg xmlns="http://www.w3.org/2000/svg" width="95.332" height="338.45" viewBox="0 0 95.332 338.45">
  <g id="Group_13574" data-name="Group 13574" transform="translate(-843.496 -826)">
    <rect id="Rectangle_3071" data-name="Rectangle 3071" width="1" height="294" transform="translate(902 826)" fill="#998c72"/>
    <g id="Group_13176" data-name="Group 13176" transform="translate(843.497 828.079)">
      <g id="Group_13175" data-name="Group 13175">
        <path id="Path_17870" data-name="Path 17870" d="M817.518,812.2a29.3,29.3,0,0,0-6.194-4.07l1.806-2.407a31.908,31.908,0,0,1,6.335,3.823Zm2.868,4.531c-1.523,3.752-3.469,8.035-5.2,11.432l-2.9-2.017a102.1,102.1,0,0,0,5.664-11.327ZM818.9,803a26.268,26.268,0,0,0-5.945-4.283l1.982-2.266a25.458,25.458,0,0,1,6.017,4.035Zm21.557,22.229c.815,0,.956-.744,1.062-5.168a10.5,10.5,0,0,0,2.867,1.31c-.283,5.309-1.027,6.76-3.61,6.76h-3.222c-2.867,0-3.574-.955-3.574-4.106V813.616H830.12c-.532,7.15-1.912,12.105-8.849,14.973a8.518,8.518,0,0,0-2.018-2.619c6.194-2.3,7.149-6.371,7.575-12.354h-5.806v-3.15h9.911v-5.735H826.3a22.417,22.417,0,0,1-2.62,5.132,28.746,28.746,0,0,0-2.9-1.769c2.124-2.725,3.575-7.114,4.354-11.5l3.327.6c-.318,1.523-.673,3.009-1.1,4.46h3.575V796.06h3.292v5.592H842.4v3.079h-8.176v5.735h9.592v3.15h-6.654v10.406c0,1.027.141,1.2.921,1.2Z" transform="translate(-810.864 -796.06)" fill="#333"/>
        <path id="Path_17871" data-name="Path 17871" d="M815.589,855.213a32.245,32.245,0,0,1-2.3,8.991,16.791,16.791,0,0,0-2.406-1.168,27.141,27.141,0,0,0,1.982-8.282Zm6.124-9.45A28.871,28.871,0,0,1,825,853.09l-2.512,1.168a19.888,19.888,0,0,0-.638-2.159l-2.335.177v14.689h-2.9V852.487c-1.911.107-3.681.248-5.239.319l-.318-2.868,2.478-.141c.6-.778,1.273-1.663,1.911-2.584a33.973,33.973,0,0,0-4.212-4.991l1.663-2.195c.318.284.638.6.956.921a42.247,42.247,0,0,0,2.867-6.442l2.9,1.062c-1.238,2.407-2.761,5.239-4.035,7.186a21.887,21.887,0,0,1,1.557,1.911,63.456,63.456,0,0,0,3.5-6.088l2.726,1.239c-1.984,3.151-4.531,6.9-6.832,9.841l4.177-.248a26.6,26.6,0,0,0-1.345-2.655Zm.319,15.61a26.173,26.173,0,0,0-1.629-6.088l2.371-.707a26.3,26.3,0,0,1,1.77,6.017Zm14.511-5.875a26.894,26.894,0,0,0,8,7.539,11.588,11.588,0,0,0-2.266,2.478,30.264,30.264,0,0,1-6.973-7.22v8.671h-3.185v-8.53a25.992,25.992,0,0,1-7.858,7.432,13.964,13.964,0,0,0-2.229-2.547,23.612,23.612,0,0,0,8.813-7.823H825V843.249h7.115V840.7h-8.176v-2.831h8.176v-3.363H835.3v3.363h7.965V840.7H835.3v2.549H842.6V855.5Zm-8.636-7.292H832.3v-2.513h-4.389Zm0,4.885H832.3v-2.584h-4.389Zm11.681-7.4h-4.5V848.2h4.5Zm0,4.814h-4.5v2.584h4.5Z" transform="translate(-810.882 -794.514)" fill="#333"/>
        <path id="Path_17872" data-name="Path 17872" d="M839.721,879.729c-1.947.531-4.07,1.027-6.195,1.416,1.24,2.761,3.009,6.407,4.531,9.2l-1.947,2.089c-1.663-.354-5.062-.85-7.433-1.133l.319-2.8c1.239.141,3.433.354,4.53.46-.921-1.911-2.372-4.92-3.434-7.257a76,76,0,0,1-14.512.036l-.105-3.5a60,60,0,0,0,13.2.283c-.318-.743-.637-1.416-.955-2.124a16.75,16.75,0,0,0-1.557-3.079l3.893-.743c.708,2.052,1.38,3.645,2.124,5.451a48.788,48.788,0,0,0,6.868-1.7Zm-19.079,9.982a14.062,14.062,0,0,0-.956,4.212c0,2.761,1.7,4.495,6.691,4.495a38.7,38.7,0,0,0,9.167-.92l-.072,3.575a44,44,0,0,1-9.1.813c-6.619,0-10.194-2.549-10.194-7.043a22.172,22.172,0,0,1,.921-5.451Z" transform="translate(-810.697 -792.982)" fill="#333"/>
        <path id="Path_17873" data-name="Path 17873" d="M843.821,934.9a8.826,8.826,0,0,1-6.371,2.762c-2.372,0-4.035-1.7-4.035-4.743,0-3.787,1.31-9.132,1.31-12.353,0-1.841-.955-2.691-2.584-2.691-2.656,0-6.654,3.257-9.592,6.477-.072,1.2-.106,2.372-.106,3.434,0,2.973,0,5.415.177,8.531.035.6.105,1.628.212,2.335h-3.787c.035-.6.106-1.7.106-2.266.035-3.185.071-5.132.141-8.954-1.594,2.371-3.611,5.309-5.025,7.291l-2.16-2.973c1.912-2.407,5.629-7.327,7.469-10.123.071-.955.142-1.982.212-2.938-1.628.212-4.459.566-6.513.85l-.353-3.54c.884.035,1.593,0,2.583-.035,1.1-.071,2.867-.283,4.495-.532.107-1.451.178-2.583.178-2.973A14.767,14.767,0,0,0,820,909.7l4.036.142c-.178.885-.425,2.69-.707,4.92h.034l1.168,1.451c-.424.6-1.062,1.593-1.593,2.442-.036.46-.071.956-.106,1.451,2.655-2.443,6.866-5.451,10.229-5.451,3.4,0,5.061,1.982,5.061,4.813,0,3.469-1.2,8.991-1.2,12.5,0,1.062.5,1.8,1.557,1.8,1.557,0,3.291-.99,4.848-2.619Z" transform="translate(-810.833 -791.489)" fill="#333"/>
        <path id="Path_17874" data-name="Path 17874" d="M830.918,953.778a59.541,59.541,0,0,1-6.9,1.133c-.317,1.523-.672,3.08-1.061,4.531a99.544,99.544,0,0,1-5.415,15.716l-3.823-1.274c2.053-3.469,4.567-10.512,5.84-15.362.284-1.026.567-2.158.815-3.257-.955.036-1.876.072-2.727.072-1.593,0-2.866-.072-4.07-.142l-.105-3.4a31.267,31.267,0,0,0,4.212.248c1.062,0,2.195-.035,3.4-.141.178-.991.355-1.877.424-2.513a16.1,16.1,0,0,0,.107-3.114l4.177.318c-.249.885-.5,2.23-.639,2.938l-.424,2.018a60.021,60.021,0,0,0,6.194-1.168Zm-1.061,11.681a12.639,12.639,0,0,0-.5,2.974c0,1.557.814,2.938,5.168,2.938a37.248,37.248,0,0,0,6.867-.673l-.141,3.5a51.637,51.637,0,0,1-6.76.46c-5.592,0-8.46-1.8-8.46-5.239a19.114,19.114,0,0,1,.567-4.247ZM828.476,957c1.84-.177,4.211-.318,6.406-.318a54.906,54.906,0,0,1,5.947.283l-.072,3.328a42.013,42.013,0,0,0-5.8-.425,55.023,55.023,0,0,0-6.476.354Z" transform="translate(-810.778 -790.018)" fill="#333"/>
        <path id="Path_17875" data-name="Path 17875" d="M838.833,994.892a21.564,21.564,0,0,0,2.9-.177v3.574c-.813-.034-2.017-.071-2.9-.071h-8.954a21.045,21.045,0,0,1-2.2,9.238,16.582,16.582,0,0,1-6.865,6.514L817.6,1011.6a14.426,14.426,0,0,0,6.441-5.168c1.487-2.336,1.947-5.1,2.089-8.213H816.073c-1.061,0-2.194.036-3.15.107v-3.611a29.663,29.663,0,0,0,3.15.177Zm-18.406-5.521c-1.168,0-2.442.035-3.434.106v-3.54c1.062.106,2.266.212,3.4.212h11.751a27.936,27.936,0,0,0,3.433-.212v3.54c-1.061-.071-2.335-.106-3.433-.106Zm17.627-.355a46.822,46.822,0,0,0-2.76-4.813l2.229-.921a49.384,49.384,0,0,1,2.831,4.743Zm3.4-7.22a42.309,42.309,0,0,1,2.867,4.742l-2.265.991a30.174,30.174,0,0,0-2.8-4.778Z" transform="translate(-810.8 -788.589)" fill="#333"/>
        <path id="Path_17876" data-name="Path 17876" d="M838.313,1029.2a31.113,31.113,0,0,0,3.468-.177v3.646c-.53-.071-1.769-.106-3.468-.106h-3.292v1.2c0,8.955-2.017,13.946-10.159,17.591l-2.9-2.8c6.477-2.407,9.522-5.38,9.522-14.583v-1.416h-9.168v5.239c0,1.38.107,2.867.143,3.362h-3.824c.035-.495.178-1.946.178-3.362v-5.239h-3.434c-1.593,0-3.008.071-3.61.141v-3.752a28.437,28.437,0,0,0,3.61.248h3.434v-4a20.053,20.053,0,0,0-.212-2.8h3.893c-.034.46-.177,1.522-.177,2.8v4h9.168v-4.035a23.5,23.5,0,0,0-.178-3.008h3.929a21.758,21.758,0,0,0-.212,3.008v4.035Zm-.178-1.593a44.067,44.067,0,0,0-1.876-4.849l1.947-.6a33.127,33.127,0,0,1,1.946,4.778Zm3.576-1.1a35.224,35.224,0,0,0-1.947-4.814l1.947-.637a40.25,40.25,0,0,1,2.017,4.779Z" transform="translate(-810.846 -787.01)" fill="#333"/>
        <path id="Path_17877" data-name="Path 17877" d="M831.193,1081.288a25.046,25.046,0,0,0,.249,4.07h-4.283a40.712,40.712,0,0,0,.176-4.07v-12.353a70.025,70.025,0,0,1-12.566,5.1l-1.982-3.362a55.207,55.207,0,0,0,15.645-6.371,37.452,37.452,0,0,0,9.1-7.752l2.938,2.655a56.2,56.2,0,0,1-9.274,7.469Z" transform="translate(-810.805 -785.583)" fill="#333"/>
        <path id="Path_17878" data-name="Path 17878" d="M828.252,1111.985a32.521,32.521,0,0,0,12.07-13.1l2.124,3.787a35.678,35.678,0,0,1-12.176,12.565,37.159,37.159,0,0,1-13.345,5.2l-2.3-3.575A36.083,36.083,0,0,0,828.252,1111.985Zm-1.451-10.831-2.761,2.8a72.576,72.576,0,0,0-8.637-7.185l2.513-2.69A72.229,72.229,0,0,1,826.8,1101.154Z" transform="translate(-810.731 -784.073)" fill="#333"/>
      </g>
    </g>
    <text id="POINT_01" data-name="POINT 01" transform="translate(916.829 830.535) rotate(90)" fill="#998c72" font-size="23" font-family="DIN2014-Bold, 'DIN \32 014'" font-weight="700" letter-spacing="0.13em"><tspan x="0" y="0">POINT 01</tspan></text>
  </g>
</svg>
