<svg xmlns="http://www.w3.org/2000/svg" width="142.426" height="439.128" viewBox="0 0 142.426 439.128">
  <g id="Group_13585" data-name="Group 13585" transform="translate(-1279.951 -2410)">
    <rect id="Rectangle_3084" data-name="Rectangle 3084" width="1" height="295" transform="translate(1382 2410)" fill="#998c72" opacity="0.7"/>
    <g id="Group_13186" data-name="Group 13186" transform="translate(1325.957 2411.642)">
      <g id="Group_13185" data-name="Group 13185">
        <path id="Path_17906" data-name="Path 17906" d="M1292.384,2331.77c-.071.779-.105,1.557-.177,2.3,1.38,8.53,5.026,12.813,15.114,13.84a11.671,11.671,0,0,0-1.911,3.114c-8.213-1.239-12.318-4.354-14.584-10.229-1.769,4.814-5.557,8.212-14.3,10.088a10.607,10.607,0,0,0-1.84-2.973c12.389-2.407,13.485-7.716,14.051-16.141Zm-8.494,2.833c-1.062,2.831-2.619,5.768-5.2,7.645l-2.725-1.84a14.323,14.323,0,0,0,5.061-6.973Zm-1.912-2.69a42.715,42.715,0,0,0-5.7-7.044,62.594,62.594,0,0,0,5.062-6.477l3.362.884a64.179,64.179,0,0,1-4.566,5.522,42.236,42.236,0,0,1,5.026,5.84Zm9.982-.461a40.659,40.659,0,0,0-5.947-6.8,60.8,60.8,0,0,0,5.311-6.265l3.362.884c-1.416,1.841-3.185,3.717-4.707,5.345a47.088,47.088,0,0,1,5.167,5.557Zm10.336.6a42.329,42.329,0,0,0-6.69-7.114,63.111,63.111,0,0,0,5.84-6.548l3.363.991c-1.522,1.875-3.468,3.823-5.133,5.486a47.018,47.018,0,0,1,5.8,5.84Zm-5.2,8.814a42.206,42.206,0,0,0,4.389-7.327l3.54.956a63.745,63.745,0,0,1-4.991,7.327Z" transform="translate(-1274.687 -2318.391)" fill="#333"/>
        <path id="Path_17907" data-name="Path 17907" d="M1306.446,2378.151v2.69h-31.113v-2.69h13.734v-2.2h-10.3v-2.512h10.3v-1.984h-8.955v-2.547h8.955v-2.23h3.327v2.23h9.31v2.547h-9.31v1.984h10.831v2.512h-10.831v2.2Zm-26.972-8h-3.256v-6.62h12.849v-3.292h3.363v3.292h13.132v6.62H1302.2V2366.4h-22.725Zm.779,12.459h21.591v10.017h-3.291v-.956H1283.4v1.062h-3.151Zm3.151,2.655v3.752h15.149v-3.752Z" transform="translate(-1274.661 -2316.708)" fill="#333"/>
        <path id="Path_17908" data-name="Path 17908" d="M1283.174,2403.907a22.212,22.212,0,0,0-.743,2.619,83.816,83.816,0,0,0-1.663,12.884,24.745,24.745,0,0,0,.212,3.611c.531-1.382,1.239-3.044,1.734-4.284l1.77,1.382c-.886,2.583-2.089,6.264-2.443,8a8.29,8.29,0,0,0-.141,1.557c0,.318.036.849.072,1.274l-3.15.212a43.856,43.856,0,0,1-1.311-11.079c0-5.1,1.133-10.972,1.486-13.662a26.293,26.293,0,0,0,.318-2.867Zm7.893,16.742a12.511,12.511,0,0,0-.424,3.008c0,1.557,1.133,2.8,5.309,2.8a39.422,39.422,0,0,0,8.53-.884l.072,3.646a45.479,45.479,0,0,1-8.672.708c-5.84,0-8.53-2.017-8.53-5.345a21.154,21.154,0,0,1,.6-4.247Zm12.425-14.3v3.54a93.013,93.013,0,0,1-14.371,0v-3.5A64.98,64.98,0,0,0,1303.492,2406.349Z" transform="translate(-1274.573 -2314.966)" fill="#333"/>
        <path id="Path_17909" data-name="Path 17909" d="M1285.514,2458.566s-.036.955-.071,1.38c-.389,8.707-.779,12.141-1.8,13.309a3.036,3.036,0,0,1-2.408,1.2,27.911,27.911,0,0,1-4.318.034,8.471,8.471,0,0,0-.99-3.219,36.851,36.851,0,0,0,3.858.177,1.486,1.486,0,0,0,1.274-.425c.6-.638.991-3.185,1.309-9.557H1277.9l-.212,1.628-2.9-.46c.46-2.868.921-7.5,1.133-11.009h6.441v-4.743h-7.008v-2.938h10.123V2454.6h-6.9c-.106,1.31-.249,2.69-.354,3.965Zm19.291,16.281a18.912,18.912,0,0,0-1.062-2.407c-6.264.567-12.778,1.062-17.379,1.451l-.39-3.22c2.407-.141,5.486-.318,8.849-.566v-5.24h-7.433v-9.733h7.433v-3.257l-7.963.531-.426-3.114,3.009-.143a44.632,44.632,0,0,0,3.539-7.149l3.5.885c-1.1,2.052-2.371,4.247-3.539,6.123,2.619-.141,5.486-.283,8.39-.46a33.076,33.076,0,0,0-2.2-2.62l2.725-1.273a33,33,0,0,1,5.487,7.292l-2.937,1.416a16.376,16.376,0,0,0-1.169-2.089l-5.274.354v3.5h7.611v9.733h-7.611v5.027l4.07-.318a34.98,34.98,0,0,0-2.051-2.867l2.654-1.2a30.751,30.751,0,0,1,5.026,8.035Zm-9.982-12.743v-4.212H1290.4v4.212Zm3.15-4.212v4.212h4.46v-4.212Z" transform="translate(-1274.683 -2313.419)" fill="#333"/>
        <path id="Path_17910" data-name="Path 17910" d="M1281.47,2489.678a74.953,74.953,0,0,0,.249,7.75c.529,5.381,1.875,8.957,4.175,8.957,1.735,0,3.222-3.717,4-6.868l2.76,3.222c-2.158,5.912-4.247,7.928-6.83,7.928-3.434,0-6.619-3.327-7.575-12.354a89.591,89.591,0,0,1-.389-9.167,20.68,20.68,0,0,0-.213-3.256l4.177.071A34.607,34.607,0,0,0,1281.47,2489.678Zm24,14.265-3.541,1.38c-.566-5.911-2.547-13.238-6.017-17.345l3.469-1.132C1302.53,2490.811,1305.043,2498.385,1305.469,2503.943Z" transform="translate(-1274.568 -2311.654)" fill="#333"/>
        <path id="Path_17911" data-name="Path 17911" d="M1305.395,2536a54.629,54.629,0,0,1-6.9,4.6,18.134,18.134,0,0,0,8.53,7.61,12.034,12.034,0,0,0-2.3,2.867c-6.514-3.151-10.336-9.77-12.459-18.052h-.072a22.165,22.165,0,0,1-3.257,2.266c6.691,5.84,6.548,14.724,3.116,17.2a5.561,5.561,0,0,1-3.965,1.309c-.885,0-1.946-.035-3.044-.106a7.949,7.949,0,0,0-.921-3.151,30.118,30.118,0,0,0,3.292.178,3.041,3.041,0,0,0,2.336-.708c1.061-.779,1.593-2.9,1.168-5.416a51.4,51.4,0,0,1-14.088,7.5,16.027,16.027,0,0,0-1.735-2.725c5.2-1.345,11.433-4.461,14.937-7.61q-.423-.9-.955-1.806a53.376,53.376,0,0,1-11.078,5.628,11.759,11.759,0,0,0-1.664-2.548,38.249,38.249,0,0,0,11.22-5.062,11,11,0,0,0-1.31-1.239,52.72,52.72,0,0,1-8.53,3.15,16.225,16.225,0,0,0-1.734-2.547,42.4,42.4,0,0,0,11.609-4.319h-6.512V2530.2h19.362v2.832h-5.2a33.711,33.711,0,0,0,1.876,5.1,46.038,46.038,0,0,0,5.7-4.319Zm-25.911-4.425h-3.256v-7.362h12.884v-2.974h3.4v2.974h13.1v7.362h-3.328v-4.354h-22.8Z" transform="translate(-1274.671 -2310.232)" fill="#333"/>
        <path id="Path_17912" data-name="Path 17912" d="M1291.516,2586.74c.106-1.167.141-3.078.177-4.778-2.937,1.628-4.779,3.185-4.779,5.168,0,2.372,2.195,2.8,5.664,2.8a55.606,55.606,0,0,0,9.486-.885l-.072,3.541a94.78,94.78,0,0,1-9.521.566c-5.1,0-9.1-1.168-9.1-5.452,0-4.211,4.14-6.866,8.105-8.919a2.8,2.8,0,0,0-2.833-1.663,8.805,8.805,0,0,0-5.663,2.441,47.5,47.5,0,0,0-3.15,3.681l-2.9-2.194a35.732,35.732,0,0,0,7.716-10.017h-.992c-1.415,0-3.822-.071-5.7-.212v-3.221a48.887,48.887,0,0,0,5.875.389h1.984a20.123,20.123,0,0,0,.813-4.141l3.574.319c-.212.919-.494,2.194-.955,3.681a77.859,77.859,0,0,0,10.123-1.028v3.221a112.784,112.784,0,0,1-11.292.921,24.5,24.5,0,0,1-2.619,4.459,10.14,10.14,0,0,1,4.39-1.027,4.523,4.523,0,0,1,4.565,2.938c2.089-1.028,3.858-1.734,5.522-2.478,1.133-.5,2.159-.991,3.257-1.488l1.345,3.186a34.515,34.515,0,0,0-3.469,1.239c-1.769.673-4,1.557-6.407,2.69.036,1.946.106,4.672.141,6.264Z" transform="translate(-1274.597 -2308.519)" fill="#333"/>
      </g>
    </g>
    <text id="POINT_04" data-name="POINT 04" transform="translate(1400.377 2410.193) rotate(90)" fill="#998c72" font-size="23" font-family="DIN2014-Bold, 'DIN \32 014'" font-weight="700" letter-spacing="0.13em"><tspan x="0" y="0">POINT 04</tspan></text>
    <g id="Group_13188" data-name="Group 13188" transform="translate(1279.95 2411.642)">
      <g id="Group_13187" data-name="Group 13187">
        <path id="Path_17913" data-name="Path 17913" d="M1250.245,2331.346a70.23,70.23,0,0,1-6.018,3.929,89.011,89.011,0,0,0,12.354-2.017l2.018,2.194a94.918,94.918,0,0,1-15.964,2.3c-.212.778-.389,1.557-.566,2.3h16.566s-.107.955-.178,1.45c-.813,4.991-1.663,7.327-2.8,8.389a4.289,4.289,0,0,1-3.009.991c-1.1.071-3.15.071-5.309-.035a7.012,7.012,0,0,0-.991-3.045c2.089.213,4.354.248,5.238.248a2.442,2.442,0,0,0,1.522-.317c.673-.531,1.274-2.018,1.806-4.956h-13.593c-.141.6-.317,1.168-.46,1.664l-3.291-.461c.531-1.593,1.1-3.786,1.662-6.017-2.229,1.1-4.459,2.053-6.724,2.938a16.888,16.888,0,0,0-2.053-2.584,73.833,73.833,0,0,0,9.593-4.106l.177-.814,1.132.141c1.274-.708,2.513-1.415,3.718-2.194h-13.1v-2.831H1243.2v-3.469h-8.565v-2.726h8.565v-3.929h3.256v3.929h8v1.734a50.881,50.881,0,0,0,3.753-4.141l2.69,1.486a53.517,53.517,0,0,1-7.044,7.115h8.459v2.831Zm-1.027-2.831c1.452-1.1,2.868-2.266,4.177-3.469h-6.938v3.469Z" transform="translate(-1230.459 -2318.391)" fill="#333"/>
        <path id="Path_17914" data-name="Path 17914" d="M1253.3,2375.639c-1.38,1.239-4.955,4.53-6.018,5.663a3.188,3.188,0,0,1,1.274.177,3.114,3.114,0,0,1,2.372,2.407c.355.955.744,2.513,1.1,3.5.355,1.2,1.133,1.735,2.69,1.735a31.316,31.316,0,0,0,6.584-.639l-.212,3.611a52.487,52.487,0,0,1-6.548.5c-2.938,0-4.707-.673-5.521-2.939-.319-.99-.779-2.831-1.063-3.786-.424-1.168-1.133-1.734-1.982-1.7a3.613,3.613,0,0,0-2.371,1.274c-1.275,1.239-4.46,4.637-6.62,7.326l-3.256-2.265a24.256,24.256,0,0,0,1.982-1.769c1.557-1.558,9.911-9.876,13.167-13.2-2.548.106-7.609.566-9.663.743a22.515,22.515,0,0,0-2.833.355l-.282-3.789c.778.072,1.911.107,3.044.107,1.84-.035,9.7-.5,12.423-.885a8.123,8.123,0,0,0,1.735-.355l2.053,2.3C1254.574,2374.542,1253.83,2375.214,1253.3,2375.639Zm1.133-10.159-.461,3.186c-3.5-.284-9.664-1.028-13.8-1.771l.566-3.15A131.969,131.969,0,0,0,1254.433,2365.48Z" transform="translate(-1230.328 -2316.567)" fill="#333"/>
        <path id="Path_17915" data-name="Path 17915" d="M1243.26,2422.386c-1.38.461-2.831.956-4.248,1.417v9.343c0,1.7-.353,2.585-1.38,3.115-1.026.461-2.547.566-4.955.531a11.785,11.785,0,0,0-.956-3.009c1.487.071,2.939.071,3.4.035.5,0,.673-.142.673-.673v-8.317c-1.487.46-2.9.921-4.177,1.309l-.849-3.327c1.415-.354,3.15-.85,5.025-1.38v-7.292h-4.5V2411.1h4.5v-6.726h3.22v6.726h3.575v3.044h-3.575v6.371q1.913-.584,3.823-1.168Zm17.875-4.495a28.466,28.466,0,0,1-4.673,12.248,20.022,20.022,0,0,0,7.363,4,11.715,11.715,0,0,0-2.089,2.833,20.5,20.5,0,0,1-7.363-4.39,21.605,21.605,0,0,1-6.265,4.283,12.389,12.389,0,0,0-1.875-2.654,17.067,17.067,0,0,0,5.982-3.93,26.32,26.32,0,0,1-3.363-5.344c-1.239,4.672-3.362,8.777-6.973,11.787a8.414,8.414,0,0,0-2.372-2.23c5.982-4.814,7.469-12.849,7.858-21.273h-4.353v-3.044h4.424c.035-1.948.071-3.858.071-5.77h3.186c0,1.912-.035,3.823-.072,5.77h12.672v3.044h-12.777c-.071,1.416-.178,2.8-.319,4.178h8.389l.566-.072Zm-11.115,2.513a23.771,23.771,0,0,0,4.177,7.469,23.272,23.272,0,0,0,3.328-7.469Z" transform="translate(-1230.447 -2314.933)" fill="#333"/>
        <path id="Path_17916" data-name="Path 17916" d="M1245.425,2449.911c-.142.742-.355,1.593-.5,2.336-.177,1.026-.5,2.69-.814,4.283,1.416-.107,2.656-.178,3.434-.178,3.328,0,5.841,1.38,5.841,6.159,0,4.035-.532,9.486-1.983,12.423-1.1,2.3-2.867,2.974-5.273,2.974a18.615,18.615,0,0,1-4.071-.531l-.566-3.611a17.989,17.989,0,0,0,4.176.743,2.7,2.7,0,0,0,2.831-1.628c1.027-2.123,1.522-6.407,1.522-10.017,0-2.938-1.31-3.4-3.5-3.4-.708,0-1.841.07-3.115.177-1.274,5.026-3.681,12.919-7.079,18.37l-3.541-1.451c3.4-4.567,5.877-11.893,7.08-16.566-1.557.178-2.973.354-3.751.424-.85.107-2.408.319-3.363.5l-.355-3.752c1.133.072,2.161.035,3.328,0,1.1-.035,2.939-.177,4.885-.354a42.378,42.378,0,0,0,.779-7.326Zm11.822,3.433a63.728,63.728,0,0,1,6.158,12.46l-3.434,1.628c-.955-3.646-3.539-9.735-5.946-12.708Z" transform="translate(-1230.381 -2313.118)" fill="#333"/>
        <path id="Path_17917" data-name="Path 17917" d="M1263.466,2516.5a8.827,8.827,0,0,1-6.371,2.761c-2.37,0-4.035-1.7-4.035-4.743,0-3.788,1.31-9.132,1.31-12.353,0-1.84-.955-2.691-2.583-2.691-2.656,0-6.655,3.257-9.593,6.479-.071,1.2-.106,2.371-.106,3.433,0,2.974,0,5.417.177,8.531.036.6.106,1.628.213,2.336h-3.787c.034-.6.1-1.7.1-2.266.036-3.185.072-5.134.142-8.955-1.593,2.372-3.611,5.309-5.025,7.291l-2.16-2.973c1.912-2.406,5.628-7.326,7.469-10.122.071-.956.141-1.983.212-2.939-1.629.212-4.459.566-6.513.85l-.354-3.54c.885.037,1.593,0,2.584-.035,1.1-.071,2.866-.283,4.495-.531.106-1.451.178-2.584.178-2.974a14.768,14.768,0,0,0-.178-2.76l4.036.142c-.178.884-.425,2.689-.708,4.919h.034l1.168,1.452c-.424.6-1.061,1.593-1.593,2.441-.035.461-.07.956-.105,1.452,2.654-2.443,6.865-5.452,10.229-5.452,3.4,0,5.062,1.983,5.062,4.813,0,3.469-1.2,8.992-1.2,12.5,0,1.063.5,1.8,1.558,1.8,1.557,0,3.291-.99,4.849-2.618Z" transform="translate(-1230.407 -2311.436)" fill="#333"/>
        <path id="Path_17918" data-name="Path 17918" d="M1250.564,2541.164a59.544,59.544,0,0,1-6.9,1.133c-.318,1.522-.673,3.079-1.062,4.53a99.51,99.51,0,0,1-5.415,15.717l-3.822-1.275c2.052-3.469,4.565-10.511,5.84-15.361.283-1.028.567-2.161.814-3.257-.955.035-1.876.071-2.725.071-1.593,0-2.867-.071-4.07-.141l-.106-3.4a31.276,31.276,0,0,0,4.212.248c1.063,0,2.195-.035,3.4-.143.178-.99.355-1.875.424-2.513a15.988,15.988,0,0,0,.106-3.115l4.177.32c-.247.884-.5,2.229-.638,2.938l-.424,2.017a59.546,59.546,0,0,0,6.195-1.168Zm-1.062,11.68a12.681,12.681,0,0,0-.5,2.973c0,1.557.813,2.938,5.167,2.938a37.349,37.349,0,0,0,6.868-.672l-.143,3.5a51.613,51.613,0,0,1-6.76.46c-5.592,0-8.46-1.8-8.46-5.239a19.16,19.16,0,0,1,.567-4.247Zm-1.38-8.459c1.841-.178,4.212-.319,6.406-.319a54.61,54.61,0,0,1,5.947.284l-.071,3.327a42.053,42.053,0,0,0-5.8-.424,55.322,55.322,0,0,0-6.477.353Z" transform="translate(-1230.352 -2309.733)" fill="#333"/>
        <path id="Path_17919" data-name="Path 17919" d="M1241.7,2587.785a41.792,41.792,0,0,1-2.76,12.39c3.4,2.973,8.035,3.61,13.556,3.645,1.734,0,9.132,0,11.256-.071a11.513,11.513,0,0,0-1.274,3.186h-10.053c-6.194,0-11.15-.779-14.866-3.93a15.459,15.459,0,0,1-4.283,4.921,14.005,14.005,0,0,0-2.513-2.266,14.489,14.489,0,0,0,4.53-5.1,22.954,22.954,0,0,1-3.328-6.868l2.584-.921a18.4,18.4,0,0,0,2.124,4.745,35.057,35.057,0,0,0,1.663-7.222h-3.4l-.6,1.24-2.973-.813c1.663-3.186,3.574-7.292,4.955-10.372h-5.239v-2.867h6.76l.5-.142,2.266.6c-1.1,2.727-2.69,6.2-4.247,9.487h2.866l.532-.106Zm8.355-2.69h-9.31v-2.583h9.31V2580.5h-6.868v-2.585h6.868v-2.265h3.219v2.265h7.54v4.6h2.655v2.583h-2.655v4.709h-7.54v2.123h7.859v2.478h-7.859v2.265h9.416v2.656h-9.416v3.327h-3.219v-3.327h-8.849v-2.656h8.849v-2.265h-7.292v-2.478h7.292V2589.8h-7.08v-2.585h7.08Zm3.219-2.583h4.319V2580.5h-4.319Zm4.319,2.583h-4.319v2.124h4.319Z" transform="translate(-1230.447 -2308.044)" fill="#333"/>
        <path id="Path_17920" data-name="Path 17920" d="M1244.5,2638.079c-1.38.461-2.762.885-4.142,1.31v12.673h-3.043v-11.717l-5.558,1.7-.85-3.151c1.771-.46,4-1.062,6.408-1.735v-7.433h-2.833a34.627,34.627,0,0,1-1.451,4.919,19.865,19.865,0,0,0-2.407-1.485c1.239-2.867,1.876-7.327,2.229-11.539l2.8.46c-.177,1.522-.354,3.044-.6,4.531h2.266V2619.6h3.043v7.008h3.292v3.114h-3.292v6.513l3.718-1.062Zm18.759-12.777s0,1.133-.035,1.557c-.778,15.892-1.451,21.485-2.832,23.219a3.335,3.335,0,0,1-2.584,1.557,20.341,20.341,0,0,1-4,.072,7.775,7.775,0,0,0-.921-3.222c1.487.143,2.8.143,3.469.143a1.361,1.361,0,0,0,1.274-.637c1.027-1.168,1.769-6.2,2.406-19.646h-.99c-1.8,9.132-5.592,18.441-11.327,23.043a14.892,14.892,0,0,0-2.725-1.947c5.7-4.071,9.415-12.531,11.185-21.1h-2.371c-1.557,5.947-4.637,12.423-8.388,15.751a11.876,11.876,0,0,0-2.55-1.875c3.646-2.832,6.548-8.425,8.177-13.875h-2.513a26.563,26.563,0,0,1-3.823,6.513,25.117,25.117,0,0,0-2.548-1.875c2.868-3.115,4.885-8.141,6.053-13.379l2.973.565c-.39,1.771-.92,3.506-1.451,5.134Z" transform="translate(-1230.452 -2306.276)" fill="#333"/>
        <path id="Path_17921" data-name="Path 17921" d="M1241.526,2685.106c-.46-1.133-1.485-3.079-2.406-4.742v15.928h-3.045V2681.32a33.021,33.021,0,0,1-3.786,8.5,16.7,16.7,0,0,0-1.558-2.833c2.089-2.9,4.107-8.141,5.062-12.636h-4.318V2671.3h4.6v-7.469h3.045v7.469h3.787v3.044h-3.787v2.089c.99,1.31,3.611,5.309,4.177,6.265Zm22.3,5.558h-2.089V2693c0,1.487-.319,2.23-1.345,2.725a15.745,15.745,0,0,1-4.885.424,12.245,12.245,0,0,0-.885-2.654c1.488.071,3.01.071,3.469.035.424,0,.567-.141.567-.566v-2.3h-11.079v5.486h-3.008v-5.486h-2.266v-2.478h2.266v-8.849h6.937V2677.6h-8.6v-2.443h4.637v-1.983h-3.116v-2.3h3.116v-1.947h-3.858v-2.371h3.858v-2.726h3.078v2.726h4.851v-2.726h3.079v2.726h4.211v2.371h-4.211v1.947h3.681v2.3h-3.681v1.983h4.919v2.443h-8.991v1.734h7.256v8.849h2.089Zm-16.247-8.955v2.018h3.929v-2.018Zm0,6.478h3.929v-2.194h-3.929Zm3.044-17.309h4.851v-1.947h-4.851Zm0,4.283h4.851v-1.983h-4.851Zm3.858,6.548v2.018h4.177v-2.018Zm4.177,6.478v-2.194h-4.177v2.194Z" transform="translate(-1230.448 -2304.497)" fill="#333"/>
        <path id="Path_17922" data-name="Path 17922" d="M1239.153,2732.984c1.557,2.442,4.459,3.575,8.353,3.717,3.929.142,11.787.035,16.211-.249a15.045,15.045,0,0,0-1.1,3.363c-4,.177-11.115.248-15.15.071-4.495-.177-7.54-1.345-9.769-4.071-1.664,1.451-3.363,2.867-5.2,4.389l-1.7-3.4a53.229,53.229,0,0,0,5.131-3.645v-8.319h-4.53V2721.8h7.752Zm-1.628-16.53a26.6,26.6,0,0,0-5.911-5.592l2.443-1.982a27.771,27.771,0,0,1,6.052,5.416Zm7.752-1.345a24.237,24.237,0,0,1-2.513,3.4,17.952,17.952,0,0,0-2.8-1.594,20.609,20.609,0,0,0,5.063-8.424l3.078.672a29.875,29.875,0,0,1-1.273,3.115h3.4v-4.213h3.256v4.213h8.106v2.832h-8.106v3.823h9.593v2.8H1240.5v-2.8h9.733v-3.823Zm-1.771,19.079v-10.053h17.238v10.053Zm3.22-2.69h10.584v-4.708h-10.584Z" transform="translate(-1230.445 -2302.718)" fill="#333"/>
      </g>
    </g>
  </g>
</svg>
