<svg xmlns="http://www.w3.org/2000/svg" width="57" height="204.648" viewBox="0 0 57 204.648">
  <g id="Group_13580" data-name="Group 13580" transform="translate(-843.496 -827.265)">
    <g id="Group_13176" data-name="Group 13176" transform="translate(843.497 827.265)">
      <g id="Group_13175" data-name="Group 13175">
        <path id="Path_17870" data-name="Path 17870" d="M815.092,805.88a17.826,17.826,0,0,0-3.768-2.476l1.1-1.464a19.416,19.416,0,0,1,3.854,2.326Zm1.745,2.757c-.927,2.283-2.111,4.888-3.166,6.955l-1.766-1.227a62.111,62.111,0,0,0,3.446-6.891Zm-.905-8.356a15.981,15.981,0,0,0-3.617-2.606l1.206-1.378a15.49,15.49,0,0,1,3.66,2.455ZM829.047,813.8c.5,0,.582-.453.646-3.144a6.389,6.389,0,0,0,1.744.8c-.172,3.23-.625,4.113-2.2,4.113h-1.96c-1.744,0-2.175-.581-2.175-2.5v-6.331h-2.347c-.323,4.35-1.163,7.365-5.384,9.11a5.182,5.182,0,0,0-1.228-1.594c3.768-1.4,4.35-3.876,4.609-7.516h-3.532v-1.916h6.03v-3.489h-2.821a13.639,13.639,0,0,1-1.594,3.123,17.475,17.475,0,0,0-1.766-1.077,16.752,16.752,0,0,0,2.649-7l2.024.366c-.194.927-.409,1.831-.668,2.714h2.175v-3.4h2v3.4h4.974v1.873h-4.974v3.489h5.836v1.916h-4.048v6.331c0,.625.086.732.56.732Z" transform="translate(-811.044 -796.06)" fill="#333"/>
        <path id="Path_17871" data-name="Path 17871" d="M813.746,847.1a19.617,19.617,0,0,1-1.4,5.47,10.213,10.213,0,0,0-1.464-.711,16.515,16.515,0,0,0,1.206-5.039Zm3.726-5.75a17.565,17.565,0,0,1,2,4.458l-1.528.711a12.105,12.105,0,0,0-.388-1.314l-1.421.108v8.937H814.37v-8.808c-1.163.065-2.24.151-3.187.194l-.194-1.745,1.508-.086c.366-.473.775-1.012,1.163-1.572A20.668,20.668,0,0,0,811.1,839.2l1.012-1.335c.194.173.388.366.582.56a25.7,25.7,0,0,0,1.744-3.919l1.766.646c-.753,1.464-1.68,3.187-2.455,4.372a13.31,13.31,0,0,1,.947,1.163,38.608,38.608,0,0,0,2.132-3.7l1.659.754c-1.207,1.917-2.757,4.2-4.157,5.987l2.541-.151a16.193,16.193,0,0,0-.818-1.615Zm.194,9.5a15.927,15.927,0,0,0-.991-3.7l1.442-.43a16,16,0,0,1,1.077,3.661Zm8.829-3.574a16.362,16.362,0,0,0,4.867,4.586,7.049,7.049,0,0,0-1.378,1.508,18.412,18.412,0,0,1-4.242-4.393v5.276H823.8v-5.19a15.814,15.814,0,0,1-4.781,4.522,8.5,8.5,0,0,0-1.356-1.55,14.365,14.365,0,0,0,5.362-4.759h-3.554v-7.451H823.8v-1.55h-4.974v-1.723H823.8v-2.046h1.938v2.046h4.846v1.723h-4.846v1.55h4.436v7.451Zm-5.254-4.436h2.67v-1.529h-2.67Zm0,2.972h2.67V844.24h-2.67Zm7.107-4.5h-2.735v1.529h2.735Zm0,2.929h-2.735v1.572h2.735Z" transform="translate(-810.882 -810.175)" fill="#333"/>
        <path id="Path_17872" data-name="Path 17872" d="M830.227,876.93c-1.185.323-2.476.625-3.769.861.754,1.68,1.831,3.9,2.757,5.6l-1.185,1.271c-1.012-.215-3.08-.517-4.522-.689l.194-1.7c.754.086,2.088.215,2.756.28-.56-1.163-1.443-2.993-2.089-4.415a46.238,46.238,0,0,1-8.829.022l-.064-2.132a36.51,36.51,0,0,0,8.032.172c-.194-.452-.387-.861-.581-1.292a10.192,10.192,0,0,0-.947-1.873l2.368-.452c.431,1.249.84,2.218,1.292,3.316a29.684,29.684,0,0,0,4.178-1.033ZM818.62,883a8.555,8.555,0,0,0-.582,2.563c0,1.68,1.034,2.735,4.071,2.735a23.547,23.547,0,0,0,5.578-.559l-.044,2.175a26.771,26.771,0,0,1-5.534.495c-4.027,0-6.2-1.551-6.2-4.285a13.488,13.488,0,0,1,.56-3.316Z" transform="translate(-812.569 -824.153)" fill="#333"/>
        <path id="Path_17873" data-name="Path 17873" d="M831.4,925.032a5.37,5.37,0,0,1-3.876,1.68c-1.443,0-2.455-1.034-2.455-2.886,0-2.3.8-5.556.8-7.515a1.43,1.43,0,0,0-1.572-1.637c-1.616,0-4.049,1.982-5.836,3.941-.044.732-.065,1.443-.065,2.089,0,1.809,0,3.295.108,5.19.022.366.064.99.129,1.421h-2.3c.022-.366.065-1.033.065-1.378.022-1.938.043-3.123.086-5.448-.97,1.442-2.2,3.23-3.057,4.436l-1.314-1.809c1.163-1.464,3.424-4.458,4.544-6.159.043-.581.087-1.206.129-1.787-.99.129-2.713.344-3.962.517l-.215-2.154c.538.021.969,0,1.571-.022.668-.043,1.744-.172,2.735-.323.065-.883.108-1.571.108-1.809a8.985,8.985,0,0,0-.108-1.68l2.456.086c-.108.539-.259,1.637-.43,2.994h.021l.711.883c-.258.366-.646.969-.969,1.486-.022.28-.043.582-.065.883,1.615-1.486,4.178-3.316,6.224-3.316a2.748,2.748,0,0,1,3.079,2.928c0,2.111-.732,5.47-.732,7.6,0,.646.3,1.1.947,1.1a4.417,4.417,0,0,0,2.95-1.594Z" transform="translate(-811.331 -837.78)" fill="#333"/>
        <path id="Path_17874" data-name="Path 17874" d="M824.084,950.84a36.223,36.223,0,0,1-4.2.689c-.193.927-.409,1.874-.646,2.757a60.561,60.561,0,0,1-3.295,9.561l-2.326-.775a44.951,44.951,0,0,0,3.553-9.346c.173-.624.345-1.313.5-1.982-.581.022-1.141.044-1.659.044-.969,0-1.744-.044-2.476-.086l-.064-2.068a19.027,19.027,0,0,0,2.563.151c.646,0,1.335-.022,2.067-.086.108-.6.216-1.142.258-1.529a9.8,9.8,0,0,0,.065-1.895l2.542.194c-.151.539-.3,1.357-.389,1.787l-.258,1.228a36.514,36.514,0,0,0,3.769-.711Zm-.645,7.107a7.686,7.686,0,0,0-.3,1.809c0,.947.495,1.787,3.144,1.787a22.664,22.664,0,0,0,4.178-.409l-.086,2.132a31.417,31.417,0,0,1-4.113.28c-3.4,0-5.147-1.1-5.147-3.187a11.626,11.626,0,0,1,.345-2.584Zm-.84-5.146c1.12-.108,2.562-.194,3.9-.194a33.411,33.411,0,0,1,3.618.172l-.044,2.025a25.559,25.559,0,0,0-3.531-.259,33.479,33.479,0,0,0-3.94.215Z" transform="translate(-811.831 -851.208)" fill="#333"/>
        <path id="Path_17875" data-name="Path 17875" d="M828.687,989.764a13.122,13.122,0,0,0,1.766-.108v2.175c-.495-.021-1.227-.043-1.766-.043h-5.448a12.8,12.8,0,0,1-1.336,5.621,10.088,10.088,0,0,1-4.177,3.963l-1.96-1.443a8.776,8.776,0,0,0,3.919-3.144,9.888,9.888,0,0,0,1.271-5h-6.116c-.646,0-1.335.022-1.916.065v-2.2a18.037,18.037,0,0,0,1.916.108Zm-11.2-3.359c-.711,0-1.486.022-2.089.065v-2.154c.646.065,1.378.129,2.068.129h7.15a16.975,16.975,0,0,0,2.088-.129v2.154c-.646-.043-1.421-.065-2.088-.065Zm10.724-.216a28.489,28.489,0,0,0-1.679-2.928l1.356-.56a30.012,30.012,0,0,1,1.723,2.886Zm2.068-4.393a25.749,25.749,0,0,1,1.744,2.885l-1.378.6a18.364,18.364,0,0,0-1.7-2.907Z" transform="translate(-811.631 -864.249)" fill="#333"/>
        <path id="Path_17876" data-name="Path 17876" d="M827.918,1026.013a18.92,18.92,0,0,0,2.11-.108v2.218c-.323-.043-1.076-.065-2.11-.065h-2v.732c0,5.448-1.227,8.485-6.181,10.7l-1.766-1.7c3.941-1.464,5.793-3.273,5.793-8.872v-.861h-5.578v3.187c0,.84.065,1.744.087,2.045h-2.326c.021-.3.108-1.184.108-2.045v-3.187h-2.089c-.969,0-1.83.043-2.2.086v-2.283a17.293,17.293,0,0,0,2.2.151h2.089v-2.433a12.212,12.212,0,0,0-.129-1.7h2.368c-.021.28-.108.926-.108,1.7v2.433h5.578v-2.455a14.286,14.286,0,0,0-.108-1.83h2.39a13.247,13.247,0,0,0-.129,1.83v2.455Zm-.108-.969a26.81,26.81,0,0,0-1.141-2.95l1.185-.366a20.16,20.16,0,0,1,1.184,2.907Zm2.176-.668a21.431,21.431,0,0,0-1.185-2.929l1.185-.387a24.5,24.5,0,0,1,1.227,2.907Z" transform="translate(-811.207 -878.664)" fill="#333"/>
        <path id="Path_17877" data-name="Path 17877" d="M823.985,1071.6a15.239,15.239,0,0,0,.151,2.476h-2.605a24.768,24.768,0,0,0,.107-2.476v-7.515a42.6,42.6,0,0,1-7.645,3.1l-1.206-2.045a33.586,33.586,0,0,0,9.518-3.876,22.785,22.785,0,0,0,5.534-4.716l1.787,1.615a34.187,34.187,0,0,1-5.642,4.544Z" transform="translate(-811.581 -891.692)" fill="#333"/>
        <path id="Path_17878" data-name="Path 17878" d="M822.916,1104.971a19.786,19.786,0,0,0,7.343-7.967l1.292,2.3a21.707,21.707,0,0,1-7.408,7.644,22.606,22.606,0,0,1-8.119,3.166l-1.4-2.175A21.953,21.953,0,0,0,822.916,1104.971Zm-.883-6.589-1.68,1.7a44.151,44.151,0,0,0-5.255-4.371l1.529-1.637A43.932,43.932,0,0,1,822.033,1098.382Z" transform="translate(-812.256 -905.47)" fill="#333"/>
      </g>
    </g>
    <text id="POINT_01" data-name="POINT 01" transform="translate(889.497 828.759) rotate(90)" fill="#998c72" font-size="12" font-family="DIN2014-Bold, 'DIN \32 014'" font-weight="700" letter-spacing="0.13em"><tspan x="0" y="0">POINT 01</tspan></text>
    <rect id="Rectangle_3071" data-name="Rectangle 3071" width="0.608" height="178.87" transform="translate(879.09 827.313)" fill="#998c72"/>
  </g>
</svg>
