<svg xmlns="http://www.w3.org/2000/svg" width="69.703" height="225.782" viewBox="0 0 69.703 225.782">
  <g id="Group_13582" data-name="Group 13582" transform="translate(-1282.875 -1355.626)">
    <rect id="Rectangle_3075" data-name="Rectangle 3075" height="174.324" transform="translate(1329.556 1361)" fill="#998c72"/>
    <text id="POINT_03" data-name="POINT 03" transform="translate(1341.578 1362.626) rotate(90)" fill="#998c72" font-size="12" font-family="DIN2014-Bold, 'DIN \32 014'" font-weight="700" letter-spacing="0.13em"><tspan x="0" y="0">POINT 03</tspan></text>
    <rect id="Rectangle_3115" data-name="Rectangle 3115" width="0.608" height="178.87" transform="translate(1331.171 1362.626)" fill="#998c72"/>
    <g id="Group_13280" data-name="Group 13280" transform="translate(1277.875 1364.632)">
      <g id="Group_13182" data-name="Group 13182" transform="translate(27.477 67.486)">
        <g id="Group_13181" data-name="Group 13181">
          <path id="Path_17892" data-name="Path 17892" d="M883.094,1954.473a32.242,32.242,0,0,1-2.072,4.123v13.314h-1.814v-10.632a18.734,18.734,0,0,1-1.992,2.249,11.447,11.447,0,0,0-1.085-1.834,21.546,21.546,0,0,0,5.207-7.792Zm6.154,7.239v7.692h5.03v1.776H882.463V1969.4h4.911v-7.692h-5.4v-1.776h5.4v-5.74h1.874v5.74h5.345v1.776Z" transform="translate(-876.131 -1953.901)" fill="#333" opacity="0.98"/>
          <path id="Path_17893" data-name="Path 17893" d="M882.385,2007.37c-.256-.612-.828-1.677-1.341-2.6v8.975h-1.7V2005.4a18.389,18.389,0,0,1-2.111,4.734,9.237,9.237,0,0,0-.868-1.578,21.038,21.038,0,0,0,2.82-7.042h-2.406v-1.7h2.564v-4.162h1.7v4.162h2.11v1.7h-2.11v1.085c.533.71,1.992,2.919,2.308,3.432Zm5.247,2.761c-1.48.867-3.1,1.776-4.4,2.485l-.828-1.538c1.223-.552,3-1.5,4.753-2.446Zm3.767-1.48a8.236,8.236,0,0,0,3.491,2.762,7.048,7.048,0,0,0-1.144,1.48,9.828,9.828,0,0,1-3.984-4.083v3.018c0,.888-.178,1.361-.75,1.657a6.891,6.891,0,0,1-2.683.3,6.647,6.647,0,0,0-.493-1.657c.769.039,1.578.039,1.834.02.237,0,.316-.079.316-.316v-7.081h-4.833v-1.538h4.833v-1.223h-3.866v-1.4h3.866v-1.1h-4.418V1998h2.268a13.988,13.988,0,0,0-.888-1.814l1.439-.493a9.948,9.948,0,0,1,1.144,2.229l-.217.079h2.9a16.746,16.746,0,0,0,1.025-2.387l1.834.493c-.394.671-.788,1.341-1.143,1.894h2.307v1.479h-4.477v1.1h4.024v1.4h-4.024v1.223h4.773v1.538h-4.773v.828a13.311,13.311,0,0,0,1.006,2.15,17.731,17.731,0,0,0,2.189-2.426l1.4.986a24.707,24.707,0,0,1-2.663,2.584Zm-6.43-3.274a15,15,0,0,1,1.992,2.465l-1.341.928a16.233,16.233,0,0,0-1.914-2.565Z" transform="translate(-876.231 -1971.434)" fill="#333"/>
          <path id="Path_17894" data-name="Path 17894" d="M882.385,2049.385c-.256-.63-.828-1.715-1.341-2.642v8.876h-1.7v-8.344a18.4,18.4,0,0,1-2.111,4.734,9.243,9.243,0,0,0-.868-1.578,21.033,21.033,0,0,0,2.82-7.042h-2.406v-1.7h2.564v-4.162h1.7v4.162h2.09v1.7h-2.09v1.164c.552.729,2.011,2.958,2.327,3.491Zm4.339,2.506a12.627,12.627,0,0,1-3.136,3.175,6.856,6.856,0,0,0-1.144-1.124,10.839,10.839,0,0,0,2.86-2.821Zm3-1.085v3.116c0,.77-.118,1.223-.69,1.459a6.463,6.463,0,0,1-2.505.257,5.7,5.7,0,0,0-.513-1.479c.809.02,1.5.02,1.716,0,.237,0,.276-.06.276-.257v-3.1h-4.833v-1.5h11.46v1.5Zm-3.038-10.948h-3.413v-1.5h11.342v1.5h-3.531v1.164H894.1v4.793H883.884v-4.793h2.8Zm-2.268,8.324V2046.8h9.191v1.381Zm.986-3.708h1.44V2042.4H885.4Zm4.242-4.615h-1.519v1.164h1.519Zm-1.519,2.545v2.071h1.519V2042.4Zm3.945,8.757a20.056,20.056,0,0,1,2.7,2.939l-1.361.967a21.386,21.386,0,0,0-2.624-3.037Zm.454-8.757h-1.617v2.071h1.617Z" transform="translate(-876.231 -1989.052)" fill="#333"/>
          <path id="Path_17895" data-name="Path 17895" d="M879.723,2085.365a17.668,17.668,0,0,0-3.116-1.538l.927-1.243a16.624,16.624,0,0,1,3.137,1.361Zm14.834,8.4h-8.028v3.649h-1.874v-3.649h-7.771v-1.637h7.771v-1.5h1.874v1.5h8.028Zm-17.417-4a40.378,40.378,0,0,0,3.906-4l.986,1.242c-1.1,1.381-2.407,2.86-3.61,4.162Zm3.984-7.5a14.006,14.006,0,0,0-3.077-1.637l.947-1.262a16.441,16.441,0,0,1,3.116,1.48Zm1.992,2.19c-.355.375-.73.73-1.085,1.045a15.557,15.557,0,0,0-1.441-1.3,13.636,13.636,0,0,0,3.985-4.99l1.756.552a17.268,17.268,0,0,1-.908,1.657h2.367a17.006,17.006,0,0,0,.947-2.091l1.992.355c-.355.592-.73,1.2-1.085,1.736h4.063v1.44h-4.26v1.2h3.629v1.341h-3.629v1.164h3.669v1.342h-3.669v1.241H894.2v1.44H883.116Zm4.576-1.6h-2.8v1.2h2.8Zm0,2.544h-2.8v1.164h2.8Zm0,2.506h-2.8v1.241h2.8Z" transform="translate(-876.331 -2006.571)" fill="#333"/>
          <path id="Path_17896" data-name="Path 17896" d="M880.016,2124.8c1.4-.118,4.813-.453,8.3-.769,2.052-.178,3.965-.276,5.267-.316l.02,1.934a16.71,16.71,0,0,0-3.729.3,6.17,6.17,0,0,0-4.2,5.642c0,3.471,3.235,4.615,6.392,4.753l-.711,2.072c-3.727-.2-7.653-2.209-7.653-6.411a7.474,7.474,0,0,1,3.216-6.114c-1.657.2-6.352.651-8.482,1.1l-.2-2.09C878.99,2124.877,879.641,2124.838,880.016,2124.8Zm12.466,5.543-1.2.553a17.807,17.807,0,0,0-1.538-2.7l1.164-.513A23.107,23.107,0,0,1,892.482,2130.341Zm2.209-.888-1.2.573a16.811,16.811,0,0,0-1.6-2.643l1.144-.533A29.647,29.647,0,0,1,894.691,2129.453Z" transform="translate(-877.018 -2025.276)" fill="#333"/>
        </g>
      </g>
      <g id="Group_13184" data-name="Group 13184" transform="translate(5)">
        <g id="Group_13183" data-name="Group 13183">
          <path id="Path_17897" data-name="Path 17897" d="M843.967,1840.24a10.656,10.656,0,0,1-3.767,3.176,31.872,31.872,0,0,0,7.062,1.065,10.986,10.986,0,0,0-1.046,1.637,26.276,26.276,0,0,1-8.146-1.755,35.039,35.039,0,0,1-8.442,1.755,6.087,6.087,0,0,0-.69-1.5,34.271,34.271,0,0,0,7.239-1.2,10.481,10.481,0,0,1-2.427-2.012,19.224,19.224,0,0,1-3.551,1.617,4.585,4.585,0,0,0-1.065-1.3,13.512,13.512,0,0,0,5.721-3.037H831.56v-7.357h5.109c.079-.316.139-.651.217-.967h-7.14v-1.5h16.628v1.5H838.9c-.138.355-.256.671-.375.967h6.055v7.357h-7.515c-.276.315-.552.611-.868.907h6.272l.335-.1Zm-10.632-6.844h9.409v-.967h-9.409Zm0,2.091h9.409v-.987h-9.409Zm0,2.09h9.409v-.986h-9.409Zm2.032,3.294a9.18,9.18,0,0,0,2.821,1.834,10.576,10.576,0,0,0,3-1.834Z" transform="translate(-828.818 -1828.858)" fill="#333"/>
          <path id="Path_17898" data-name="Path 17898" d="M832.428,1880.462a14.093,14.093,0,0,0-3.491-2.091l1.026-1.4a15.613,15.613,0,0,1,3.531,1.933Zm1.874,2.742c-.927,2.071-2.111,4.4-3.176,6.252l-1.617-1.164a58.575,58.575,0,0,0,3.373-6.252Zm-.868-7.89a13.813,13.813,0,0,0-3.392-2.209l1.025-1.361a14.136,14.136,0,0,1,3.472,2.052Zm4.793,8.994a17.729,17.729,0,0,1-3.037,4.4,12.422,12.422,0,0,0-1.48-1.065,12.922,12.922,0,0,0,2.781-3.866Zm1.42-10.316v-2.367h1.874v2.367h5.444v1.716H834.4v-1.716Zm1.933,8.8v4.971c0,.907-.158,1.4-.809,1.677a8.57,8.57,0,0,1-2.92.276,8.074,8.074,0,0,0-.512-1.716c.926.04,1.834.04,2.11.02.257,0,.335-.059.335-.3v-4.931h-3.827v-5.74h9.488v5.74Zm-3.886-1.558h5.957v-2.6h-5.957Zm6.647,2.485a24.167,24.167,0,0,1,2.939,3.925l-1.578.927a22.988,22.988,0,0,0-2.859-4.044Z" transform="translate(-828.818 -1846.834)" fill="#333"/>
          <path id="Path_17899" data-name="Path 17899" d="M838.051,1916.863c-.1.69-.177,1.5-.217,2.189-.079,2.111-.217,6.509-.217,9.172,0,2.012,1.282,2.682,2.9,2.682,3.353,0,5.345-1.893,6.726-3.925l1.36,1.7a9.715,9.715,0,0,1-8.126,4.281c-2.9,0-4.852-1.262-4.852-4.438,0-2.7.2-7.614.2-9.468a9.4,9.4,0,0,0-.217-2.209Z" transform="translate(-831.621 -1865.839)" fill="#333"/>
          <path id="Path_17900" data-name="Path 17900" d="M844.552,1960.7c-.474.355-1.085.868-1.46,1.163-1.282,1.085-3.925,3.137-5.267,4.28-1.1.927-1.1,1.184.06,2.13,1.6,1.342,5.188,4.241,7.061,6.075l-1.735,1.6c-.474-.533-1.006-1.066-1.479-1.539-1.045-1.125-4.123-3.728-5.878-5.188-1.854-1.539-1.657-2.505.138-3.985,1.46-1.223,4.241-3.413,5.523-4.714a8.944,8.944,0,0,0,1.262-1.42Z" transform="translate(-831.178 -1883.601)" fill="#333"/>
          <path id="Path_17901" data-name="Path 17901" d="M844.078,2003.29a15.609,15.609,0,0,1-4.2,5.208,25.941,25.941,0,0,0,7.416,2.544,7.616,7.616,0,0,0-1.164,1.7,25.779,25.779,0,0,1-7.87-3.058,26.563,26.563,0,0,1-8.58,3.609,7.031,7.031,0,0,0-.947-1.676,25.216,25.216,0,0,0,7.91-3.038,18.235,18.235,0,0,1-2.919-2.7,21.2,21.2,0,0,1-3.215,2.584,10.794,10.794,0,0,0-1.479-1.341,17.664,17.664,0,0,0,6.549-6.372l1.814.612a13.039,13.039,0,0,1-.848,1.282h5.917l.336-.079Zm-11.184,11.717a72.532,72.532,0,0,1,10.868,2.406l-1.046,1.736a63.928,63.928,0,0,0-10.927-2.544Zm3.058-3.807a31.823,31.823,0,0,1,5.819,2.229l-1.026,1.46a26.654,26.654,0,0,0-5.819-2.328Zm-.987-6.588a14.462,14.462,0,0,0,3.255,2.88,13.94,13.94,0,0,0,3.1-3.2h-6.075Z" transform="translate(-828.732 -1901.105)" fill="#333"/>
          <path id="Path_17902" data-name="Path 17902" d="M831.827,2059.612v1.519h-1.6v-14.379h5.247v12.861Zm0-11.243v3.925h2.013v-3.925Zm2.013,9.626v-4.1h-2.013v4.1Zm12.387-1.736a9.715,9.715,0,0,1-2.5,4.3,13.8,13.8,0,0,0,4.123,1.282,7.457,7.457,0,0,0-1.124,1.558,13.546,13.546,0,0,1-4.38-1.716,13.4,13.4,0,0,1-4.024,1.716,7,7,0,0,0-1.006-1.4,13.124,13.124,0,0,0,3.629-1.3,11.735,11.735,0,0,1-1.952-2.13,9.87,9.87,0,0,1-3.767,4.755,4.767,4.767,0,0,0-1.2-1.322c2.722-1.657,3.767-4.477,4.221-7.2h-2.545v-1.519h2.762c.039-.453.079-.868.118-1.282h-2.308v-1.459h1.38c-.177-.631-.532-1.578-.828-2.328l1.4-.374a19.377,19.377,0,0,1,.927,2.308l-1.125.395h5.188a20.053,20.053,0,0,0,1.657-3.235l1.716.533c-.532.907-1.144,1.893-1.716,2.7h2.15V2052h-6.667c-.04.434-.079.849-.138,1.282h7.24v1.519h-7.456c-.059.375-.138.71-.2,1.085H844.9l.315-.04Zm.612-9.548a64.441,64.441,0,0,1-10.474.986,6.045,6.045,0,0,0-.414-1.4,68.3,68.3,0,0,0,9.842-.946Zm-6.865,10.553a8.4,8.4,0,0,0,2.347,2.446,6.96,6.96,0,0,0,1.835-2.446Zm.789-6.844c-.079-.651-.3-1.756-.493-2.584l1.459-.257c.217.809.454,1.874.553,2.486Z" transform="translate(-829.361 -1919.853)" fill="#333"/>
          <path id="Path_17903" data-name="Path 17903" d="M837.693,2090.465c-.079.415-.2.887-.276,1.3-.1.572-.276,1.5-.454,2.386.79-.059,1.48-.1,1.914-.1,1.854,0,3.255.769,3.255,3.432,0,2.249-.3,5.286-1.1,6.923a2.848,2.848,0,0,1-2.938,1.657,10.331,10.331,0,0,1-2.268-.3l-.316-2.012a10.014,10.014,0,0,0,2.327.414,1.5,1.5,0,0,0,1.578-.907,15.384,15.384,0,0,0,.848-5.582c0-1.637-.73-1.894-1.952-1.894-.395,0-1.026.04-1.736.1a39.493,39.493,0,0,1-3.945,10.237l-1.973-.808c1.893-2.545,3.275-6.628,3.945-9.231-.868.1-1.657.2-2.09.236-.474.06-1.342.178-1.874.277l-.2-2.092c.631.04,1.2.02,1.854,0,.612-.019,1.638-.1,2.722-.2a23.571,23.571,0,0,0,.434-4.083Zm6.588,1.914a35.507,35.507,0,0,1,3.432,6.943l-1.914.907a23.032,23.032,0,0,0-3.313-7.081Z" transform="translate(-829.447 -1938.716)" fill="#333"/>
          <path id="Path_17904" data-name="Path 17904" d="M834.2,2135.89a41.952,41.952,0,0,0,.138,4.32c.3,3,1.045,4.99,2.327,4.99.967,0,1.8-2.071,2.229-3.826l1.538,1.795c-1.2,3.294-2.367,4.418-3.806,4.418-1.914,0-3.689-1.854-4.221-6.884a49.961,49.961,0,0,1-.217-5.109,11.523,11.523,0,0,0-.118-1.814l2.327.04A19.3,19.3,0,0,0,834.2,2135.89Zm13.374,7.949-1.973.769c-.315-3.294-1.42-7.378-3.353-9.665l1.933-.632A20.042,20.042,0,0,1,847.571,2143.839Z" transform="translate(-830.134 -1957.021)" fill="#333"/>
          <path id="Path_17905" data-name="Path 17905" d="M846.4,2179.736a30.262,30.262,0,0,1-3.847,2.564,10.1,10.1,0,0,0,4.753,4.241,6.743,6.743,0,0,0-1.282,1.6c-3.63-1.755-5.76-5.444-6.943-10.059h-.04a12.407,12.407,0,0,1-1.815,1.262c3.729,3.254,3.649,8.205,1.736,9.586a3.092,3.092,0,0,1-2.209.729c-.493,0-1.085-.02-1.7-.058a4.432,4.432,0,0,0-.513-1.756,16.883,16.883,0,0,0,1.834.1,1.7,1.7,0,0,0,1.3-.394,3.23,3.23,0,0,0,.651-3.018,28.657,28.657,0,0,1-7.851,4.182,8.934,8.934,0,0,0-.967-1.519,22.164,22.164,0,0,0,8.324-4.241q-.236-.5-.532-1.006a29.791,29.791,0,0,1-6.174,3.136,6.527,6.527,0,0,0-.927-1.42,21.311,21.311,0,0,0,6.253-2.821,6.113,6.113,0,0,0-.73-.691,29.446,29.446,0,0,1-4.753,1.756,9.023,9.023,0,0,0-.966-1.42,23.624,23.624,0,0,0,6.469-2.406h-3.629V2176.5h10.79v1.579h-2.9a18.763,18.763,0,0,0,1.046,2.84,25.653,25.653,0,0,0,3.176-2.406Zm-14.439-2.466h-1.814v-4.1h7.18v-1.656h1.894v1.656h7.3v4.1h-1.855v-2.426h-12.7Z" transform="translate(-829.061 -1972.88)" fill="#333"/>
        </g>
      </g>
      <text id="Z" transform="translate(37.703 15.994)" fill="#333" font-size="23" font-family="SegoeUI, Segoe UI" letter-spacing="0.3em"><tspan x="-6.559" y="0">Z</tspan></text>
      <text id="E" transform="translate(37.703 39.968)" fill="#333" font-size="23" font-family="SegoeUI, Segoe UI" letter-spacing="0.3em"><tspan x="-5.817" y="0">E</tspan></text>
      <text id="H" transform="translate(37.703 61.773)" fill="#333" font-size="23" font-family="SegoeUI, Segoe UI" letter-spacing="0.3em"><tspan x="-8.165" y="0">H</tspan></text>
    </g>
  </g>
</svg>
