<svg xmlns="http://www.w3.org/2000/svg" width="69.496" height="230.377" viewBox="0 0 69.496 230.377">
  <g id="Group_13583" data-name="Group 13583" transform="translate(-1283.082 -1361)">
    <rect id="Rectangle_3075" data-name="Rectangle 3075" height="174.324" transform="translate(1329.556 1361)" fill="#998c72"/>
    <text id="POINT_04" data-name="POINT 04" transform="translate(1341.578 1362.626) rotate(90)" fill="#998c72" font-size="12" font-family="DIN2014-Bold, 'DIN \32 014'" font-weight="700" letter-spacing="0.13em"><tspan x="0" y="0">POINT 04</tspan></text>
    <rect id="Rectangle_3115" data-name="Rectangle 3115" width="0.608" height="178.87" transform="translate(1331.171 1362.626)" fill="#998c72"/>
    <g id="Group_13282" data-name="Group 13282" transform="translate(1306.998 1363.952)">
      <g id="Group_13185" data-name="Group 13185" transform="translate(0)">
        <path id="Path_17906" data-name="Path 17906" d="M1283.887,2325.346c-.037.4-.055.809-.092,1.2.718,4.434,2.613,6.661,7.857,7.195a6.063,6.063,0,0,0-.994,1.619c-4.269-.644-6.4-2.263-7.581-5.318-.92,2.5-2.889,4.269-7.434,5.244a5.509,5.509,0,0,0-.957-1.545c6.44-1.251,7.01-4.011,7.3-8.391Zm-4.416,1.472a8.428,8.428,0,0,1-2.7,3.974l-1.417-.957a7.446,7.446,0,0,0,2.631-3.625Zm-.994-1.4a22.219,22.219,0,0,0-2.962-3.662,32.564,32.564,0,0,0,2.631-3.367l1.748.459a33.358,33.358,0,0,1-2.373,2.871,21.97,21.97,0,0,1,2.613,3.036Zm5.189-.24a21.138,21.138,0,0,0-3.092-3.533,31.6,31.6,0,0,0,2.761-3.257l1.748.459c-.736.957-1.656,1.932-2.447,2.779a24.482,24.482,0,0,1,2.686,2.889Zm5.373.313a22,22,0,0,0-3.478-3.7,32.788,32.788,0,0,0,3.036-3.4l1.748.515c-.791.975-1.8,1.987-2.668,2.852a24.477,24.477,0,0,1,3.018,3.036Zm-2.7,4.582a21.956,21.956,0,0,0,2.281-3.809l1.84.5a33.152,33.152,0,0,1-2.594,3.809Z" transform="translate(-1274.687 -2318.391)" fill="#333"/>
        <path id="Path_17907" data-name="Path 17907" d="M1291.507,2369.551v1.4h-16.174v-1.4h7.14v-1.141h-5.355V2367.1h5.355v-1.031h-4.655v-1.324h4.655v-1.159h1.729v1.159h4.84v1.324h-4.84v1.031h5.63v1.306h-5.63v1.141Zm-14.021-4.158h-1.693v-3.441h6.679v-1.711h1.748v1.711h6.826v3.441H1289.3v-1.95h-11.813Zm.405,6.476h11.224v5.208H1287.4v-.5h-7.875v.552h-1.638Zm1.638,1.38v1.951h7.875v-1.951Z" transform="translate(-1274.984 -2337.61)" fill="#333"/>
        <path id="Path_17908" data-name="Path 17908" d="M1280.455,2403.737a11.556,11.556,0,0,0-.386,1.362,43.553,43.553,0,0,0-.865,6.7,12.878,12.878,0,0,0,.11,1.877c.276-.718.644-1.582.9-2.227l.92.719c-.461,1.343-1.086,3.256-1.27,4.158a4.3,4.3,0,0,0-.074.809c0,.166.019.442.037.663l-1.637.11a22.8,22.8,0,0,1-.681-5.76,52.691,52.691,0,0,1,.773-7.1,13.656,13.656,0,0,0,.165-1.49Zm4.1,8.7a6.507,6.507,0,0,0-.22,1.564c0,.81.589,1.454,2.76,1.454a20.474,20.474,0,0,0,4.434-.46l.037,1.9a23.656,23.656,0,0,1-4.508.368c-3.036,0-4.434-1.048-4.434-2.778a11,11,0,0,1,.313-2.208Zm6.459-7.434v1.84a48.392,48.392,0,0,1-7.471,0v-1.822A33.778,33.778,0,0,0,1291.017,2405.007Z" transform="translate(-1275.984 -2357.501)" fill="#333"/>
        <path id="Path_17909" data-name="Path 17909" d="M1280.364,2450.611s-.019.5-.037.718c-.2,4.526-.405,6.311-.938,6.918a1.579,1.579,0,0,1-1.252.626,14.547,14.547,0,0,1-2.245.018,4.405,4.405,0,0,0-.515-1.674,19.224,19.224,0,0,0,2.006.092.773.773,0,0,0,.662-.221c.313-.332.515-1.656.68-4.968h-2.318l-.11.846-1.509-.239c.239-1.491.479-3.9.589-5.723h3.348v-2.466h-3.643v-1.527h5.263v5.539h-3.588c-.055.68-.129,1.4-.184,2.061Zm10.028,8.464a9.789,9.789,0,0,0-.552-1.251c-3.256.295-6.643.552-9.034.754l-.2-1.674c1.252-.074,2.852-.166,4.6-.294v-2.724h-3.864v-5.06h3.864v-1.693l-4.14.276-.222-1.619,1.564-.074a23.213,23.213,0,0,0,1.84-3.717l1.822.46c-.57,1.067-1.232,2.208-1.84,3.183,1.362-.073,2.852-.147,4.361-.239a17.145,17.145,0,0,0-1.142-1.362l1.417-.662a17.144,17.144,0,0,1,2.853,3.791l-1.527.736a8.526,8.526,0,0,0-.608-1.086l-2.742.184v1.822h3.957v5.06h-3.957v2.613l2.116-.166a18.283,18.283,0,0,0-1.066-1.49l1.379-.626a15.989,15.989,0,0,1,2.613,4.177Zm-5.189-6.624v-2.189h-2.3v2.189Zm1.637-2.189v2.189h2.319v-2.189Z" transform="translate(-1274.734 -2375.158)" fill="#333"/>
        <path id="Path_17910" data-name="Path 17910" d="M1279.634,2487.86a38.918,38.918,0,0,0,.129,4.029c.275,2.8.974,4.656,2.17,4.656.9,0,1.675-1.932,2.08-3.57l1.435,1.675c-1.122,3.073-2.208,4.121-3.551,4.121-1.785,0-3.441-1.729-3.938-6.422a46.579,46.579,0,0,1-.2-4.766,10.751,10.751,0,0,0-.111-1.692l2.171.037A17.978,17.978,0,0,0,1279.634,2487.86Zm12.476,7.416-1.841.718c-.294-3.073-1.324-6.882-3.128-9.017l1.8-.588A18.693,18.693,0,0,1,1292.11,2495.275Z" transform="translate(-1276.046 -2395.314)" fill="#333"/>
        <path id="Path_17911" data-name="Path 17911" d="M1290.846,2528.914a28.4,28.4,0,0,1-3.589,2.392,9.427,9.427,0,0,0,4.434,3.956,6.261,6.261,0,0,0-1.2,1.49c-3.386-1.638-5.373-5.079-6.477-9.384h-.037a11.547,11.547,0,0,1-1.693,1.178c3.478,3.036,3.4,7.655,1.62,8.943a2.891,2.891,0,0,1-2.061.681c-.46,0-1.012-.019-1.582-.055a4.136,4.136,0,0,0-.479-1.638,15.541,15.541,0,0,0,1.711.093,1.581,1.581,0,0,0,1.215-.368,3.013,3.013,0,0,0,.607-2.815,26.73,26.73,0,0,1-7.324,3.9,8.348,8.348,0,0,0-.9-1.417,20.669,20.669,0,0,0,7.765-3.956q-.22-.469-.5-.938a27.785,27.785,0,0,1-5.759,2.926,6.1,6.1,0,0,0-.865-1.324,19.887,19.887,0,0,0,5.833-2.631,5.723,5.723,0,0,0-.681-.644,27.438,27.438,0,0,1-4.434,1.637,8.425,8.425,0,0,0-.9-1.324,22.059,22.059,0,0,0,6.035-2.245H1278.2V2525.9h10.065v1.472h-2.705a17.5,17.5,0,0,0,.975,2.649,23.912,23.912,0,0,0,2.962-2.245Zm-13.47-2.3h-1.693v-3.827h6.7v-1.546h1.767v1.546h6.808v3.827h-1.73v-2.264h-11.85Z" transform="translate(-1274.874 -2411.549)" fill="#333"/>
        <path id="Path_17912" data-name="Path 17912" d="M1284.514,2575.743c.055-.607.073-1.6.092-2.484-1.527.846-2.484,1.656-2.484,2.687,0,1.233,1.141,1.454,2.944,1.454a28.92,28.92,0,0,0,4.931-.46l-.037,1.841a49.231,49.231,0,0,1-4.95.294c-2.649,0-4.728-.607-4.728-2.834,0-2.189,2.152-3.569,4.213-4.636a1.454,1.454,0,0,0-1.473-.865,4.577,4.577,0,0,0-2.944,1.269,24.735,24.735,0,0,0-1.637,1.914l-1.509-1.14a18.579,18.579,0,0,0,4.011-5.208h-.516c-.735,0-1.987-.037-2.962-.11v-1.675a25.4,25.4,0,0,0,3.054.2h1.031a10.473,10.473,0,0,0,.423-2.153l1.858.166c-.11.478-.257,1.14-.5,1.914a40.495,40.495,0,0,0,5.263-.534v1.675a58.655,58.655,0,0,1-5.87.479,12.753,12.753,0,0,1-1.361,2.318,5.27,5.27,0,0,1,2.282-.534,2.351,2.351,0,0,1,2.373,1.528c1.086-.534,2.006-.9,2.87-1.288.589-.258,1.122-.516,1.693-.773l.7,1.656a17.867,17.867,0,0,0-1.8.644c-.92.35-2.079.809-3.33,1.4.019,1.012.055,2.428.073,3.256Z" transform="translate(-1275.719 -2431.111)" fill="#333"/>
      </g>
    </g>
    <g id="Group_13283" data-name="Group 13283" transform="translate(1283.081 1363.952)">
      <g id="Group_13187" data-name="Group 13187">
        <path id="Path_17913" data-name="Path 17913" d="M1240.745,2325.125a36.623,36.623,0,0,1-3.128,2.042,46.281,46.281,0,0,0,6.422-1.049l1.049,1.14a49.327,49.327,0,0,1-8.3,1.2c-.111.4-.2.81-.294,1.2h8.612s-.056.5-.093.754c-.423,2.594-.865,3.809-1.453,4.361a2.23,2.23,0,0,1-1.564.515c-.57.037-1.637.037-2.76-.018a3.643,3.643,0,0,0-.515-1.583c1.086.111,2.263.129,2.723.129a1.271,1.271,0,0,0,.791-.165c.35-.276.662-1.049.938-2.576h-7.066c-.073.313-.165.607-.239.865l-1.711-.24c.276-.828.571-1.968.864-3.128-1.159.57-2.318,1.067-3.5,1.527a8.772,8.772,0,0,0-1.067-1.343,38.4,38.4,0,0,0,4.987-2.135l.092-.423.588.073c.663-.368,1.307-.736,1.933-1.14h-6.809v-1.472h5.833v-1.8h-4.453v-1.417h4.453v-2.042h1.693v2.042h4.158v.9a26.39,26.39,0,0,0,1.951-2.153l1.4.772a27.8,27.8,0,0,1-3.662,3.7h4.4v1.472Zm-.534-1.472c.755-.571,1.491-1.178,2.172-1.8h-3.607v1.8Z" transform="translate(-1230.459 -2318.391)" fill="#333"/>
        <path id="Path_17914" data-name="Path 17914" d="M1243.9,2369.928c-.718.644-2.576,2.355-3.128,2.944a1.657,1.657,0,0,1,.662.092,1.618,1.618,0,0,1,1.233,1.251c.184.5.387,1.307.57,1.822.184.626.589.9,1.4.9a16.273,16.273,0,0,0,3.422-.332l-.11,1.877a27.338,27.338,0,0,1-3.4.258c-1.527,0-2.447-.35-2.87-1.528-.166-.515-.405-1.471-.553-1.968-.221-.607-.589-.9-1.03-.884a1.878,1.878,0,0,0-1.232.663c-.663.644-2.319,2.411-3.441,3.809l-1.693-1.177a12.6,12.6,0,0,0,1.03-.92c.81-.81,5.152-5.134,6.845-6.864-1.325.055-3.956.294-5.023.386a11.688,11.688,0,0,0-1.472.185l-.146-1.969c.4.037.993.055,1.582.055.957-.018,5.042-.258,6.458-.46a4.221,4.221,0,0,0,.9-.184l1.068,1.2C1244.564,2369.358,1244.177,2369.708,1243.9,2369.928Zm.589-5.281-.24,1.656c-1.822-.148-5.024-.534-7.176-.92l.294-1.637A68.543,68.543,0,0,0,1244.49,2364.647Z" transform="translate(-1231.959 -2339.22)" fill="#333"/>
        <path id="Path_17915" data-name="Path 17915" d="M1237.261,2413.735c-.718.24-1.472.5-2.208.736v4.857c0,.884-.183,1.344-.717,1.62a6.528,6.528,0,0,1-2.576.276,6.116,6.116,0,0,0-.5-1.564c.773.037,1.528.037,1.766.018.258,0,.35-.073.35-.35V2415c-.773.239-1.509.479-2.171.681l-.441-1.729c.735-.184,1.637-.442,2.612-.718v-3.791h-2.337v-1.583h2.337v-3.5h1.674v3.5h1.859v1.583h-1.859v3.312l1.987-.607Zm9.292-2.337a14.8,14.8,0,0,1-2.429,6.367,10.416,10.416,0,0,0,3.827,2.079,6.084,6.084,0,0,0-1.086,1.472,10.657,10.657,0,0,1-3.827-2.282,11.229,11.229,0,0,1-3.257,2.226,6.436,6.436,0,0,0-.975-1.379,8.874,8.874,0,0,0,3.11-2.043,13.676,13.676,0,0,1-1.748-2.778,11.532,11.532,0,0,1-3.625,6.127,4.382,4.382,0,0,0-1.233-1.159c3.11-2.5,3.883-6.679,4.085-11.059h-2.263v-1.582h2.3c.018-1.012.037-2.006.037-3h1.656c0,.994-.018,1.987-.037,3h6.588v1.582h-6.642c-.037.736-.092,1.454-.166,2.172h4.361l.294-.037Zm-5.778,1.306a12.354,12.354,0,0,0,2.171,3.883,12.1,12.1,0,0,0,1.73-3.883Z" transform="translate(-1230.6 -2357.876)" fill="#333"/>
        <path id="Path_17916" data-name="Path 17916" d="M1239.17,2449.706c-.074.386-.184.828-.258,1.214-.092.533-.258,1.4-.423,2.227.736-.056,1.38-.093,1.785-.093,1.73,0,3.036.718,3.036,3.2a17.189,17.189,0,0,1-1.031,6.458,2.657,2.657,0,0,1-2.741,1.546,9.683,9.683,0,0,1-2.116-.276l-.294-1.877a9.348,9.348,0,0,0,2.171.386,1.4,1.4,0,0,0,1.472-.846,14.352,14.352,0,0,0,.791-5.208c0-1.527-.681-1.767-1.821-1.767-.368,0-.957.036-1.62.092a36.828,36.828,0,0,1-3.68,9.55l-1.841-.754a27.459,27.459,0,0,0,3.68-8.611c-.81.092-1.546.185-1.95.221-.442.056-1.252.166-1.748.258l-.184-1.951c.589.038,1.123.019,1.73,0,.57-.018,1.528-.091,2.539-.184a22.035,22.035,0,0,0,.405-3.809Zm6.146,1.785a33.124,33.124,0,0,1,3.2,6.477l-1.785.846a21.459,21.459,0,0,0-3.091-6.606Z" transform="translate(-1231.349 -2378.595)" fill="#333"/>
        <path id="Path_17917" data-name="Path 17917" d="M1248.239,2504.4a4.589,4.589,0,0,1-3.312,1.436c-1.232,0-2.1-.883-2.1-2.466,0-1.969.681-4.747.681-6.422a1.222,1.222,0,0,0-1.343-1.4c-1.381,0-3.46,1.693-4.987,3.368-.037.626-.055,1.233-.055,1.785,0,1.546,0,2.816.092,4.435.019.313.055.846.111,1.215h-1.969c.018-.313.055-.884.055-1.178.019-1.656.037-2.669.073-4.656-.828,1.233-1.877,2.76-2.612,3.79l-1.123-1.546c.994-1.25,2.926-3.808,3.883-5.262.037-.5.074-1.031.11-1.528-.847.111-2.318.294-3.386.442l-.184-1.84c.46.019.828,0,1.343-.018.57-.037,1.49-.147,2.336-.276.055-.754.093-1.344.093-1.546a7.673,7.673,0,0,0-.093-1.435l2.1.074c-.093.46-.221,1.4-.368,2.557h.018l.607.755c-.221.313-.552.828-.828,1.269-.018.24-.036.5-.055.755,1.379-1.27,3.569-2.834,5.317-2.834a2.349,2.349,0,0,1,2.631,2.5c0,1.8-.626,4.674-.626,6.5,0,.553.258.938.81.938a3.775,3.775,0,0,0,2.52-1.361Z" transform="translate(-1231.053 -2397.799)" fill="#333"/>
        <path id="Path_17918" data-name="Path 17918" d="M1242.185,2537.561a31,31,0,0,1-3.589.589c-.165.791-.35,1.6-.552,2.355a51.715,51.715,0,0,1-2.815,8.17l-1.987-.663a38.468,38.468,0,0,0,3.036-7.985c.147-.534.295-1.123.423-1.693-.5.018-.975.037-1.417.037-.828,0-1.49-.037-2.116-.073l-.055-1.766a16.286,16.286,0,0,0,2.189.128c.553,0,1.141-.018,1.767-.074.093-.515.184-.975.221-1.307a8.317,8.317,0,0,0,.055-1.619l2.172.166c-.129.46-.257,1.159-.331,1.527l-.221,1.048a30.784,30.784,0,0,0,3.22-.607Zm-.552,6.072a6.589,6.589,0,0,0-.257,1.545c0,.81.423,1.527,2.686,1.527a19.417,19.417,0,0,0,3.57-.35l-.074,1.822a26.838,26.838,0,0,1-3.515.239c-2.907,0-4.4-.938-4.4-2.723a9.962,9.962,0,0,1,.295-2.208Zm-.718-4.4c.957-.093,2.189-.166,3.33-.166a28.349,28.349,0,0,1,3.092.147l-.037,1.729a21.906,21.906,0,0,0-3.017-.22,28.68,28.68,0,0,0-3.367.183Z" transform="translate(-1231.678 -2417.251)" fill="#333"/>
        <path id="Path_17919" data-name="Path 17919" d="M1236.451,2581.956a21.724,21.724,0,0,1-1.435,6.441c1.767,1.546,4.177,1.876,7.047,1.895.9,0,4.747,0,5.852-.037a5.983,5.983,0,0,0-.662,1.656h-5.226c-3.22,0-5.8-.405-7.728-2.043a8.038,8.038,0,0,1-2.226,2.558,7.287,7.287,0,0,0-1.307-1.178,7.529,7.529,0,0,0,2.355-2.649,11.927,11.927,0,0,1-1.73-3.57l1.343-.479a9.568,9.568,0,0,0,1.1,2.467,18.238,18.238,0,0,0,.865-3.755h-1.767l-.312.645-1.546-.423c.865-1.656,1.858-3.791,2.576-5.392h-2.723v-1.49h3.514l.258-.074,1.178.313c-.57,1.417-1.4,3.221-2.208,4.932h1.49l.276-.055Zm4.343-1.4h-4.84v-1.343h4.84v-1.049h-3.57v-1.344h3.57v-1.177h1.674v1.177h3.919v2.392h1.38v1.343h-1.38v2.448h-3.919v1.1h4.085v1.288h-4.085v1.177h4.895v1.381h-4.895v1.729h-1.674v-1.729h-4.6v-1.381h4.6V2585.4H1237v-1.288h3.791v-1.1h-3.68v-1.344h3.68Zm1.674-1.343h2.245v-1.049h-2.245Zm2.245,1.343h-2.245v1.1h2.245Z" transform="translate(-1230.6 -2436.534)" fill="#333"/>
        <path id="Path_17920" data-name="Path 17920" d="M1237.842,2629.208c-.718.24-1.436.46-2.153.681v6.588h-1.582v-6.091l-2.889.884-.442-1.638c.92-.239,2.079-.552,3.331-.9v-3.864h-1.472a18,18,0,0,1-.755,2.557,10.318,10.318,0,0,0-1.251-.772,21.267,21.267,0,0,0,1.159-6l1.454.239c-.092.791-.184,1.582-.313,2.355h1.178V2619.6h1.582v3.643h1.711v1.619h-1.711v3.385l1.933-.552Zm9.752-6.642s0,.589-.018.81c-.4,8.261-.754,11.168-1.472,12.07a1.734,1.734,0,0,1-1.343.81,10.554,10.554,0,0,1-2.079.037,4.042,4.042,0,0,0-.479-1.675c.773.074,1.454.074,1.8.074a.708.708,0,0,0,.663-.331c.534-.607.92-3.22,1.251-10.212h-.515c-.938,4.748-2.907,9.586-5.888,11.979a7.743,7.743,0,0,0-1.417-1.012c2.963-2.116,4.895-6.514,5.814-10.966h-1.232c-.809,3.092-2.411,6.458-4.361,8.188a6.2,6.2,0,0,0-1.325-.975c1.9-1.472,3.4-4.379,4.251-7.213h-1.307a13.8,13.8,0,0,1-1.987,3.385,13.045,13.045,0,0,0-1.325-.975,15.591,15.591,0,0,0,3.147-6.955l1.546.294c-.2.921-.478,1.822-.755,2.668Z" transform="translate(-1230.537 -2456.721)" fill="#333"/>
        <path id="Path_17921" data-name="Path 17921" d="M1236.343,2674.892c-.239-.589-.772-1.6-1.251-2.465v8.28h-1.583v-7.783a17.174,17.174,0,0,1-1.968,4.417,8.674,8.674,0,0,0-.81-1.472,19.614,19.614,0,0,0,2.631-6.569h-2.245v-1.583h2.392v-3.882h1.583v3.882h1.969v1.583h-1.969v1.086c.515.681,1.877,2.76,2.171,3.257Zm11.593,2.889h-1.086V2679c0,.773-.166,1.16-.7,1.417a8.185,8.185,0,0,1-2.539.22,6.365,6.365,0,0,0-.46-1.379c.773.036,1.565.036,1.8.018.221,0,.295-.073.295-.294v-1.2h-5.76v2.852h-1.564v-2.852h-1.178v-1.288h1.178v-4.6h3.606v-.9h-4.471v-1.27h2.411v-1.031h-1.62v-1.2h1.62v-1.012h-2.005v-1.233h2.005v-1.417h1.6v1.417h2.521v-1.417h1.6v1.417h2.189v1.233h-2.189v1.012h1.914v1.2h-1.914v1.031h2.557v1.27h-4.674v.9h3.772v4.6h1.086Zm-8.446-4.655v1.049h2.042v-1.049Zm0,3.367h2.042v-1.141h-2.042Zm1.582-9h2.521v-1.012h-2.521Zm0,2.227h2.521v-1.031h-2.521Zm2.006,3.4v1.049h2.172v-1.049Zm2.172,3.367v-1.141h-2.172v1.141Z" transform="translate(-1230.584 -2477.034)" fill="#333"/>
        <path id="Path_17922" data-name="Path 17922" d="M1235.142,2721.018c.809,1.27,2.318,1.858,4.342,1.932,2.042.073,6.127.019,8.427-.129a7.824,7.824,0,0,0-.57,1.748c-2.079.092-5.778.128-7.876.037-2.337-.092-3.919-.7-5.078-2.116-.865.755-1.748,1.49-2.7,2.281L1230.8,2723a27.748,27.748,0,0,0,2.668-1.895v-4.325h-2.355V2715.2h4.03Zm-.846-8.593a13.823,13.823,0,0,0-3.073-2.907l1.27-1.03a14.438,14.438,0,0,1,3.146,2.815Zm4.03-.7a12.6,12.6,0,0,1-1.306,1.767,9.313,9.313,0,0,0-1.454-.829,10.713,10.713,0,0,0,2.632-4.379l1.6.349a15.531,15.531,0,0,1-.662,1.62h1.766v-2.19h1.693v2.19h4.214v1.472h-4.214v1.987h4.987v1.454h-11.739v-1.454h5.06v-1.987Zm-.92,9.918v-5.226h8.961v5.226Zm1.674-1.4h5.5V2717.8h-5.5Z" transform="translate(-1230.615 -2497.346)" fill="#333"/>
      </g>
    </g>
  </g>
</svg>
