<svg xmlns="http://www.w3.org/2000/svg" width="141.824" height="475.177" viewBox="0 0 141.824 475.177">
  <g id="Group_13578" data-name="Group 13578" transform="translate(-865.877 -3009.424)">
    <rect id="Rectangle_3080" data-name="Rectangle 3080" width="1" height="295" transform="translate(966 3010)" fill="#998c72"/>
    <text id="POINT_05" data-name="POINT 05" transform="translate(985.7 3009.423) rotate(90)" fill="#998c72" font-size="23" font-family="DIN2014-Bold, 'DIN \32 014'" font-weight="700" letter-spacing="0.13em"><tspan x="0" y="0">POINT 05</tspan></text>
    <g id="Group_13208" data-name="Group 13208">
      <path id="Path_17865" data-name="Path 17865" d="M909.52,3268.121a1.716,1.716,0,1,1-1.716,1.717A1.729,1.729,0,0,1,909.52,3268.121Zm4.806-4.806a1.716,1.716,0,1,1,1.716,1.716A1.729,1.729,0,0,1,914.325,3263.316Zm-9.612,0A1.716,1.716,0,1,1,903,3261.6,1.729,1.729,0,0,1,904.714,3263.316Zm4.806-.664,7.552-7.552.664.664-7.552,7.552,7.552,7.552-.664.664-7.552-7.552-7.575,7.575-.664-.664,7.575-7.575-7.552-7.552.664-.664Zm0-4.142a1.716,1.716,0,1,1,1.716-1.716A1.729,1.729,0,0,1,909.52,3258.51Z" transform="translate(36.251 130.925)"/>
      <g id="Group_13190" data-name="Group 13190" transform="translate(913.8 3089.724)">
        <g id="Group_13189" data-name="Group 13189">
          <path id="Path_17923" data-name="Path 17923" d="M911.174,2995.066H898.751v7.823h-3.4v-7.823h-16.1v-3.185h5.7v-9.343h10.405v-4.885h-8.105a32.155,32.155,0,0,1-5.1,6.725,26.13,26.13,0,0,0-2.868-2.123,28.636,28.636,0,0,0,7.716-12l3.327.884c-.424,1.1-.919,2.265-1.379,3.329H909.44v3.185H898.751v4.885h9.876v3.079h-9.876v6.264h12.423Zm-15.822-3.185v-6.264H888.24v6.264Z" transform="translate(-878.435 -2970.255)" fill="#333"/>
          <path id="Path_17924" data-name="Path 17924" d="M890.182,3013.333a63.9,63.9,0,0,1-3.468,7.186v24.141H883.6V3025.3a37.936,37.936,0,0,1-3.291,3.929,19.483,19.483,0,0,0-1.84-3.328,37.843,37.843,0,0,0,8.637-13.556Zm13.307,18.9a26.332,26.332,0,0,0,8.744,8.495,14.671,14.671,0,0,0-2.3,2.618,30.373,30.373,0,0,1-8.213-8.813v10.23h-3.291v-10.053a28.8,28.8,0,0,1-8.637,8.565,14.55,14.55,0,0,0-2.265-2.619,25.943,25.943,0,0,0,9.166-8.423H888.66v-2.975h9.769V3025.4h-7.292v-11.537h18.3V3025.4H901.72v3.858h9.557v2.975Zm-9.273-9.771h11.929v-5.7H894.216Z" transform="translate(-878.466 -2968.562)" fill="#333"/>
          <path id="Path_17925" data-name="Path 17925" d="M878.942,3059.992h12.884v2.618H878.942Zm11.857,24.99h-7.433v1.522h-2.83v-11.894H890.8Zm-.212-17.521h-9.982v-2.549h9.982Zm-9.982,2.266h9.982v2.547h-9.982Zm9.982-11.928h-9.77v-2.584h9.77Zm-7.221,19.468v5.1h4.567v-5.1Zm28.211,4.956v3.114H891.862v-3.114h2.478v-17.168h3.044v17.168h3.575v-23.078h-8v-3.115h18.016v3.115h-6.8v9.133h6.584v3.114h-6.584v10.831Z" transform="translate(-878.447 -2966.838)" fill="#333"/>
          <path id="Path_17926" data-name="Path 17926" d="M890.819,3109.8l-2.017,3.078a82.477,82.477,0,0,0-7.716-4.848l1.946-3.008C885.227,3106.19,889.191,3108.668,890.819,3109.8Zm3.5,8.142a35.013,35.013,0,0,0,13.309-12.85l2.123,3.646a41.024,41.024,0,0,1-13.592,12.46,42.193,42.193,0,0,1-11.539,4.318l-2.017-3.611A37.645,37.645,0,0,0,894.324,3117.942Zm1.734-15.857-2.052,3.007c-1.8-1.309-5.487-3.751-7.646-4.955l1.983-2.973C890.466,3098.366,894.395,3100.916,896.058,3102.085Z" transform="translate(-878.361 -2965.15)" fill="#333"/>
          <path id="Path_17927" data-name="Path 17927" d="M906.083,3139.759a13.651,13.651,0,0,0-1.027,1.806,47.559,47.559,0,0,1-5.663,9.946,93.857,93.857,0,0,1,9.946,10.159l-3.079,2.691a78.986,78.986,0,0,0-9.2-10.125,45.172,45.172,0,0,1-13.38,9.982l-2.795-2.937a39.8,39.8,0,0,0,14.3-10.159,30.151,30.151,0,0,0,5.521-9.2H887.89c-1.31,0-3.222.176-3.752.213v-3.93a36.291,36.291,0,0,0,3.752.249h12.92a12.03,12.03,0,0,0,3.044-.355Z" transform="translate(-878.369 -2963.504)" fill="#333"/>
          <path id="Path_17928" data-name="Path 17928" d="M906.825,3185.737c.744,0,2.053-.072,2.938-.177v3.574c-.813-.035-2.017-.07-2.938-.07h-8.954a21.557,21.557,0,0,1-2.16,9.238,16.613,16.613,0,0,1-6.9,6.477l-3.186-2.336a14.655,14.655,0,0,0,6.442-5.167,16.235,16.235,0,0,0,2.052-8.211H884.066c-1.027,0-2.159.034-3.15.1v-3.609a30.494,30.494,0,0,0,3.15.177Zm-18.37-5.557c-1.2,0-2.478.071-3.433.141v-3.575a26.013,26.013,0,0,0,3.4.212h14.016a28.34,28.34,0,0,0,3.468-.212v3.575c-1.1-.071-2.371-.141-3.468-.141Z" transform="translate(-878.367 -2961.949)" fill="#333"/>
          <path id="Path_17929" data-name="Path 17929" d="M906.855,3244.052c-.46-1.2-1.061-2.726-1.8-4.319-5.487.638-16.635,1.877-21.166,2.3-.884.071-2.017.248-3.045.389l-.672-4.036c1.1.037,2.442,0,3.5-.035.424-.035.885-.035,1.415-.071,1.984-4.956,5.275-15.361,6.266-18.867a25.385,25.385,0,0,0,.743-3.645l4.353.884c-.424.957-.849,2.018-1.345,3.5-1.061,3.363-4.247,13.2-5.946,17.769,4.743-.424,10.62-1.1,14.3-1.558a46.457,46.457,0,0,0-3.929-6.8l3.363-1.451a100.073,100.073,0,0,1,7.645,14.3Z" transform="translate(-878.398 -2960.38)" fill="#333"/>
        </g>
      </g>
      <g id="Group_13192" data-name="Group 13192" transform="translate(865.876 3010.87)">
        <g id="Group_13191" data-name="Group 13191">
          <path id="Path_17930" data-name="Path 17930" d="M845.774,2912.078c-.6,7.469-2.266,12.317-11.468,14.867a10.127,10.127,0,0,0-1.911-2.867c8.282-2.019,9.415-5.842,9.876-12Zm-11.327-4.212c1.629-.035,3.5-.072,5.558-.142a48.088,48.088,0,0,0,2.831-6.124H833.35v-3.114h13.487v-4.036h3.4v4.036H863.9v3.114H846.766c-.991,1.982-2.158,4.177-3.257,6.053,3.858-.141,8.106-.284,12.318-.389a51.994,51.994,0,0,0-4-3.575l2.725-1.628a53.762,53.762,0,0,1,9.132,8.99l-2.939,1.912a27.4,27.4,0,0,0-2.123-2.761c-8.743.459-17.946.813-24.033,1.061Zm25.733,15.716c1.345,0,1.522-.744,1.7-5.84a9.674,9.674,0,0,0,3.009,1.345c-.319,6.052-1.2,7.609-4.424,7.609h-4.637c-3.469,0-4.39-1.026-4.39-4.39V2911.9h3.292v10.405c0,1.1.212,1.275,1.522,1.275Z" transform="translate(-832.395 -2894.45)" fill="#333"/>
          <path id="Path_17931" data-name="Path 17931" d="M851.811,2962.219c2.478,3.363,6.76,5.38,12.707,6.158a11.8,11.8,0,0,0-1.983,2.868c-6.9-1.168-11.4-3.929-14.122-8.814-1.912,3.4-5.805,6.477-13.593,8.708a13.093,13.093,0,0,0-2.017-2.619c6.512-1.663,10.016-3.894,11.892-6.3H833.3v-2.867h12.919a13.25,13.25,0,0,0,.532-2.832H837.3V2953.8h9.486V2951.1H836.732v-2.052h-3.008v-7.079h13.133v-3.257h3.4v3.257H863.42v7.079h-2.725v2.052H850.111v2.691h10.017v2.725H850.076a18.753,18.753,0,0,1-.424,2.832h14.441v2.867Zm-5.026-13.839v-2.513h3.327v2.513h9.947v-3.5H836.944v3.5Z" transform="translate(-832.379 -2892.67)" fill="#333"/>
          <path id="Path_17932" data-name="Path 17932" d="M848,3008.507c1.2-.105,2.195-.317,3.045-.46,4.388-1.026,8.318-4.212,8.318-9.735,0-4.99-3.009-8.919-8.282-9.555a61.857,61.857,0,0,1-2.053,9.627c-2.053,6.972-4.885,10.9-8.319,10.9-3.362,0-6.477-3.858-6.477-9.556,0-7.646,6.725-14.265,15.362-14.265,8.213,0,13.415,5.77,13.415,12.955s-4.6,12.141-12.955,13.309Zm-2.443-10.866a52.505,52.505,0,0,0,1.877-8.814c-6.159.991-9.734,6.336-9.734,10.584,0,3.928,1.734,5.734,3.115,5.734C842.3,3005.145,843.966,3002.95,845.559,2997.641Z" transform="translate(-832.321 -2890.789)" fill="#333"/>
          <path id="Path_17933" data-name="Path 17933" d="M863.853,3031a11.606,11.606,0,0,0-1.133,1.488,34.36,34.36,0,0,1-8.53,9.555l-2.868-2.3a22.154,22.154,0,0,0,7.08-7.185H839.323c-1.345,0-2.583.071-4.07.177v-3.823a30.456,30.456,0,0,0,4.07.319h19.433a17.41,17.41,0,0,0,2.9-.249Zm-14.017,4.6c0,9.1-.566,15.786-9.7,20.493l-3.185-2.619a11.865,11.865,0,0,0,3.327-1.7c4.991-3.22,5.77-7.611,5.77-13.38a19.288,19.288,0,0,0-.178-2.8Z" transform="translate(-832.28 -2889.042)" fill="#333"/>
          <path id="Path_17934" data-name="Path 17934" d="M861.456,3072.362a8.969,8.969,0,0,0-.639,2.017c-.813,3.54-2.335,9.133-5.167,12.849a27.639,27.639,0,0,1-13.309,9.344l-2.9-3.327a21.888,21.888,0,0,0,17.307-18.9H839.652c-1.452,0-2.868.072-3.753.142v-3.893a31.448,31.448,0,0,0,3.789.248h16.919a8.466,8.466,0,0,0,2.229-.212Z" transform="translate(-832.254 -2887.365)" fill="#333"/>
          <path id="Path_17935" data-name="Path 17935" d="M861.893,3115.549a16.507,16.507,0,0,0-.956,2.123,37.426,37.426,0,0,1-4.956,10.017c1.31.813,2.442,1.593,3.327,2.229l-2.441,3.151c-.815-.673-1.947-1.522-3.256-2.407a32.742,32.742,0,0,1-13.274,8.99l-3.186-2.762a29.436,29.436,0,0,0,13.416-8.246c-2.549-1.664-5.274-3.292-7.149-4.354l2.3-2.584c1.947,1.027,4.637,2.549,7.186,4.071a27.447,27.447,0,0,0,4.07-8.459H845.929a38.834,38.834,0,0,1-9.131,9.026l-2.974-2.265a31.673,31.673,0,0,0,11.15-11.822,18.887,18.887,0,0,0,1.31-3.151l3.929,1.239c-.672,1.027-1.416,2.372-1.77,3.08l-.424.744h8.46a7.716,7.716,0,0,0,2.583-.354Z" transform="translate(-832.338 -2885.816)" fill="#333"/>
          <path id="Path_17936" data-name="Path 17936" d="M845.394,3180.854a43.693,43.693,0,0,0,.248-5.415c0-1.946.034-15.573.034-18.158a26.658,26.658,0,0,0-.247-4.318h4.459a26.338,26.338,0,0,0-.248,4.283v18.193a45.731,45.731,0,0,0,.248,5.415Z" transform="translate(-831.872 -2884.052)" fill="#333"/>
          <path id="Path_17937" data-name="Path 17937" d="M859.928,3201.993a18.992,18.992,0,0,0,3.434-.212v3.68c-.531-.071-1.8-.106-3.434-.106h-3.292v1.168c0,8.991-2.017,13.945-10.158,17.591l-2.939-2.8c6.513-2.371,9.558-5.38,9.558-14.583v-1.38h-9.169v5.2c0,1.416.107,2.9.143,3.4h-3.858c.035-.5.177-1.947.177-3.4v-5.2h-3.4c-1.629,0-3.079.071-3.611.106v-3.717a27.284,27.284,0,0,0,3.611.249h3.4v-4.035c0-1.2-.142-2.3-.177-2.761h3.894a19.936,19.936,0,0,0-.178,2.795v4H853.1v-4.035a22.769,22.769,0,0,0-.177-3.009h3.928a21.458,21.458,0,0,0-.212,3.009v4.035Z" transform="translate(-832.355 -2882.364)" fill="#333"/>
          <path id="Path_17938" data-name="Path 17938" d="M845.394,3265a43.711,43.711,0,0,0,.248-5.416c0-1.947.034-15.575.034-18.158a26.661,26.661,0,0,0-.247-4.319h4.459a26.337,26.337,0,0,0-.248,4.284v18.193a45.757,45.757,0,0,0,.248,5.416Z" transform="translate(-831.872 -2880.668)" fill="#333"/>
          <path id="Path_17939" data-name="Path 17939" d="M840.949,3302.506c0,1.664.707,2.089,2.336,2.442a29.67,29.67,0,0,0,4.352.248,56.62,56.62,0,0,0,11.964-1.168v4a106.444,106.444,0,0,1-12.139.708,42.006,42.006,0,0,1-5.7-.355c-2.831-.5-4.424-1.91-4.424-4.813v-19.042a20.276,20.276,0,0,0-.248-3.186h4.07a23.321,23.321,0,0,0-.212,3.186v7.256a97.52,97.52,0,0,0,12.707-4.035,27.465,27.465,0,0,0,3.362-1.7l1.486,3.468c-1.133.459-2.513,1.062-3.611,1.486-3.751,1.417-9.557,3.257-13.945,4.39Zm16.069-16.706a43.138,43.138,0,0,0-2.761-4.814l2.229-.921a49.391,49.391,0,0,1,2.833,4.742Zm3.434-7.221c.921,1.31,2.194,3.468,2.867,4.707l-2.266.992a40.451,40.451,0,0,0-2.831-4.778Z" transform="translate(-832.206 -2879)" fill="#333"/>
          <path id="Path_17940" data-name="Path 17940" d="M859.469,3326.279a13.576,13.576,0,0,0-1.027,1.8,47.6,47.6,0,0,1-5.663,9.947,93.9,93.9,0,0,1,9.946,10.157l-3.079,2.69a78.892,78.892,0,0,0-9.2-10.123,45.178,45.178,0,0,1-13.379,9.982l-2.795-2.938a39.788,39.788,0,0,0,14.3-10.159,30.128,30.128,0,0,0,5.521-9.2H841.275c-1.31,0-3.222.177-3.753.212v-3.929a36.357,36.357,0,0,0,3.753.248h12.92a12.1,12.1,0,0,0,3.044-.354Z" transform="translate(-832.32 -2877.148)" fill="#333"/>
        </g>
      </g>
      <path id="Path_17942" data-name="Path 17942" d="M.88.56A9.368,9.368,0,0,1-3.1-.3,8.944,8.944,0,0,1-6.34-2.88,12.864,12.864,0,0,1-8.52-7.22a21.263,21.263,0,0,1-.8-6.18,25.212,25.212,0,0,1,.9-7.22,14.192,14.192,0,0,1,2.46-4.9,9.541,9.541,0,0,1,3.56-2.8,10.317,10.317,0,0,1,4.2-.88,9.422,9.422,0,0,1,4.3.92,10.88,10.88,0,0,1,3.06,2.24l-2.52,2.8A6.026,6.026,0,0,0,4.6-24.8,5.9,5.9,0,0,0,2-25.4a6.005,6.005,0,0,0-3.52,1.12,7.573,7.573,0,0,0-2.56,3.74,21.378,21.378,0,0,0-.96,7.14,19.989,19.989,0,0,0,.72,5.86A7.167,7.167,0,0,0-2.28-4.12,4.615,4.615,0,0,0,.8-3a4.063,4.063,0,0,0,2.32-.7,4.864,4.864,0,0,0,1.66-2A7.143,7.143,0,0,0,5.4-8.8a6.905,6.905,0,0,0-.58-2.98,4.186,4.186,0,0,0-1.66-1.86,5.1,5.1,0,0,0-2.64-.64,5.754,5.754,0,0,0-2.78.84,8.367,8.367,0,0,0-2.82,2.92l-.2-3.36a10.15,10.15,0,0,1,2-2,9.454,9.454,0,0,1,2.34-1.3,6.532,6.532,0,0,1,2.3-.46,9.3,9.3,0,0,1,4.36.98,6.833,6.833,0,0,1,2.92,2.94A10.423,10.423,0,0,1,9.68-8.8,9.551,9.551,0,0,1,8.46-3.88,9.042,9.042,0,0,1,5.26-.62,8.4,8.4,0,0,1,.88.56Z" transform="translate(931.326 3042.271)" fill="#333"/>
      <text id="_0" data-name="0" transform="translate(931.326 3080.318)" fill="#333" font-size="40" font-family="NotoSansJP-Medium, Noto Sans JP" font-weight="500" letter-spacing="0.12em"><tspan x="-11.4" y="0">0</tspan></text>
      <g id="Group_13194" data-name="Group 13194" transform="translate(915.993 3419.57)">
        <g id="Group_13193" data-name="Group 13193">
          <path id="Path_17941" data-name="Path 17941" d="M883.761,3289.293c2.513-.212,8.636-.813,14.9-1.38,3.681-.319,7.115-.5,9.451-.566l.035,3.469a30.022,30.022,0,0,0-6.691.529,11.075,11.075,0,0,0-7.539,10.125c0,6.229,5.805,8.282,11.469,8.53l-1.275,3.717c-6.69-.355-13.733-3.964-13.733-11.5a13.411,13.411,0,0,1,5.77-10.972c-2.974.354-11.4,1.168-15.221,1.982l-.355-3.751C881.92,3289.435,883.088,3289.364,883.761,3289.293Zm22.37,9.946-2.159.991a32,32,0,0,0-2.761-4.849l2.089-.919A41.488,41.488,0,0,1,906.131,3299.239Zm3.964-1.593-2.159,1.027a30.04,30.04,0,0,0-2.867-4.742l2.053-.956A53.388,53.388,0,0,1,910.1,3297.646Z" transform="translate(-880.575 -3287.347)" fill="#333"/>
        </g>
      </g>
    </g>
  </g>
</svg>
