<svg xmlns="http://www.w3.org/2000/svg" width="70.449" height="231.37" viewBox="0 0 70.449 231.37">
  <g id="Group_13581" data-name="Group 13581" transform="translate(-1282.129 -1361)">
    <rect id="Rectangle_3075" data-name="Rectangle 3075" height="174.324" transform="translate(1329.556 1361)" fill="#998c72"/>
    <g id="Group_13178" data-name="Group 13178" transform="translate(1306.485 1363.313)">
      <g id="Group_13177" data-name="Group 13177">
        <path id="Path_17879" data-name="Path 17879" d="M1281.442,1316.738v1.7h-18.094v-1.7h7.946v-1.887h1.992v1.887Zm-.713,15.179c0,.985-.21,1.531-.922,1.846a10.465,10.465,0,0,1-3.46.314,7,7,0,0,0-.607-1.8h-5.6v1.006h-1.7v-5.535h7.926v4.529a17.282,17.282,0,0,0,1.971-.021c.335,0,.44-.084.44-.357v-5.3h-12.642v7.527h-1.908v-9.162h16.5Zm-2.684-12.475v4.382h-11.279v-4.382Zm-1.97,1.342h-7.422v1.7h7.422Zm-1.447,8.345h-4.486v1.782h4.486Z" transform="translate(-1262.844 -1314.851)" fill="#333"/>
        <path id="Path_17880" data-name="Path 17880" d="M1263.857,1367.346h7.59v9.037h-1.928v-.943H1265.7v1.09h-1.845Zm1.845,1.867v4.361h3.816v-4.361Zm12.831-3.9h-11.721v-7.149h11.721Zm-1.992-5.284h-7.862v3.417h7.862Zm4.927,7.317v9.079h-1.95v-.985h-4.151v1.09H1273.5v-9.183Zm-1.95,6.227v-4.361h-4.151v4.361Z" transform="translate(-1263.04 -1331.476)" fill="#333"/>
        <path id="Path_17881" data-name="Path 17881" d="M1265.781,1403.125a6.631,6.631,0,0,1-1.95,3.606,5.232,5.232,0,0,0-1.3-1.237,5.53,5.53,0,0,0,1.74-4.381V1399.1l1.363.378a28.772,28.772,0,0,0,4.655-.86l1.237,1.195a31.682,31.682,0,0,1-5.535.922v.441a3.555,3.555,0,0,1-.021.462h6.038v1.489h-2.243v2.39h-1.72v-2.39Zm4.822,12.181a27.737,27.737,0,0,1-6.416,2.6,13.754,13.754,0,0,0-1.468-1.446,22.925,22.925,0,0,0,6.1-1.971Zm-5.242-9.372h13.712v8.491h-13.712Zm1.887,2.432h9.875v-1.195h-9.875Zm0,2.412h9.875v-1.237h-9.875Zm0,2.431h9.875v-1.257h-9.875Zm6.939-10.084a5.429,5.429,0,0,1-2.2,2.788,4.5,4.5,0,0,0-1.195-1.321,3.876,3.876,0,0,0,2.012-3.564v-1.887l1.4.336a33.887,33.887,0,0,0,4.99-.818l1.258,1.174a34.259,34.259,0,0,1-5.934.9v.378a4.586,4.586,0,0,1-.021.524h6.9v1.489h-2.893v2.431h-1.783v-2.431Zm1.007,11.405a66.22,66.22,0,0,1,6.269,2.432l-2.243.923a42.5,42.5,0,0,0-5.619-2.37Z" transform="translate(-1262.53 -1347.003)" fill="#333"/>
        <path id="Path_17882" data-name="Path 17882" d="M1274.277,1445.5a30.253,30.253,0,0,1-3.606.734,34.721,34.721,0,0,1-4.3,8.491l-1.971-1.006a28.353,28.353,0,0,0,4.152-7.275c-.483.042-.965.042-1.447.042-.8,0-1.656-.042-2.452-.1l-.147-1.971a14.719,14.719,0,0,0,2.579.252c.671,0,1.362-.021,2.075-.084a15.235,15.235,0,0,0,.566-3.292l2.244.209c-.168.692-.42,1.74-.714,2.81a21.342,21.342,0,0,0,2.977-.692Zm2.516,2.118a22.818,22.818,0,0,0,0,2.39c.021.649.063,1.782.126,2.893a13.632,13.632,0,0,1,4.172,2.558l-1.069,1.74a16.636,16.636,0,0,0-3.019-2.243v.524c0,1.719-1.049,3.124-3.733,3.124-2.348,0-4.256-1.027-4.256-3.124,0-1.908,1.74-3.25,4.256-3.25a9,9,0,0,1,1.7.147c-.064-1.573-.168-3.417-.21-4.759Zm-1.762,6.542a6.765,6.765,0,0,0-1.866-.252c-1.342,0-2.244.566-2.244,1.384,0,.881.692,1.447,2.1,1.447a1.764,1.764,0,0,0,2.034-1.887C1275.053,1454.659,1275.053,1454.428,1275.031,1454.156Zm5.557-5.745a23.986,23.986,0,0,0-4.76-2.83l1.049-1.594a34.711,34.711,0,0,1,4.864,2.726Z" transform="translate(-1263.249 -1363.38)" fill="#333"/>
      </g>
    </g>
    <text id="POINT_02" data-name="POINT 02" transform="translate(1341.578 1362.851) rotate(90)" fill="#998c72" font-size="12" font-family="DIN2014-Bold, 'DIN \32 014'" font-weight="700" letter-spacing="0.13em"><tspan x="0" y="0">POINT 02</tspan></text>
    <g id="Group_13180" data-name="Group 13180" transform="translate(1282.129 1363.313)">
      <g id="Group_13179" data-name="Group 13179">
        <path id="Path_17883" data-name="Path 17883" d="M1235.359,1316.552a16.446,16.446,0,0,0,1.908-.146v2.159c-.566-.02-1.3-.042-1.824-.042h-3c.063,3.061.126,6.877.147,9.54.021,1.174-.671,1.824-2.055,1.824-1.132,0-2.327-.042-3.417-.126l-.188-2.1a21.211,21.211,0,0,0,2.851.23c.545,0,.733-.272.733-.838,0-1.531-.02-4.131-.063-6.646a28.571,28.571,0,0,1-8.743,7.4l-1.468-1.7a25.215,25.215,0,0,0,9.288-7.59h-6.29c-.713,0-1.426.022-2.1.063v-2.159c.587.063,1.384.125,2.034.125h7.212c-.02-.692-.041-1.3-.063-1.782a12.25,12.25,0,0,0-.188-1.866h2.348a11.022,11.022,0,0,0-.1,1.866l.021,1.782Z" transform="translate(-1218.942 -1312.904)" fill="#333"/>
        <path id="Path_17884" data-name="Path 17884" d="M1227.111,1356.827c-.042.419-.084.964-.084,1.51v6.919c0,.524.042,1.258.084,1.656H1224.7a15.77,15.77,0,0,0,.1-1.677v-6.9c0-.356-.042-1.091-.084-1.51Zm9.5-.167c-.042.545-.063,1.153-.063,1.908v3.648c0,4.717-.755,6.457-2.265,8.2a11.127,11.127,0,0,1-4.927,3l-1.7-1.783a9.555,9.555,0,0,0,4.99-2.7c1.426-1.615,1.7-3.229,1.7-6.835v-3.522a15.814,15.814,0,0,0-.126-1.908Z" transform="translate(-1220.654 -1329.699)" fill="#333"/>
        <path id="Path_17885" data-name="Path 17885" d="M1226.246,1404.33l-1.174,1.824a49.038,49.038,0,0,0-4.592-2.872l1.175-1.782A51.631,51.631,0,0,1,1226.246,1404.33Zm2.076,4.823a20.963,20.963,0,0,0,7.9-7.611l1.237,2.159a24.654,24.654,0,0,1-8.03,7.38,25.7,25.7,0,0,1-6.835,2.558l-1.216-2.118A21.987,21.987,0,0,0,1228.322,1409.153Zm1.027-9.394-1.216,1.783c-1.048-.776-3.25-2.2-4.508-2.935l1.153-1.782C1226.057,1397.558,1228.385,1399.067,1229.349,1399.759Zm6.206.629-1.447.629a20.173,20.173,0,0,0-1.866-3.25l1.405-.587A33.384,33.384,0,0,1,1235.555,1400.388Zm2.81-1.069-1.427.629a20.963,20.963,0,0,0-1.95-3.145l1.4-.608A24.082,24.082,0,0,1,1238.365,1399.319Z" transform="translate(-1219.034 -1344.874)" fill="#333"/>
        <path id="Path_17886" data-name="Path 17886" d="M1235.979,1443.107c.8,0,1.614-.042,1.992-.084v2.2c-.378-.021-1.3-.063-2.012-.063h-5.095c-.084,4.361-1.489,7.695-5.786,10.231l-2.013-1.51c3.963-1.824,5.514-4.822,5.6-8.722h-5.7c-.838,0-1.614.042-2.139.084V1443c.524.042,1.3.1,2.076.1h5.766v-2.453a10.287,10.287,0,0,0-.23-2.2h2.578a18.356,18.356,0,0,0-.146,2.223v2.432Z" transform="translate(-1219.165 -1361.093)" fill="#333"/>
        <path id="Path_17887" data-name="Path 17887" d="M1220.072,1495.209a9.219,9.219,0,0,0,3.46-4.906c.608-1.824.629-5.641.629-8.009a7.256,7.256,0,0,0-.167-1.657h2.369c0,.168-.1.923-.1,1.636a43.688,43.688,0,0,1-.629,8.575,11.66,11.66,0,0,1-3.669,5.766Zm9.393.294a6.014,6.014,0,0,0,.147-1.3V1482.21a14.692,14.692,0,0,0-.126-1.636h2.411a10.545,10.545,0,0,0-.126,1.636v11.2a14.539,14.539,0,0,0,5.619-4.759l1.216,1.782a21.635,21.635,0,0,1-6.982,5.682,4.379,4.379,0,0,0-.8.5Z" transform="translate(-1218.877 -1377.262)" fill="#333"/>
        <path id="Path_17888" data-name="Path 17888" d="M1225.19,1521.29a33.484,33.484,0,0,1-2.054,4.172v14.383h-1.845v-11.573a24.609,24.609,0,0,1-2.055,2.432,18.417,18.417,0,0,0-1.069-1.971,22.559,22.559,0,0,0,5.2-8.03Zm12.685,16.06v1.866h-13.46v-1.866h5.829v-4.759h-4.634v-1.845h4.634v-4.151h-5.326v-1.866h6.625a31.2,31.2,0,0,0-3.963-2.726l1.28-1.384a28.92,28.92,0,0,1,4.654,3.082l-.922,1.028h4.969v1.866h-5.346v4.151h4.739v1.845h-4.739v4.759Z" transform="translate(-1218.146 -1392.632)" fill="#333"/>
        <path id="Path_17889" data-name="Path 17889" d="M1234.4,1582.11c1.174,0,1.363-.482,1.51-3.019a5.316,5.316,0,0,0,1.95.8c-.314,3.229-.922,4.152-3.333,4.152h-4.361c-2.7,0-3.459-.65-3.459-2.977v-3.271l-7.129.776-.251-1.866,7.38-.8v-2.663c-1.594.293-3.208.524-4.759.713a6.15,6.15,0,0,0-.588-1.678c4.109-.566,8.7-1.488,11.322-2.662l1.551,1.593a33.877,33.877,0,0,1-5.41,1.615v2.851l8.785-.943.23,1.824-9.016.985v3.5c0,.922.231,1.069,1.489,1.069Zm-12.58-10.525h-1.971v-4.655h7.695v-2.013h2.076v2.013h7.841v4.655h-2.075v-2.81h-13.566Z" transform="translate(-1218.59 -1409.635)" fill="#333"/>
        <path id="Path_17890" data-name="Path 17890" d="M1226.788,1614.552h-8.009V1613h8.009Zm-.754,13.084H1221.4v.88h-1.677v-7.044h6.311Zm.021-10.588a4.792,4.792,0,0,0,2.2-4.382v-2.495h6.73v4.927c0,.482.042.566.335.566h.818c.315,0,.4-.273.44-2.2a4.381,4.381,0,0,0,1.594.713c-.126,2.5-.608,3.145-1.824,3.145h-1.342c-1.446,0-1.887-.483-1.887-2.2v-3.208h-3.02v.776a6.338,6.338,0,0,1-2.641,5.64,7.333,7.333,0,0,0-1.4-1.237v.272h-6.29v-1.51h6.29Zm-6.29,1.593h6.29v1.531h-6.29Zm6.227-6.877h-6.143v-1.53h6.143Zm-4.592,11.28v3.019h2.935v-3.019Zm15.62-4.131a13.574,13.574,0,0,1-3.4,6.123,13.913,13.913,0,0,0,4.592,2.055,7.64,7.64,0,0,0-1.258,1.677,14.071,14.071,0,0,1-4.8-2.453,15.742,15.742,0,0,1-5.052,2.453,7.012,7.012,0,0,0-1.048-1.719,14.351,14.351,0,0,0,4.655-2.055,14.844,14.844,0,0,1-2.726-4.151l1.74-.546a11.13,11.13,0,0,0,2.411,3.5,10.336,10.336,0,0,0,2.411-3.522h-7.506v-1.782h8.366l.356-.063Z" transform="translate(-1218.381 -1427.004)" fill="#333"/>
        <path id="Path_17891" data-name="Path 17891" d="M1224.255,1654.019a38.145,38.145,0,0,1-1.635,4.13v14.509h-1.845v-11.113a18.809,18.809,0,0,1-1.677,2.307,15.071,15.071,0,0,0-.964-2.055,24.385,24.385,0,0,0,4.319-8.282Zm13.566,6.856H1226.31v2.81c0,2.642-.293,6.5-1.991,9.016a7.936,7.936,0,0,0-1.426-1.216c1.489-2.265,1.636-5.472,1.636-7.821v-4.508h13.293Zm-10.358-3.92h-3.186v-1.72h3.186v-1.656h1.8v1.656h3.543v-1.656h1.845v1.656h3.082v1.72h-3.082v1.551h-1.845v-1.551h-3.543v1.551h-1.8Zm9.855,13.964c0,.776-.126,1.216-.65,1.488a6.377,6.377,0,0,1-2.474.273,5.309,5.309,0,0,0-.462-1.489c.755.021,1.405.021,1.614,0,.231-.021.294-.084.294-.293v-1.573h-2.62v3.25h-1.552v-3.25h-2.474v3.334h-1.636v-10.483h9.96Zm-8.324-7.276v1.551h2.474v-1.551Zm2.474,4.382v-1.53h-2.474v1.53Zm1.552-4.382v1.551h2.62v-1.551Zm2.62,4.382v-1.53h-2.62v1.53Z" transform="translate(-1218.133 -1443.642)" fill="#333"/>
      </g>
    </g>
    <rect id="Rectangle_3115" data-name="Rectangle 3115" width="0.608" height="178.87" transform="translate(1331.171 1362.99)" fill="#998c72"/>
  </g>
</svg>
