<svg xmlns="http://www.w3.org/2000/svg" width="69" height="243.428" viewBox="0 0 69 243.428">
  <g id="Group_13584" data-name="Group 13584" transform="translate(-1283.578 -1361)">
    <rect id="Rectangle_3075" data-name="Rectangle 3075" height="174.324" transform="translate(1329.556 1361)" fill="#998c72"/>
    <text id="POINT_05" data-name="POINT 05" transform="translate(1341.578 1362.626) rotate(90)" fill="#998c72" font-size="12" font-family="DIN2014-Bold, 'DIN \32 014'" font-weight="700" letter-spacing="0.13em"><tspan x="0" y="0">POINT 05</tspan></text>
    <rect id="Rectangle_3115" data-name="Rectangle 3115" width="0.608" height="178.87" transform="translate(1331.171 1362.626)" fill="#998c72"/>
    <g id="Group_13285" data-name="Group 13285" transform="translate(417.702 -1648.373)">
      <path id="Path_17865" data-name="Path 17865" d="M905.488,3261.739a.877.877,0,1,1-.876.877A.883.883,0,0,1,905.488,3261.739Zm2.454-2.454a.877.877,0,1,1,.877.876A.883.883,0,0,1,907.943,3259.284Zm-4.909,0a.877.877,0,1,1-.877-.876A.883.883,0,0,1,903.034,3259.284Zm2.454-.339,3.857-3.857.339.339-3.857,3.856,3.857,3.857-.339.339-3.857-3.857-3.868,3.868-.339-.339,3.868-3.869-3.857-3.856.339-.339Zm0-2.115a.876.876,0,1,1,.877-.876A.883.883,0,0,1,905.488,3256.83Z" transform="translate(1.189 -52.629)"/>
      <g id="Group_13190" data-name="Group 13190" transform="translate(890.35 3051.14)">
        <g id="Group_13189" data-name="Group 13189">
          <path id="Path_17923" data-name="Path 17923" d="M895.553,2982.926h-6.345v4h-1.736v-4h-8.225V2981.3h2.911v-4.771h5.314v-2.495h-4.139a16.431,16.431,0,0,1-2.6,3.435,13.313,13.313,0,0,0-1.465-1.084,14.623,14.623,0,0,0,3.941-6.128l1.7.451c-.217.561-.469,1.157-.7,1.7h10.466v1.626h-5.459v2.495h5.044v1.573h-5.044v3.2h6.345Zm-8.08-1.627v-3.2H883.84v3.2Z" transform="translate(-878.833 -2970.255)" fill="#333"/>
          <path id="Path_17924" data-name="Path 17924" d="M884.449,3012.849a32.612,32.612,0,0,1-1.771,3.67v12.329h-1.592v-9.888a19.366,19.366,0,0,1-1.681,2.007,9.946,9.946,0,0,0-.94-1.7,19.325,19.325,0,0,0,4.411-6.923Zm6.8,9.654a13.447,13.447,0,0,0,4.466,4.338,7.488,7.488,0,0,0-1.175,1.337,15.513,15.513,0,0,1-4.194-4.5v5.224h-1.681v-5.134a14.7,14.7,0,0,1-4.411,4.374,7.423,7.423,0,0,0-1.156-1.338,13.247,13.247,0,0,0,4.681-4.3h-4.1v-1.519h4.989v-1.97h-3.724v-5.892h9.346v5.892h-3.941v1.97h4.881v1.519Zm-4.736-4.99H892.6v-2.91H886.51Z" transform="translate(-878.466 -2989.985)" fill="#333"/>
          <path id="Path_17925" data-name="Path 17925" d="M878.942,3057.653h6.58v1.337h-6.58ZM885,3070.416h-3.8v.777h-1.445v-6.074H885Zm-.108-8.948h-5.1v-1.3h5.1Zm-5.1,1.157h5.1v1.3h-5.1Zm5.1-6.092H879.9v-1.32h4.989Zm-3.688,9.942v2.6h2.332v-2.6Zm14.407,2.531v1.591H885.54v-1.591h1.265v-8.767h1.554v8.767h1.826v-11.786H886.1v-1.591h9.2v1.591H891.83v4.664h3.362v1.59H891.83v5.531Z" transform="translate(-878.689 -3010.08)" fill="#333"/>
          <path id="Path_17926" data-name="Path 17926" d="M886.057,3103.617l-1.03,1.572a42.073,42.073,0,0,0-3.941-2.476l.994-1.536C883.2,3101.773,885.225,3103.039,886.057,3103.617Zm1.79,4.158a17.878,17.878,0,0,0,6.8-6.562l1.084,1.862a20.953,20.953,0,0,1-6.941,6.363,21.548,21.548,0,0,1-5.893,2.205l-1.03-1.844A19.225,19.225,0,0,0,887.847,3107.775Zm.885-8.1-1.048,1.536c-.922-.668-2.8-1.916-3.9-2.531l1.013-1.518C885.876,3097.778,887.883,3099.08,888.732,3099.677Z" transform="translate(-879.694 -3029.745)" fill="#333"/>
          <path id="Path_17927" data-name="Path 17927" d="M893.752,3138.945a6.964,6.964,0,0,0-.524.922,24.287,24.287,0,0,1-2.892,5.079,47.967,47.967,0,0,1,5.079,5.188l-1.573,1.375a40.322,40.322,0,0,0-4.7-5.171,23.073,23.073,0,0,1-6.833,5.1l-1.427-1.5a20.324,20.324,0,0,0,7.3-5.188,15.4,15.4,0,0,0,2.82-4.7h-6.544c-.669,0-1.645.09-1.916.109v-2.007a18.475,18.475,0,0,0,1.916.127h6.6a6.136,6.136,0,0,0,1.554-.181Z" transform="translate(-879.599 -3048.932)" fill="#333"/>
          <path id="Path_17928" data-name="Path 17928" d="M894.147,3181.337c.38,0,1.049-.037,1.5-.09v1.825c-.415-.018-1.03-.036-1.5-.036h-4.573a11.008,11.008,0,0,1-1.1,4.718,8.485,8.485,0,0,1-3.525,3.308l-1.627-1.193a7.484,7.484,0,0,0,3.29-2.639,8.292,8.292,0,0,0,1.048-4.194h-5.133c-.524,0-1.1.018-1.609.054v-1.844a15.545,15.545,0,0,0,1.609.09Zm-9.382-2.838c-.614,0-1.265.036-1.753.072v-1.826a13.273,13.273,0,0,0,1.736.108h7.158a14.46,14.46,0,0,0,1.771-.108v1.826c-.56-.036-1.211-.072-1.771-.072Z" transform="translate(-879.614 -3067.051)" fill="#333"/>
          <path id="Path_17929" data-name="Path 17929" d="M893.8,3230.214c-.235-.615-.542-1.393-.922-2.206-2.8.326-8.5.959-10.81,1.176-.452.036-1.03.126-1.555.2l-.343-2.061c.56.019,1.247,0,1.79-.018.217-.018.452-.018.722-.036,1.013-2.531,2.694-7.845,3.2-9.635a12.95,12.95,0,0,0,.379-1.861l2.223.452c-.217.489-.433,1.031-.687,1.79-.542,1.718-2.169,6.743-3.037,9.075,2.422-.217,5.423-.56,7.3-.8a23.73,23.73,0,0,0-2.006-3.471l1.717-.741a51.113,51.113,0,0,1,3.9,7.3Z" transform="translate(-879.263 -3085.344)" fill="#333"/>
        </g>
      </g>
      <g id="Group_13192" data-name="Group 13192" transform="translate(865.876 3010.87)">
        <g id="Group_13191" data-name="Group 13191">
          <path id="Path_17930" data-name="Path 17930" d="M839.228,2903.452c-.307,3.814-1.157,6.291-5.857,7.592a5.174,5.174,0,0,0-.976-1.464c4.23-1.031,4.808-2.983,5.044-6.128Zm-5.785-2.151c.832-.018,1.79-.037,2.838-.072a24.562,24.562,0,0,0,1.446-3.127h-4.845v-1.59h6.887v-2.061h1.736v2.061h6.977v1.59h-8.749c-.506,1.012-1.1,2.133-1.663,3.091,1.97-.072,4.14-.145,6.291-.2a26.5,26.5,0,0,0-2.043-1.826l1.392-.832a27.464,27.464,0,0,1,4.664,4.591l-1.5.977a13.948,13.948,0,0,0-1.084-1.41c-4.465.234-9.165.415-12.274.542Zm13.142,8.026c.687,0,.777-.38.868-2.982a4.937,4.937,0,0,0,1.537.687c-.163,3.091-.615,3.886-2.259,3.886h-2.368c-1.772,0-2.242-.524-2.242-2.242v-5.314H843.8v5.314c0,.561.108.651.777.651Z" transform="translate(-832.395 -2894.45)" fill="#333"/>
          <path id="Path_17931" data-name="Path 17931" d="M842.511,2950.719c1.265,1.718,3.453,2.747,6.49,3.145a6.031,6.031,0,0,0-1.013,1.465c-3.525-.6-5.82-2.007-7.212-4.5-.976,1.735-2.965,3.308-6.942,4.447a6.69,6.69,0,0,0-1.03-1.338c3.326-.849,5.115-1.988,6.073-3.218h-5.821v-1.464h6.6a6.77,6.77,0,0,0,.271-1.446H835.1v-1.392h4.844v-1.374H834.81v-1.048h-1.536v-3.615h6.707v-1.663h1.735v1.663h6.724v3.615h-1.392v1.048h-5.4v1.374h5.116v1.392h-5.134a9.584,9.584,0,0,1-.217,1.446h7.375v1.464Zm-2.567-7.068v-1.283h1.7v1.283h5.08v-1.79h-11.8v1.79Z" transform="translate(-832.587 -2915.2)" fill="#333"/>
          <path id="Path_17932" data-name="Path 17932" d="M841.264,2997.232c.615-.054,1.121-.162,1.555-.235a5.056,5.056,0,0,0,4.248-4.971,4.636,4.636,0,0,0-4.23-4.88,31.583,31.583,0,0,1-1.049,4.917c-1.049,3.561-2.495,5.567-4.248,5.567-1.717,0-3.308-1.97-3.308-4.88a7.608,7.608,0,0,1,7.845-7.285,6.481,6.481,0,0,1,6.851,6.616c0,3.669-2.35,6.2-6.616,6.8Zm-1.247-5.549a26.807,26.807,0,0,0,.958-4.5,5.835,5.835,0,0,0-4.971,5.405c0,2.006.886,2.928,1.591,2.928C838.353,2995.516,839.2,2994.395,840.017,2991.683Z" transform="translate(-833.256 -2937.115)" fill="#333"/>
          <path id="Path_17933" data-name="Path 17933" d="M849.859,3029.979a5.932,5.932,0,0,0-.578.76,17.544,17.544,0,0,1-4.356,4.88l-1.465-1.175a11.315,11.315,0,0,0,3.616-3.669h-9.743c-.687,0-1.319.036-2.079.09v-1.952a15.546,15.546,0,0,0,2.079.163h9.924a8.9,8.9,0,0,0,1.482-.127Zm-7.158,2.35c0,4.646-.289,8.062-4.953,10.466l-1.627-1.338a6.067,6.067,0,0,0,1.7-.867c2.549-1.645,2.947-3.887,2.947-6.833a9.838,9.838,0,0,0-.091-1.427Z" transform="translate(-833.735 -2957.481)" fill="#333"/>
          <path id="Path_17934" data-name="Path 17934" d="M848.951,3071.5a4.58,4.58,0,0,0-.326,1.03,18.2,18.2,0,0,1-2.639,6.562,14.115,14.115,0,0,1-6.8,4.772l-1.482-1.7a11.178,11.178,0,0,0,8.839-9.653h-8.73c-.742,0-1.465.037-1.917.072v-1.988a16.02,16.02,0,0,0,1.935.126h8.641a4.322,4.322,0,0,0,1.138-.108Z" transform="translate(-834.038 -2977.02)" fill="#333"/>
          <path id="Path_17935" data-name="Path 17935" d="M848.159,3112.4a8.422,8.422,0,0,0-.488,1.084,19.111,19.111,0,0,1-2.531,5.115c.669.416,1.247.813,1.7,1.139l-1.247,1.609c-.416-.344-.995-.778-1.663-1.229a16.722,16.722,0,0,1-6.779,4.591l-1.627-1.41a15.034,15.034,0,0,0,6.851-4.211c-1.3-.85-2.693-1.681-3.651-2.224l1.175-1.32c.995.524,2.368,1.3,3.67,2.079a14.022,14.022,0,0,0,2.079-4.32h-5.64a19.839,19.839,0,0,1-4.663,4.61l-1.519-1.157a16.171,16.171,0,0,0,5.694-6.038,9.643,9.643,0,0,0,.669-1.609l2.006.633c-.343.524-.723,1.211-.9,1.573l-.217.38h4.32a3.939,3.939,0,0,0,1.319-.181Z" transform="translate(-833.065 -2995.073)" fill="#333"/>
          <path id="Path_17936" data-name="Path 17936" d="M845.394,3167.207a22.312,22.312,0,0,0,.126-2.766c0-.994.018-7.953.018-9.273a13.618,13.618,0,0,0-.126-2.205h2.277a13.45,13.45,0,0,0-.126,2.187v9.291a23.353,23.353,0,0,0,.126,2.766Z" transform="translate(-838.488 -3015.632)" fill="#333"/>
          <path id="Path_17937" data-name="Path 17937" d="M846.939,3198.546a9.681,9.681,0,0,0,1.754-.108v1.88c-.271-.036-.922-.054-1.754-.054h-1.681v.6c0,4.592-1.03,7.122-5.188,8.984l-1.5-1.428c3.326-1.211,4.881-2.748,4.881-7.447v-.705h-4.682v2.657c0,.723.055,1.482.073,1.735h-1.97c.018-.253.09-.994.09-1.735v-2.657h-1.735c-.832,0-1.573.036-1.844.054v-1.9a13.937,13.937,0,0,0,1.844.127h1.735v-2.06c0-.615-.072-1.175-.09-1.41h1.988a10.178,10.178,0,0,0-.091,1.427v2.043h4.682v-2.06a11.633,11.633,0,0,0-.09-1.537h2.006a10.956,10.956,0,0,0-.108,1.537v2.06Z" transform="translate(-832.858 -3035.313)" fill="#333"/>
          <path id="Path_17938" data-name="Path 17938" d="M845.394,3251.349a22.322,22.322,0,0,0,.126-2.766c0-.995.018-7.954.018-9.273a13.621,13.621,0,0,0-.126-2.206h2.277a13.449,13.449,0,0,0-.126,2.188v9.292a23.368,23.368,0,0,0,.126,2.766Z" transform="translate(-838.488 -3055.074)" fill="#333"/>
          <path id="Path_17939" data-name="Path 17939" d="M839.061,3290.8c0,.85.361,1.067,1.193,1.247a15.144,15.144,0,0,0,2.223.126,28.918,28.918,0,0,0,6.11-.6v2.043a54.393,54.393,0,0,1-6.2.361,21.462,21.462,0,0,1-2.911-.181c-1.446-.253-2.259-.975-2.259-2.458v-9.725a10.361,10.361,0,0,0-.126-1.627h2.079a11.907,11.907,0,0,0-.108,1.627v3.705a49.749,49.749,0,0,0,6.49-2.061,14.037,14.037,0,0,0,1.717-.867l.759,1.771c-.579.235-1.284.542-1.844.759-1.916.724-4.88,1.663-7.122,2.242Zm8.207-8.532a22.034,22.034,0,0,0-1.41-2.458l1.138-.47a25.24,25.24,0,0,1,1.447,2.422Zm1.754-3.688c.47.669,1.12,1.771,1.464,2.4l-1.157.507a20.646,20.646,0,0,0-1.446-2.44Z" transform="translate(-834.596 -3074.516)" fill="#333"/>
          <path id="Path_17940" data-name="Path 17940" d="M847.137,3325.464a6.917,6.917,0,0,0-.524.922,24.316,24.316,0,0,1-2.892,5.08,47.964,47.964,0,0,1,5.079,5.188l-1.573,1.374a40.278,40.278,0,0,0-4.7-5.17,23.072,23.072,0,0,1-6.833,5.1l-1.427-1.5a20.318,20.318,0,0,0,7.3-5.188,15.392,15.392,0,0,0,2.819-4.7h-6.543c-.669,0-1.645.09-1.917.108v-2.006a18.578,18.578,0,0,0,1.917.126h6.6a6.189,6.189,0,0,0,1.554-.181Z" transform="translate(-833.273 -3096.095)" fill="#333"/>
        </g>
      </g>
      <path id="Path_17942" data-name="Path 17942" d="M-4.111-14a4.784,4.784,0,0,1-2.033-.439A4.568,4.568,0,0,1-7.8-15.759a6.57,6.57,0,0,1-1.113-2.216,10.859,10.859,0,0,1-.409-3.156,12.876,12.876,0,0,1,.46-3.687,7.248,7.248,0,0,1,1.256-2.5,4.872,4.872,0,0,1,1.818-1.43A5.269,5.269,0,0,1-3.641-29.2a4.812,4.812,0,0,1,2.2.47A5.557,5.557,0,0,1,.118-27.586l-1.287,1.43a3.077,3.077,0,0,0-1.042-.8,3.012,3.012,0,0,0-1.328-.306,3.067,3.067,0,0,0-1.8.572,3.867,3.867,0,0,0-1.307,1.91,10.918,10.918,0,0,0-.49,3.646,10.208,10.208,0,0,0,.368,2.993,3.66,3.66,0,0,0,1.042,1.747,2.357,2.357,0,0,0,1.573.572,2.075,2.075,0,0,0,1.185-.357A2.484,2.484,0,0,0-2.119-17.2,3.648,3.648,0,0,0-1.8-18.782,3.526,3.526,0,0,0-2.1-20.3a2.138,2.138,0,0,0-.848-.95,2.6,2.6,0,0,0-1.348-.327,2.939,2.939,0,0,0-1.42.429,4.273,4.273,0,0,0-1.44,1.491l-.1-1.716A5.184,5.184,0,0,1-6.235-22.4a4.828,4.828,0,0,1,1.2-.664A3.336,3.336,0,0,1-3.866-23.3a4.75,4.75,0,0,1,2.227.5,3.489,3.489,0,0,1,1.491,1.5,5.323,5.323,0,0,1,.531,2.513A4.878,4.878,0,0,1-.24-16.269,4.618,4.618,0,0,1-1.874-14.6,4.287,4.287,0,0,1-4.111-14Z" transform="translate(903.861 3041.194)" fill="#333"/>
      <text id="_0" data-name="0" transform="translate(898.683 3044.845)" fill="#333" font-size="19" font-family="NotoSansJP-Medium, Noto Sans JP" font-weight="500" letter-spacing="0.12em"><tspan x="-5.415" y="0">0</tspan></text>
      <g id="Group_13194" data-name="Group 13194" transform="translate(891.471 3219.591)">
        <g id="Group_13193" data-name="Group 13193">
          <path id="Path_17941" data-name="Path 17941" d="M882.2,3288.341c1.284-.108,4.41-.415,7.61-.7,1.88-.163,3.634-.253,4.827-.289l.018,1.772a15.334,15.334,0,0,0-3.417.27,5.656,5.656,0,0,0-3.85,5.171c0,3.181,2.965,4.23,5.857,4.356l-.651,1.9c-3.416-.181-7.013-2.025-7.013-5.875a6.849,6.849,0,0,1,2.947-5.6c-1.519.181-5.821.6-7.773,1.012l-.181-1.916C881.262,3288.413,881.859,3288.377,882.2,3288.341Zm11.424,5.079-1.1.506a16.339,16.339,0,0,0-1.41-2.477l1.067-.469A21.215,21.215,0,0,1,893.626,3293.42Zm2.024-.813-1.1.524a15.341,15.341,0,0,0-1.464-2.422l1.049-.488A27.258,27.258,0,0,1,895.651,3292.607Z" transform="translate(-880.575 -3287.347)" fill="#333"/>
        </g>
      </g>
    </g>
  </g>
</svg>
